<?xml version="1.0" encoding="iso-8859-1"?>
<!-- Generator: Adobe Illustrator 19.0.0, SVG Export Plug-In . SVG Version: 6.00 Build 0)  -->
<svg version="1.1" id="Layer_1" xmlns="http://www.w3.org/2000/svg" xmlns:xlink="http://www.w3.org/1999/xlink" x="0px" y="0px"
	 viewBox="0 0 512 512" style="enable-background:new 0 0 512 512;" xml:space="preserve">
<polygon style="fill:#E6E6E6;" points="496.758,321.676 371.038,347.908 397.27,231.603 461.812,231.603 468.796,249.597 "/>
<g>
	<path style="fill:#666666;" d="M397.27,302.262V269.01c0-10.722,8.691-19.413,19.413-19.413h52.113l-6.984-17.994H397.27h-17.788
		h-30.2l-41.827,174.911l106.845-3.769l82.459,3.769v-84.838h-80.075C405.963,321.676,397.27,312.984,397.27,302.262z"/>
	<path style="fill:#666666;" d="M158.134,142.55c-0.382,0-0.767-0.023-1.151-0.069c-34.419-4.133-59.805-17.215-75.454-38.881
		C58.166,71.253,65.782,32.037,66.116,30.383c0.523-2.581,2.08-4.835,4.308-6.241c2.228-1.405,4.934-1.838,7.487-1.2
		c32.414,8.103,58.248,29.575,74.711,62.093c12.209,24.115,14.977,45.781,15.087,46.692c0.36,2.943-0.651,5.888-2.745,7.987
		C163.145,141.539,160.682,142.55,158.134,142.55z M84.033,45.049c-0.319,11.765,1.371,31.066,13.243,47.401
		c10.35,14.242,26.632,23.839,48.509,28.621c-2.01-7.5-5.333-17.476-10.646-27.85C123.015,69.541,105.856,53.381,84.033,45.049z"/>
	<path style="fill:#666666;" d="M208.435,142.55c-2.547,0-5.01-1.01-6.831-2.835c-2.094-2.099-3.105-5.044-2.745-7.987
		c0.112-0.911,2.879-22.575,15.087-46.692c16.463-32.518,42.298-53.99,74.711-62.093c2.553-0.639,5.259-0.206,7.487,1.2
		c2.226,1.405,3.783,3.659,4.307,6.241c0.336,1.654,7.951,40.87-15.413,73.217c-15.649,21.666-41.035,34.747-75.454,38.881
		C209.2,142.526,208.817,142.55,208.435,142.55z M282.576,45.034c-21.84,8.327-39.013,24.492-51.146,48.186
		c-5.312,10.373-8.636,20.35-10.646,27.85c21.952-4.798,38.27-14.443,48.615-28.766C281.264,75.878,282.924,56.72,282.576,45.034z"
		/>
</g>
<g>
	<polygon style="fill:#F95428;" points="349.282,208.091 17.287,208.091 0,208.091 0,132.9 366.569,132.9 366.569,208.091 	"/>
	<rect x="17.287" y="195.58" style="fill:#F95428;" width="331.995" height="204.507"/>
</g>
<rect x="17.287" y="208.095" style="fill:#E54728;" width="331.995" height="30.869"/>
<path style="fill:#666666;" d="M208.43,120.216v272.238h-50.291V120.216c0-13.299,10.766-24.065,24.052-24.065h2.187
	C197.664,96.153,208.43,106.918,208.43,120.216z"/>
<polygon style="fill:#E6E6E6;" points="496.758,392.456 496.758,392.456 414.3,392.456 9.184,392.456 9.184,437.305 512,437.305 
	512,392.456 "/>
<g>
	<rect x="158.139" y="208.095" style="fill:#4D4D4D;" width="50.291" height="30.869"/>
	<path style="fill:#4D4D4D;" d="M414.3,374.449c27.37,0,50.265,19.177,56.001,44.85c0.913,4.052,1.389,8.27,1.389,12.605
		c0,31.731-25.698,57.442-57.39,57.442c-31.679,0-57.378-25.711-57.378-57.442c0-4.335,0.476-8.553,1.389-12.605
		C364.048,393.626,386.942,374.449,414.3,374.449z"/>
</g>
<path style="fill:#666666;" d="M414.3,461.048c-16.036,0-29.081-13.074-29.081-29.145c0-2.185,0.235-4.332,0.697-6.383
	c2.953-13.218,14.885-22.776,28.384-22.776c13.505,0,25.444,9.557,28.385,22.723c0.473,2.103,0.709,4.25,0.709,6.435
	C443.394,447.974,430.343,461.048,414.3,461.048z"/>
<path style="fill:#4D4D4D;" d="M179.709,419.299c0.9,4.026,1.376,8.219,1.376,12.528c0,31.692-25.698,57.378-57.39,57.378
	c-31.679,0-57.378-25.686-57.378-57.378c0-4.309,0.476-8.502,1.376-12.528c5.711-25.673,28.631-44.85,56.001-44.85
	C151.078,374.449,173.998,393.626,179.709,419.299z"/>
<path style="fill:#666666;" d="M123.694,460.908c-16.036,0-29.081-13.046-29.081-29.081c0-2.156,0.234-4.292,0.695-6.35
	c2.933-13.185,14.869-22.731,28.387-22.731c13.527,0,25.468,9.545,28.392,22.696c0.468,2.093,0.702,4.229,0.702,6.385
	C152.788,447.862,139.737,460.908,123.694,460.908z"/>
<g>
</g>
<g>
</g>
<g>
</g>
<g>
</g>
<g>
</g>
<g>
</g>
<g>
</g>
<g>
</g>
<g>
</g>
<g>
</g>
<g>
</g>
<g>
</g>
<g>
</g>
<g>
</g>
<g>
</g>
</svg>
