<?xml version="1.0" encoding="iso-8859-1"?>
<!-- Generator: Adobe Illustrator 19.0.0, SVG Export Plug-In . SVG Version: 6.00 Build 0)  -->
<svg version="1.1" id="Layer_1" xmlns="http://www.w3.org/2000/svg" xmlns:xlink="http://www.w3.org/1999/xlink" x="0px" y="0px"
	 viewBox="0 0 512 512" style="enable-background:new 0 0 512 512;" xml:space="preserve">
<circle style="fill:#83E46F;" cx="256" cy="256" r="256"/>
<path style="fill:#2AD827;" d="M512,256c0-3.001-0.071-5.985-0.173-8.96l-83.077-83.077h-52.386l-51.509-59.629H150.042v67.438
	H86.643v125.133H31.479v57.051l145.642,145.642C201.97,507.638,228.474,512,256,512C397.385,512,512,397.385,512,256z"/>
<rect x="150.04" y="104.33" style="fill:#9A4C00;" width="174.81" height="193.03"/>
<rect x="237.45" y="104.33" style="fill:#703700;" width="87.41" height="193.03"/>
<rect x="86.64" y="171.77" style="fill:#E67500;" width="150.81" height="125.59"/>
<rect x="162.05" y="171.77" style="fill:#C06200;" width="75.4" height="125.59"/>
<g>
	<rect x="140.1" y="171.77" style="fill:#D9D9DB;" width="43.896" height="35.665"/>
	<rect x="106.11" y="224.48" style="fill:#D9D9DB;" width="111.87" height="56.728"/>
</g>
<rect x="162.05" y="171.77" style="fill:#C8C6CC;" width="21.949" height="35.666"/>
<rect x="31.479" y="296.9" style="fill:#0088FF;" width="310.63" height="57.05"/>
<rect x="31.479" y="325.43" style="fill:#005ED3;" width="310.63" height="28.525"/>
<polygon style="fill:#FF3200;" points="480.521,353.955 324.856,353.955 324.856,163.963 428.75,163.963 480.521,246.369 "/>
<polygon style="fill:#E1E1E3;" points="456.819,246.369 414.774,179.445 380.072,179.445 380.072,246.369 "/>
<path style="fill:#0088FF;" d="M452.319,282.384h-26.917c-2.475,0-4.5-2.025-4.5-4.5v-7.629c0-2.475,2.025-4.5,4.5-4.5h26.917
	c2.475,0,4.5,2.025,4.5,4.5v7.629C456.819,280.359,454.794,282.384,452.319,282.384z"/>
<circle style="fill:#2A2A2C;" cx="405.5" cy="353.95" r="45.711"/>
<circle style="fill:#3C3B41;" cx="130.3" cy="353.95" r="45.711"/>
<circle style="fill:#FFFFFF;" cx="130.3" cy="353.95" r="25.316"/>
<circle style="fill:#E1E1E3;" cx="405.5" cy="353.95" r="25.316"/>
<g>
</g>
<g>
</g>
<g>
</g>
<g>
</g>
<g>
</g>
<g>
</g>
<g>
</g>
<g>
</g>
<g>
</g>
<g>
</g>
<g>
</g>
<g>
</g>
<g>
</g>
<g>
</g>
<g>
</g>
</svg>
