<?xml version="1.0" encoding="iso-8859-1"?>
<!-- Generator: Adobe Illustrator 19.0.0, SVG Export Plug-In . SVG Version: 6.00 Build 0)  -->
<svg version="1.1" id="Layer_1" xmlns="http://www.w3.org/2000/svg" xmlns:xlink="http://www.w3.org/1999/xlink" x="0px" y="0px"
	 viewBox="0 0 496.246 496.246" style="enable-background:new 0 0 496.246 496.246;" xml:space="preserve">
<path style="fill:#1A3D5B;" d="M471.135,68.332H250.778v6.451c0-15.328-12.446,12.69-27.758,12.69H93.468
	c-15.321,0-27.75,12.43-27.75,27.75L4.427,321.118c0,15.344,12.414,27.758,27.758,27.758h140.753h50.089h248.115
	c6.845,0,12.383-5.537,12.383-12.367V80.699C483.525,73.862,477.98,68.332,471.135,68.332z"/>
<path style="fill:#0A2438;" d="M18.188,274.857L4.419,321.119c0,15.344,12.414,27.758,27.758,27.758H172.93h50.089h248.115
	c6.845,0,12.383-5.537,12.383-12.367v-61.653H18.188z"/>
<path style="fill:#528099;" d="M153.624,114.475H65.788c0,0.252-0.063,0.496-0.063,0.756l-26.734,89.773
	c1.434,0.221,2.867,0.457,4.372,0.457h110.269c15.328,0,27.758-12.43,27.758-27.758v-35.47
	C181.382,126.889,168.952,114.475,153.624,114.475z"/>
<path style="fill:#C1E5F4;" d="M54.91,282.199c0,14.249-3.269,25.813-7.326,25.813c-4.033,0-7.318-11.571-7.318-25.813
	c0-14.281,3.285-25.836,7.318-25.836C51.641,256.362,54.91,267.918,54.91,282.199z"/>
<path style="fill:#D9F5FF;" d="M47.584,308.019c-4.033,0-7.318-11.571-7.318-25.813c0-14.281,3.285-25.836,7.318-25.836"/>
<g>
	<path style="fill:#1D5777;" d="M108.19,205.462l71.719-71.719c-2.576-7.971-8.554-14.336-16.321-17.337l-89.049,89.056H108.19z"/>
	<path style="fill:#1D5777;" d="M125.424,205.462h28.199c15.328,0,27.758-12.43,27.758-27.758v-28.199L125.424,205.462z"/>
	<path style="fill:#1D5777;" d="M93.538,114.475h-27.75c0,0.252-0.063,0.496-0.063,0.756L54.24,153.765L93.538,114.475z"/>
</g>
<path style="fill:#FFA522;" d="M496.246,359.944c0,5.711-4.632,10.342-10.342,10.342H10.335C4.608,370.294,0,365.655,0,359.944
	V324.34c0-5.727,4.608-10.342,10.335-10.342h475.569c5.711,0,10.342,4.624,10.342,10.342V359.944z"/>
<g>
	<path style="fill:#FFC41F;" d="M485.904,313.998H10.335C4.608,313.998,0,318.622,0,324.348v7.845
		c0,5.711,4.608,10.335,10.335,10.335h475.569c5.711,0,10.342-4.632,10.342-10.335v-7.845
		C496.246,318.622,491.615,313.998,485.904,313.998z"/>
	<path style="fill:#FFC41F;" d="M135.467,376.596c0,19.259-15.644,34.895-34.911,34.895s-34.895-15.628-34.895-34.895
		c0-19.291,15.628-34.926,34.895-34.926S135.467,357.297,135.467,376.596z"/>
</g>
<path style="fill:#FFA522;" d="M100.557,341.669c19.267,0,34.911,15.628,34.911,34.926c0,19.259-15.644,34.895-34.911,34.895"/>
<path style="fill:#1A3D5B;" d="M100.557,427.914c-28.302,0-51.326-23.032-51.326-51.326c0-28.325,23.016-51.342,51.326-51.342
	s51.326,23.016,51.326,51.342C151.883,404.882,128.859,427.914,100.557,427.914z M100.557,358.101
	c-10.193,0-18.479,8.302-18.479,18.495c0,10.177,8.287,18.464,18.479,18.464s18.495-8.287,18.495-18.464
	C119.052,366.403,110.75,358.101,100.557,358.101z"/>
<circle style="fill:#FFC41F;" cx="402.038" cy="376.58" r="34.903"/>
<path style="fill:#FFA522;" d="M377.336,351.894c13.627-13.619,35.738-13.619,49.357,0c13.643,13.627,13.627,35.738,0,49.373"/>
<path style="fill:#1A3D5B;" d="M438.319,412.877c-20.023,20.023-52.578,20.023-72.602,0c-20.023-20.023-20.023-52.571,0-72.586
	c20.023-20.039,52.578-20.039,72.602,0C458.327,360.306,458.327,392.854,438.319,412.877z M388.962,363.504
	c-7.223,7.207-7.223,18.928,0,26.136c7.192,7.207,18.913,7.207,26.12,0c7.2-7.207,7.2-18.928,0-26.136
	C407.883,356.313,396.154,356.313,388.962,363.504z"/>
<g>
	<path style="fill:#FFC41F;" d="M303.206,239.293h-37.053c23.182-22.481,40.669-41.913,40.669-66.19
		c0-20.385-13.257-40.952-42.803-40.952c-13.989,0-27.38,4.813-37.715,13.556c-2.206,1.89-2.922,5.002-1.733,7.656l5.104,11.311
		c0.835,1.843,2.505,3.198,4.49,3.671c1.961,0.473,4.057-0.047,5.616-1.355c3.797-3.174,11.603-8.523,20.953-8.523
		c11.453,0,17.006,5.451,17.006,16.581c-0.15,15.006-12.524,29.168-42.134,57.344l-12.564,12.209
		c-1.26,1.213-1.969,2.907-1.969,4.671v9.838c0,3.592,2.907,6.498,6.514,6.498h75.618c3.616,0,6.514-2.907,6.514-6.498v-13.304
		C309.713,242.2,306.822,239.293,303.206,239.293z"/>
	<path style="fill:#FFC41F;" d="M404.362,207.762h-10.075v-67.104c0-3.592-2.922-6.498-6.514-6.498h-17.321
		c-2.111,0-4.12,1.048-5.341,2.773l-52.838,75.634c-0.764,1.095-1.174,2.379-1.174,3.718v10.571c0,3.584,2.907,6.491,6.506,6.491
		h48.514v25.765c0,3.592,2.922,6.498,6.522,6.498h15.132c3.592,0,6.514-2.907,6.514-6.498v-25.765h10.075
		c3.584,0,6.491-2.907,6.491-6.491v-12.572C410.852,210.668,407.946,207.762,404.362,207.762z M346.262,207.762l19.858-27.672
		v27.672H346.262z"/>
</g>
<g>
	<path style="fill:#FFA522;" d="M309.713,259.104v-13.304c0-3.592-2.891-6.498-6.514-6.498h-24.773h-12.28
		c23.182-22.481,40.669-41.913,40.669-66.19c0-18.897-11.422-37.935-36.659-40.598c-11.729,1.189-22.764,5.75-31.579,13.202
		c-2.206,1.89-2.922,5.002-1.733,7.656l5.104,11.311c0.079,0.158,0.244,0.244,0.323,0.41c4.246-3.04,10.815-6.617,18.464-6.617
		c2.363,0,4.411,0.284,6.262,0.756c1.914-0.457,3.931-0.756,6.018-0.756c11.453,0,17.006,5.451,17.006,16.581
		c-0.142,15.006-12.516,29.168-42.134,57.344l-12.564,12.209c-1.268,1.213-1.977,2.907-1.977,4.671v9.838
		c0,3.592,2.907,6.498,6.514,6.498h63.338C306.822,265.602,309.713,262.695,309.713,259.104z"/>
	<path style="fill:#FFA522;" d="M394.287,259.104v-25.765h81.967c3.592,0,6.498-2.907,6.498-6.491v-12.572
		c0-3.608-2.907-6.514-6.498-6.514h-81.967v-67.104c0-3.592-2.922-6.498-6.514-6.498h-5.041c-2.111,0-4.12,1.048-5.341,2.773
		l-52.831,75.634c-0.772,1.095-1.182,2.379-1.182,3.718v10.571c0,3.584,2.907,6.491,6.506,6.491h36.234h12.28v25.765
		c0,3.592,2.922,6.498,6.522,6.498h2.851C391.365,265.602,394.287,262.695,394.287,259.104z M378.407,207.762h-12.28h-7.578h-12.28
		l19.858-27.672v17.101l12.28-17.101V207.762z"/>
	<path style="fill:#FFA522;" d="M483.037,186.25c0,1.875-1.512,3.395-3.395,3.395h-72.208c-1.875,0-3.395-1.512-3.395-3.395l0,0
		c0-1.859,1.512-3.395,3.395-3.395h72.208C481.524,182.855,483.037,184.383,483.037,186.25L483.037,186.25z"/>
	<path style="fill:#FFA522;" d="M483.037,167.834c0,1.875-1.512,3.395-3.395,3.395h-72.208c-1.875,0-3.395-1.512-3.395-3.395l0,0
		c0-1.859,1.512-3.395,3.395-3.395h72.208C481.524,164.439,483.037,165.967,483.037,167.834L483.037,167.834z"/>
	<path style="fill:#FFA522;" d="M483.037,149.417c0,1.875-1.512,3.395-3.395,3.395h-72.208c-1.875,0-3.395-1.512-3.395-3.395l0,0
		c0-1.859,1.512-3.395,3.395-3.395h72.208C481.524,146.022,483.037,147.551,483.037,149.417L483.037,149.417z"/>
</g>
<g>
</g>
<g>
</g>
<g>
</g>
<g>
</g>
<g>
</g>
<g>
</g>
<g>
</g>
<g>
</g>
<g>
</g>
<g>
</g>
<g>
</g>
<g>
</g>
<g>
</g>
<g>
</g>
<g>
</g>
</svg>
