<svg xmlns="http://www.w3.org/2000/svg" viewBox="0 0 156 182.64"><defs><style>.cls-1{fill:#d5dce0;}.cls-2{fill:#255605;}.cls-3{fill:#163502;}.cls-4{fill:#599e2d;}.cls-5{fill:#316d0d;}.cls-6{fill:#ff5538;}.cls-7{fill:#e84731;}.cls-8{fill:#ce3d2e;}.cls-9{fill:#840000;}</style></defs><title>gift</title><g id="Слой_2" data-name="Слой 2"><g id="OBJECTS"><ellipse class="cls-1" cx="78" cy="174.76" rx="78" ry="7.87"/><path class="cls-2" d="M82.08,37.79C83.13,33.08,87.35,8.08,76.46,2S54,4.78,53.28,19.87,74,41.1,74,41.1s-13.17-21-11.41-28.53S69.08,5,70.66,6.67,80.15,18.46,77,34,82.08,37.79,82.08,37.79Z"/><path class="cls-3" d="M62.59,12.56c1.58-6.78,5.55-7.46,7.5-6.34h0C69.62,4.46,64.55.94,61.8,2.45c-4.73,3.23-8.15,9.46-8.52,17.42C52.58,35,74,41.1,74,41.1S60.83,20.11,62.59,12.56Z"/><path class="cls-2" d="M76.79,41.11c-3.14-3.14-22.6-31-38.52-25.74C30.22,17.92,27.46,29.9,41,39.73s10.41-.59,10.41-.59S33.75,24,45.35,18.51c1.57-1,22.9,16.19,27.42,21.5C77.54,45.63,76.79,41.11,76.79,41.11Z"/><path class="cls-3" d="M45.35,18.51c.13-.08.41,0,.8.14C44,17.18,39.63,14.91,35.21,17h0C29.77,21.27,29.38,31.29,41,39.73c13.56,9.83,10.41-.59,10.41-.59S33.75,24,45.35,18.51Z"/><path class="cls-4" d="M78,43.66C76.61,37,69.22,4.31,49.66,11a7.64,7.64,0,0,0-3.53,2C43.62,15.63,43,33.89,58.9,40.79c14.81,6.4,14.66,1.84,14.66,1.84S39.68,16.15,58.9,12.81C65.17,11.72,72.83,26.91,78,43.66Z"/><path class="cls-3" d="M67,16.84c-.4-.45-.72-.82-.92-1.07s-.34-.39-.52-.57c-3.47-3-6.64-2.4-6.64-2.4C64.49,14.44,71,25.1,76.1,39.7c.47,1.36,1.42,2.54,1.86,4C77.12,39.55,73.9,25.35,67,16.84Z"/><path class="cls-3" d="M78.75,39.54C85.81,29.82,95.28,18,102.57,14.36c5.77-2.87,21.52-4.27,23.58,5.45s-10,21.79-18,23-7.36,0-2.36-1.77,15-14.13,7.07-21.49-22,10.08-22,10.08-6.4,13-3.31,14.57S78.75,39.54,78.75,39.54Z"/><path class="cls-5" d="M108.19,42.77c7.95-1.18,20-13.25,18-23-1.85-8.7-14.66-8.48-21.46-6.28a11.28,11.28,0,0,1,9.23,7.08h0c6,7.43-3.32,18.71-8.08,20.39C100.83,42.77,100.24,44,108.19,42.77Z"/><path class="cls-2" d="M104.65,43.2c.91-.07,2.08-.2,3.54-.42,6.29-.93,15.14-8.69,17.54-16.7-.27.28-9.75,9.83-16.06,12.33a12,12,0,0,1-3.84,2.6c-.74.26-1.37.51-1.9.73A8.19,8.19,0,0,0,104.65,43.2Z"/><path class="cls-5" d="M76.1,42.63c0-4.86,2.43-30,13-33.56s17,11.63,15.9,19.65c-.79,5.73-2.89,10.89-10.16,13.91s-9.05-2.5-9.05-2.5,9.5-10.19,1.1-23.77C86.26,15.36,76.1,42.63,76.1,42.63Z"/><path class="cls-3" d="M81.29,17.69c-4.07,8.9-5.19,21.62-5.19,24.93,0,0,10.16-27.27,10.82-26.28C86.92,16.35,84.42,12.94,81.29,17.69Z"/><path class="cls-4" d="M89.13,9.06c-3.38,1.13-5.93,4.46-7.83,8.63h0c1.73-2.63,3.27-2.76,4.3-2.35,3.93-1.14,10.43-.85,19.05,7.06C103,14.74,97.3,6.34,89.13,9.06Z"/><path class="cls-5" d="M53,18S48.83,31.48,54.9,38.61a24.54,24.54,0,0,0,4,2.18,59.15,59.15,0,0,0,6.93,2.57,7.62,7.62,0,0,0,4.69-2.26l.35-.67C65.32,35.74,53.13,24.71,53,18Z"/><polygon class="cls-6" points="18.26 99.4 18.26 172.2 34.12 173.95 109.18 172.49 140.11 170.59 142.49 93.37 21.39 90.74 18.26 99.4"/><polygon class="cls-7" points="140.11 170.59 142.49 93.37 115.61 92.78 111.83 96.23 110.69 172.4 140.11 170.59"/><polygon class="cls-8" points="18.26 99.4 18.26 172.2 33.32 173.86 33.32 92.78 24.18 90.8 21.39 90.74 18.26 99.4"/><polygon class="cls-9" points="18.26 98.58 18.26 103.13 31.47 97.25 114.91 98.59 142.21 101.19 142.49 93.12 21.39 90.74 18.26 98.58"/><polygon class="cls-6" points="11.3 54.53 29.62 38.67 63.9 39.37 75.8 42.48 85.92 39.81 116.32 40.43 146.63 51.71 144.87 98.58 114.91 95.76 31.47 94.44 14.03 102.11 11.3 54.53"/><polygon class="cls-8" points="11.3 54.53 14.03 102.11 31.47 94.44 29.62 38.67 11.3 54.53"/><polygon class="cls-7" points="146.63 51.71 116.32 40.43 114.91 95.76 144.87 98.58 146.63 51.71"/><polygon class="cls-5" points="63.9 39.37 63.03 94.94 63.03 94.94 61.81 173.41 85.92 172.94 85.92 95.3 85.92 92.14 85.92 39.81 63.9 39.37"/><path class="cls-4" d="M62.95,1.71l-.28.16-.34.21-.52.33v0a4.51,4.51,0,0,1,3.66.05C74.7,5.4,81.18,10.38,83.2,14.15c-.74-4.63-2.34-8.79-5.37-11.24-.44-.33-.9-.65-1.38-1A13.43,13.43,0,0,0,62.95,1.71Z"/></g></g></svg>