<?xml version="1.0" encoding="utf-8"?>
<!-- Generator: Adobe Illustrator 21.0.2, SVG Export Plug-In . SVG Version: 6.00 Build 0)  -->
<svg version="1.1" id="Слой_1" xmlns="http://www.w3.org/2000/svg" xmlns:xlink="http://www.w3.org/1999/xlink" x="0px" y="0px"
	 viewBox="0 0 488.6 472.9" style="enable-background:new 0 0 488.6 472.9;" xml:space="preserve">
<style type="text/css">
	.st0{fill:#F2F2F2;}
	.st1{fill:#E6E6E6;}
	.st2{fill:#A2E00A;}
	.st3{fill:#89CC00;}
	.st4{fill:#3B9C0D;}
	.st5{fill:#FFFFFF;}
	.st6{fill:#0071BC;}
	.st7{fill:#29ABE2;}
	.st8{fill:#42BFEA;}
	.st9{fill:#333333;}
	.st10{fill:#C1272D;}
	.st11{fill:#912310;}
	.st12{fill:#7F1C0E;}
	.st13{fill:#BA4120;}
	.st14{fill:#CE5029;}
	.st15{fill:#FF9F24;}
	.st16{fill:#AD391E;}
	.st17{clip-path:url(#SVGID_2_);}
	.st18{fill:#F1BF89;}
	.st19{fill:#D8A475;}
	.st20{fill:#E5AF7A;}
	.st21{fill:#CCCCCC;}
	.st22{fill:#2E3D4C;}
	.st23{fill:#40515E;}
	.st24{fill:#B3B3B3;}
	.st25{fill:#FFDC00;}
	.st26{fill:#FEEF00;}
	.st27{fill:#FF9F25;}
</style>
<title>money</title>
<g>
	<g id="Слой_2">
		<g id="Object">
			<path class="st0" d="M221.9,212.6h-3.5c-10.1,0-18.4,8.2-18.3,18.4c0,10.1,8.2,18.3,18.3,18.3h3.5c10.1,0,18.4-8.2,18.4-18.4
				C240.3,220.9,232.1,212.6,221.9,212.6C221.9,212.6,221.9,212.6,221.9,212.6L221.9,212.6z"/>
			<path class="st0" d="M205.8,208.7c-1.1-5.2-6.1-8.5-11.3-7.5c-0.1,0-0.2,0-0.2,0.1l-27,5.7l-0.2-2.4l10.3-0.8
				c5.7-0.5,9.9-5.4,9.5-11.1c-0.5-5.7-5.4-9.9-11.1-9.5c-0.1,0-0.2,0-0.4,0l-18.1,2c-1.7,0.2-3.4,0.5-5,0.9
				c0.4-5.7-3.8-10.6-9.5-11.1c-2.4-0.2-4.8,0.5-6.8,1.9l-14.7,10.7c-6.2,4.5-10.9,10.8-13.6,18L0,212.7l5.2,78.8l1.8-0.1
				c2.3,9.1,11.1,15,20.3,13.7l3.5-0.5c8.2-1.1,14.6-7.6,15.6-15.8l21.3-1.4c-29.3,58-37.9,121-25.5,185.4h86.1
				c-13.9-52.7-8.8-102.7,15.3-149.3L137,320l9.6-12.7l-9.6-5.5l14.6-0.5c18.3-0.7,34.9-10.9,43.8-26.9l9-16.3
				c2.1-3.9,0.7-8.8-3.2-10.9s-8.8-0.7-10.9,3.2l-2.2,3.9c-3.3,5.8-9.6,9.3-16.2,8.9l-1-0.1l-2.5-36.9l30.1-6.2
				C203.6,218.8,206.8,213.8,205.8,208.7z"/>
			<polygon class="st0" points="465.2,195.5 437,126.3 320.8,173.7 290.4,158.4 254.9,228.9 309.5,256.5 312,262.6 317.4,260.4 
				404.1,304.1 439.7,233.6 406.9,217.1 			"/>
			<path class="st0" d="M171.5,54.9c3.2-6.7,0.4-14.8-6.4-18l-1.2-0.6l3.3-10.6L88.7,0L28.3,61.7l0.9,0.8c-3.8,1-7.1,3.3-9.5,6.4
				l-2.2,2.8c-6.2,8-4.8,19.5,3.2,25.8c8,6.2,19.5,4.8,25.8-3.1l2.2-2.8c1.6-2,2.7-4.3,3.3-6.7l54.4,53.4c4,4,10,5.2,15.3,3.1
				l0.4,1.4c2.4,9.8,12.4,15.9,22.2,13.4c9.8-2.4,15.9-12.4,13.4-22.2c0-0.2-0.1-0.3-0.1-0.5l-0.9-3.4c-1.4-5.4-5.2-9.9-10.3-12.1
				l9.7-9.9l11-11.2c5.5-5.6,5.4-14.7-0.2-20.2l-3.8-3.7l7.8-16.3L171.5,54.9z"/>
			<path class="st0" d="M344.8,302.4l-32.2-42.2c-4.1-5.4-11.9-6.5-17.3-2.4l-1.9,1.5l0,0l-81.4,62.1c-1.3,1-2.4,2.3-3.2,3.7
				c-0.2,0.3-0.4,0.7-0.5,1.1c-1.9,4.1-1.3,9,1.4,12.6l1.7,2.2l9,11.8l16.8,22.1c-5.9,4.8-8.3,12.7-5.9,20l1.1,3.4
				c3.2,9.7,13.5,14.9,23.2,11.8c9.7-3.2,14.9-13.5,11.8-23.2l-1.1-3.4c-0.5-1.4-1.1-2.8-1.9-4.1l18.8-14.3l57.6-44l0,0l1.9-1.5
				C347.8,315.5,348.9,307.8,344.8,302.4z"/>
			<path class="st0" d="M85.1,140.7l-1.1-3.4c-3.1-9.6-13.5-14.9-23.1-11.8c-9.6,3.1-14.9,13.5-11.8,23.1v0.1
				c-1.8-0.3-3.6-0.3-5.4-0.1l-3.5,0.5c-10,1.4-17.1,10.7-15.7,20.7c1.4,10,10.7,17.1,20.7,15.7l3.5-0.5c10-1.4,17.1-10.6,15.7-20.7
				c0,0,0,0,0,0c10,1.8,19.5-4.9,21.3-14.9C86.3,146.6,86.1,143.5,85.1,140.7z"/>
			
				<rect x="290.6" y="160.9" transform="matrix(0.9805 -0.1963 0.1963 0.9805 -24.8902 72.7543)" class="st1" width="128" height="2"/>
			
				<rect x="294.3" y="179.5" transform="matrix(0.9805 -0.1963 0.1963 0.9805 -28.4527 73.8465)" class="st1" width="128" height="2"/>
			<rect x="298" y="198" transform="matrix(0.9805 -0.1963 0.1963 0.9805 -32.0233 74.9375)" class="st1" width="128" height="2"/>
			<path class="st0" d="M447.8,375.2l-10.2,5.3l-9-16.1l-5,2.8c-9.8-19.4-12.1-47.8-12-55.7c0-0.6,0.1-1.2,0.1-1.8l0,0
				c0.2-12.6-5.7-24.5-15.8-31.9l-14.7-10.7c-4.6-3.4-11.1-2.3-14.4,2.3c-1.4,1.9-2.1,4.2-2,6.5l0,0c0,0.1,0,0.2,0,0.3
				c-1.6-0.4-3.3-0.7-5-0.9l-18.1-2c-5.7-0.7-10.8,3.4-11.5,9.1c-0.7,5.7,3.4,10.8,9.1,11.5c0.1,0,0.2,0,0.4,0l14.4,1.1
				c6.8,0.5,13.1,4.1,17.1,9.6c-4.9-2.9-10.2-5-15.7-6.3l-32.8-6.9c-5.2-1.2-10.3,2-11.5,7.1c0,0.1,0,0.2-0.1,0.3l0,0
				c-1.1,5.1,2.2,10.2,7.3,11.3l34.7,7.2c5.8,1.3,10.5,5.4,12.5,11l0.5,1.5c3.2,9-1.4,18.9-10.4,22.2c-1.5,0.6-3.1,0.9-4.8,1
				l-5.9,0.4c-6.7,0.4-13-3-16.2-8.9l-2.2-3.9c-2.1-3.9-7-5.3-10.9-3.1c-3.9,2.1-5.3,7-3.1,10.9l9,16.3c8.9,16,25.5,26.2,43.8,26.9
				l14.6,0.5l-9.6,5.5l0,0l9.6,12.7l-6.8,3.5c9.7,18.5,16.4,38.4,20.1,59h84.9C473.9,438.8,463.7,405.7,447.8,375.2z"/>
			<polygon class="st1" points="288,180.5 313,241.7 325.1,246.6 430.4,203.7 324.9,161.4 290,175.6 			"/>
			
				<rect x="295.3" y="142.6" transform="matrix(0.9261 -0.3774 0.3774 0.9261 -40.6977 156.4345)" class="st2" width="167.2" height="79"/>
			<polygon class="st3" points="316.4,250.2 441.4,113.9 286.6,177 			"/>
			<path class="st4" d="M420.8,130.6l-107.9,44l-16.3,6.6l6.6,16.3l10.7,26.3l6.6,16.3l16.3-6.6l107.9-44l16.3-6.6l-6.6-16.3
				l-10.7-26.3l-6.6-16.3L420.8,130.6z M451.2,168.3c-5.7,3.9-8.6,10.8-7.4,17.6l-108.6,44.3c-3.9-5.7-10.8-8.6-17.6-7.4l-11-27
				c5.7-3.9,8.6-10.8,7.4-17.6l108.6-44.3c3.9,5.7,10.8,8.6,17.6,7.4L451.2,168.3z"/>
			
				<ellipse transform="matrix(0.9261 -0.3774 0.3774 0.9261 -40.6972 156.4318)" class="st4" cx="378.9" cy="182.1" rx="30" ry="29.9"/>
			<path class="st5" d="M391.4,184.8c-0.9-2.6-2.8-4.6-5.4-5.6c-2.5-0.9-5-1.5-7.6-2l-3.3-8.1c2.1,0,3.2,2.3,4.1,4.6l5.7-2.3
				c-1.3-2.9-3.7-9.7-11.9-7.2l-1.6-4l-3.1,1.3l1.6,4c-5,2.6-6.4,6.5-4.4,11.5c0.7,1.7,2,3.2,3.5,4.3c2.5,1.5,5.5,2.1,8.4,2.6l4,9.7
				c-1.8-0.1-3.1-1.8-4-4.2l-0.8-1.9l-5.9,2.4l1,2.3c2.1,5.2,5.8,8.1,11.8,6.4l1.6,4l3.1-1.3l-1.6-4
				C391.5,194.9,393.6,190.3,391.4,184.8z M371.4,173.8c-0.6-1.1-0.4-2.5,0.6-3.4l2.5,6.1C373,176.1,371.9,175.1,371.4,173.8
				L371.4,173.8z M384.5,192.5l-3.2-7.8l0,0c1.9,0.2,3.5,1.5,4.2,3.2C386.3,189.9,386,191.4,384.5,192.5z"/>
			
				<rect x="312.7" y="145.3" transform="matrix(0.4499 -0.8931 0.8931 0.4499 -10.6473 440.4049)" class="st2" width="79" height="167.2"/>
			<polygon class="st3" points="259.8,226.5 444.6,231.2 295.3,155.9 			"/>
			<path class="st4" d="M418.5,226.7l-104.1-52.4l-15.7-7.9l-7.9,15.7l-12.8,25.3l-7.9,15.7l15.7,7.9l104.1,52.4l15.7,7.9l7.9-15.7
				l12.8-25.3l7.9-15.7L418.5,226.7z M410.1,274.3c-6.7-1.8-13.8,0.6-18.2,6l-104.8-52.8c1.8-6.7-0.6-13.8-6-18.2l13.1-26
				c6.7,1.8,13.8-0.6,18.2-6l104.8,52.8c-1.8,6.7,0.6,13.8,6,18.2L410.1,274.3z"/>
			
				<ellipse transform="matrix(0.4499 -0.8931 0.8931 0.4499 -10.6444 440.401)" class="st4" cx="352.2" cy="228.8" rx="30" ry="29.9"/>
			<path class="st5" d="M358.3,240c1.4-2.3,1.6-5.2,0.7-7.7c-1-2.4-2.2-4.8-3.5-7l4-7.9c1.4,1.6,0.4,3.9-0.7,6.1l5.5,2.8
				c1.4-2.9,4.8-9.2-2.4-13.7l2-3.9l-3-1.5l-2,3.9c-5.3-2.1-9.1-0.5-11.6,4.3c-0.8,1.7-1.1,3.6-0.9,5.4c0.5,2.9,2,5.5,3.5,8
				l-4.7,9.4c-1.1-1.5-0.7-3.5,0.5-5.7l0.9-1.8l-5.8-2.8l-1.1,2.3c-2.5,5-2.3,9.6,2.9,13.1l-2,3.9l3,1.5l1.9-3.9
				C350.8,246.8,355.6,245.4,358.3,240z M353.5,217.7c0.4-1.2,1.7-2,2.9-1.8l-3,5.9C352.8,220.5,352.8,219,353.5,217.7L353.5,217.7z
				 M348.1,240l3.8-7.5l0,0c1,1.6,1.1,3.6,0.3,5.2C351.2,239.6,349.8,240.4,348.1,240L348.1,240z"/>
			
				<rect x="53" y="151.7" transform="matrix(3.664371e-02 -0.9993 0.9993 3.664371e-02 -146.0037 319.1357)" class="st2" width="79" height="167.2"/>
			<polygon class="st3" points="7.5,271.7 177.5,198.9 10.4,192.8 			"/>
			<path class="st4" d="M151.9,205.7l-116.4-4.3l-17.6-0.6l-0.7,17.6l-1,28.3l-0.7,17.6l17.6,0.6l116.4,4.3l17.6,0.6l0.6-17.6
				l1-28.3l0.6-17.6L151.9,205.7z M164.1,252.5c-6.8,1.2-12.3,6.3-14,13l-117.2-4.3c-1.2-6.8-6.3-12.3-13-14l1.1-29.1
				c6.8-1.2,12.3-6.3,14-13l117.2,4.3c1.2,6.8,6.3,12.3,13,14L164.1,252.5z"/>
			
				<ellipse transform="matrix(3.664368e-02 -0.9993 0.9993 3.664368e-02 -146.0016 319.1076)" class="st4" cx="92.5" cy="235.3" rx="30" ry="30"/>
			<path class="st5" d="M102.8,242.9c0.3-2.7-0.7-5.4-2.6-7.3c-1.9-1.8-3.9-3.4-6.1-4.9l0.3-8.8c1.9,0.9,2,3.4,1.9,5.9l6.2,0.2
				c0.1-3.2,0.6-10.4-7.9-11.5l0.2-4.3l-3.4-0.1l-0.2,4.3c-5.7,0.3-8.5,3.3-8.7,8.7c0,1.9,0.5,3.7,1.5,5.3c1.7,2.4,4.1,4.1,6.6,5.8
				l-0.4,10.5c-1.6-0.9-2.1-2.9-1.9-5.4l0.1-2l-6.4-0.2l-0.1,2.5c-0.2,5.6,1.9,9.7,8.1,10.6l-0.2,4.4l3.4,0.1l0.2-4.3
				C98.8,252.1,102.5,248.9,102.8,242.9z M89.1,224.7c-0.1-1.3,0.7-2.5,1.9-2.9l-0.2,6.6C89.6,227.5,89,226.1,89.1,224.7z
				 M93.4,247.1l0.3-8.4l0,0c1.6,1,2.5,2.8,2.4,4.6C96.1,245.5,95.2,246.8,93.4,247.1z"/>
			<path class="st1" d="M339.3,151.2l-1.1-3.3c-3.1-9.6-13.5-14.9-23.1-11.8c-9.6,3.1-14.9,13.5-11.8,23.1l1.1,3.4
				c3.1,9.6,13.5,14.9,23.1,11.8C337.2,171.2,342.5,160.9,339.3,151.2L339.3,151.2z"/>
			<path class="st6" d="M225,320l81.4-62.2c5.4-4.1,13.2-3.1,17.3,2.3l32.2,42.2c4.1,5.4,3.1,13.2-2.3,17.3l-81.4,62.2
				c-5.4,4.1-13.2,3.1-17.3-2.3l-32.2-42.2C218.5,331.9,219.6,324.1,225,320z"/>
			<path class="st7" d="M223.1,321.4l81.4-62.2c5.4-4.1,13.2-3.1,17.3,2.3l32.2,42.2c4.1,5.4,3.1,13.2-2.3,17.3l-81.4,62.2
				c-5.4,4.1-13.2,3.1-17.3-2.3l-32.2-42.2C216.7,333.4,217.7,325.6,223.1,321.4z"/>
			<path class="st8" d="M314.7,257.1c-3.6-0.8-7.3,0-10.2,2.2l-81.4,62.1c-5.4,4.1-6.5,11.9-2.3,17.3c0,0,0,0,0,0l32.2,42.2
				c1.9,2.6,4.8,4.3,8,4.7L314.7,257.1z"/>
			
				<rect x="214.4" y="300.7" transform="matrix(0.7949 -0.6067 0.6067 0.7949 -130.3998 231.9908)" class="st9" width="127.2" height="16.3"/>
			
				<rect x="235.5" y="334" transform="matrix(0.7949 -0.6067 0.6067 0.7949 -151.1837 232.7073)" class="st5" width="66.2" height="12.1"/>
			
				<ellipse transform="matrix(0.7949 -0.6067 0.6067 0.7949 -120.7078 265.348)" class="st6" cx="332.2" cy="311.2" rx="11.6" ry="11.6"/>
			
				<ellipse transform="matrix(0.7949 -0.6067 0.6067 0.7949 -129.022 259.7397)" class="st10" cx="319.7" cy="320.7" rx="11.6" ry="11.6"/>
			<path class="st11" d="M176.4,36.8L100,0L39.8,61.9l101.3,48.6c6.7,3.2,14.8,0.4,18-6.4l23.7-49.2C186,48.1,183.2,40.1,176.4,36.8
				C176.5,36.8,176.4,36.8,176.4,36.8z"/>
			<path class="st12" d="M39.8,61.9l101.3,48.6c6.7,3.2,14.8,0.4,18-6.4L182,56.4L89.6,10.6L39.8,61.9z"/>
			<path class="st13" d="M178,76.5L100,0L39.5,61.7l78,76.5c5.6,5.5,14.7,5.4,20.2-0.2l40.4-41.3C183.7,91.1,183.6,82,178,76.5
				C178,76.5,178,76.5,178,76.5z"/>
			<path class="st14" d="M123.1,64.7c-5.2-5.1-13.6-5-18.7,0.2s-5,13.6,0.2,18.7l0,0l44.1,43.3l18.5-18.9L123.1,64.7z"/>
			<ellipse transform="matrix(0.7 -0.7141 0.7141 0.7 -18.7886 103.5019)" class="st15" cx="113.8" cy="74.1" rx="8.8" ry="8.8"/>
			<polygon class="st2" points="170.7,50.8 178.6,25.6 100,0 132.5,31.9 149.2,40.2 			"/>
			<path class="st4" d="M165.1,48l5.6-18L109.8,9.6l7.3,7.1l36,12.1c-0.2,3.2,0.8,9.3,9.3,13.3l-1.2,3.9L165.1,48z"/>
			<rect x="31.5" y="28.8" transform="matrix(0.7 -0.7141 0.7141 0.7 -3.056 63.984)" class="st16" width="86.4" height="13.7"/>
			<g>
				<defs>
					<rect id="SVGID_1_" x="-3.5" y="-27.1" width="500" height="500"/>
				</defs>
				<clipPath id="SVGID_2_">
					<use xlink:href="#SVGID_1_"  style="overflow:visible;"/>
				</clipPath>
				<g class="st17">
					<path class="st18" d="M139.9,232.9c0-0.6-1.4-8-2.7-15.4c-1.6-9.1,2.2-18.4,9.9-23.6l11.9-8.1c4.6-3.1,5.9-9.3,3-14l0,0
						c-3-4.9-9.3-6.4-14.2-3.4c-0.2,0.1-0.5,0.3-0.7,0.4l-14.7,10.7c-11.8,8.5-17.7,23-15.5,37.3l7,45L139.9,232.9z"/>
					<path class="st18" d="M139.9,232.9c0-0.6-1.4-8-2.7-15.4c-1.6-9.1,2.2-18.4,9.9-23.6l11.9-8.1c4.6-3.1,5.9-9.3,3-14l0,0
						c-3-4.9-9.3-6.4-14.2-3.4c-0.2,0.1-0.5,0.3-0.7,0.4l-14.7,10.7c-11.8,8.5-17.7,23-15.5,37.3l7,45L139.9,232.9z"/>
					<path class="st19" d="M163.5,177.8h-0.2c-17.6,0.4-32.8,13.2-35.4,30.7c-0.1,0.4-0.1,0.9-0.2,1.3l-5,44l0.2,0.9l11.5-11.9
						l5.5-9.9c0-0.6-1.4-8-2.7-15.4c-0.2-1.1-0.3-2.3-0.4-3.4c0-0.6,0-1.1,0-1.7c0-0.6,0.1-1.1,0.1-1.7c0.8-6.8,4.5-12.9,10.1-16.7
						l11.9-8.1C161.7,184,163.4,181,163.5,177.8z"/>
					<path class="st18" d="M148.6,227.1c0.3-0.6,2.8-7.6,5.3-14.7c3.1-8.8,11-14.9,20.3-15.6l14.4-1.1c5.5-0.4,9.7-5.1,9.5-10.6l0,0
						c-0.2-5.7-4.9-10.2-10.6-10.1c-0.3,0-0.6,0-0.8,0.1l-18.1,2c-14.4,1.6-26.7,11.2-31.9,24.7l-16.1,42.5L148.6,227.1z"/>
					<path class="st18" d="M212.5,239.5c-3.8-2.2-8.7-0.9-10.9,3c0,0,0,0,0,0l-2.2,3.9c-3.3,5.8-9.6,9.3-16.2,8.9l-5.9-0.4
						c-9.5-0.6-16.8-8.8-16.2-18.4c0.1-1.6,0.4-3.2,1-4.8l0.5-1.5c2-5.6,6.7-9.7,12.5-11l34.7-7.2c5.1-1.1,8.4-6.2,7.3-11.3l0,0
						c-1.1-5.2-6.1-8.5-11.3-7.5c-0.1,0-0.2,0-0.3,0.1l-32.8,6.9c-11,2.6-21,8.4-28.6,16.7l-9.3-8.8c0,0-4.1,11.2-9.8,24.4
						l-8.5-21.1c0.6,3.6-1.1,37.7-12.8,59.2l34.5,32.2l7.8-8.9l16.9-0.6c18.3-0.7,34.9-10.9,43.8-26.9l9-16.3
						C217.7,246.3,216.3,241.6,212.5,239.5z"/>
					<path class="st20" d="M130.7,295.9l-5.2-4.9l12.7,11.9l7.8-8.9C146,294,136.4,292.9,130.7,295.9z"/>
					<polygon class="st21" points="88.5,286 99.6,266.2 157.9,299.4 140.2,322.8 					"/>
					<polygon class="st0" points="124.6,311.7 140.2,322.8 157.9,299.4 138,288.1 					"/>
					<path class="st22" d="M155.4,658.9c-1.8-1.8-44.9-46-75.7-113.6C37.4,452.5,37.6,359.7,80.4,277l74.6,38.6
						c-31,59.8-30.6,125.4,1.1,194.8c24.4,53.4,58.8,89.2,59.2,89.6L155.4,658.9z"/>
					<path class="st23" d="M215.3,600c-0.3-0.3-34.8-36.2-59.2-89.6c-31.7-69.4-32.1-135-1.1-194.8l-25.6-13.2
						c-42.8,82.7-37,171,5.4,263.8c11.8,25.6,26,49.9,42.4,72.8L215.3,600z"/>
					<path class="st18" d="M396.9,322.9c0-0.6,1.4-8,2.7-15.4c1.6-9.1-2.2-18.4-9.9-23.6l-11.9-8.1c-4.6-3.1-5.9-9.3-3-14l0,0
						c3-4.9,9.3-6.4,14.2-3.4c0.2,0.1,0.5,0.3,0.7,0.4l14.7,10.7c11.8,8.5,17.7,23,15.5,37.3l-7,45L396.9,322.9z"/>
					<path class="st18" d="M396.9,322.9c0-0.6,1.4-8,2.7-15.4c1.6-9.1-2.2-18.4-9.9-23.6l-11.9-8.1c-4.6-3.1-5.9-9.3-3-14l0,0
						c3-4.9,9.3-6.4,14.2-3.4c0.2,0.1,0.5,0.3,0.7,0.4l14.7,10.7c11.8,8.5,17.7,23,15.5,37.3l-7,45L396.9,322.9z"/>
					<path class="st19" d="M373.2,267.8h0.2c17.6,0.4,32.8,13.2,35.4,30.6c0.1,0.4,0.1,0.9,0.2,1.3l5,44l-0.1,0.9l-11.5-11.9
						l-5.5-9.9c0-0.6,1.4-8,2.7-15.4c0.2-1.1,0.3-2.3,0.4-3.4c0-0.6,0-1.1,0-1.7c0-0.6-0.1-1.1-0.1-1.7c-0.8-6.8-4.5-12.9-10.1-16.7
						l-11.9-8.1C375,274,373.4,271.1,373.2,267.8z"/>
					<path class="st18" d="M388.2,317.2c-0.3-0.6-2.8-7.6-5.3-14.7c-3.1-8.7-11-14.8-20.3-15.6l-14.4-1.1c-5.5-0.4-9.7-5.1-9.5-10.6
						l0,0c0.2-5.7,4.9-10.2,10.6-10.1c0.3,0,0.6,0,0.8,0.1l18.1,2c14.4,1.6,26.7,11.1,31.9,24.7l16.1,42.6L388.2,317.2z"/>
					<path class="st18" d="M324.3,329.5c3.8-2.2,8.7-0.9,10.9,3c0,0,0,0,0,0l2.2,3.9c3.3,5.8,9.6,9.3,16.2,8.9l5.9-0.4
						c9.5-0.6,16.8-8.8,16.2-18.4c-0.1-1.6-0.4-3.2-1-4.8l-0.5-1.5c-2-5.6-6.7-9.7-12.5-11l-34.7-7.2c-5.1-1.1-8.4-6.2-7.3-11.3l0,0
						c1.1-5.2,6.1-8.5,11.3-7.5c0.1,0,0.2,0,0.2,0.1l32.8,6.9c11,2.6,21,8.4,28.6,16.7l9.3-8.8c0,0,4.1,11.2,9.9,24.4l8.5-21.1
						c-0.6,3.6,1.1,37.7,12.8,59.2l-34.5,32.1l-7.8-8.9l-16.9-0.6c-18.3-0.7-34.9-10.9-43.8-26.9l-9-16.3
						C319.1,336.3,320.5,331.6,324.3,329.5z"/>
					<path class="st20" d="M406.1,385.9l5.3-4.9l-12.7,11.9l-7.8-8.9C390.8,384,400.4,382.9,406.1,385.9z"/>
					<polygon class="st0" points="448.2,376 437.2,356.2 378.9,389.4 396.6,412.8 					"/>
					<polygon class="st24" points="412.1,401.7 396.6,412.8 378.9,389.4 400.7,377 					"/>
					<path class="st22" d="M381.3,749c1.8-1.8,44.9-46,75.7-113.6c42.4-92.8,42.1-185.6-0.7-268.3l-74.6,38.6
						c31,59.8,30.6,125.4-1.1,194.8c-24.4,53.4-58.8,89.2-59.2,89.6L381.3,749z"/>
					<path class="st23" d="M426.8,631.7c39.8-87.1,42-174.2,6.7-252.9l22.8-11.8c42.8,82.7,43.1,175.5,0.7,268.3
						c-30.9,67.6-73.9,111.8-75.7,113.6l-17.8-17.5C389,701.2,410.3,667.6,426.8,631.7z"/>
				</g>
			</g>
			<path class="st15" d="M227.4,244c10.1,0,18.4-8.2,18.4-18.4c0-10.1-8.2-18.4-18.4-18.4c0,0,0,0,0,0h-3.5V244H227.4z"/>
			<circle class="st25" cx="223.8" cy="225.6" r="18.4"/>
			<circle class="st26" cx="223.8" cy="225.6" r="13.4"/>
			<path class="st27" d="M213.4,225.6c0-6.8,5.1-12.6,11.9-13.4c-7.4-0.9-14,4.4-14.9,11.8c-0.9,7.4,4.4,14,11.8,14.9
				c1,0.1,2.1,0.1,3.1,0C218.6,238.2,213.4,232.5,213.4,225.6z"/>
			<path class="st15" d="M229.4,229.4c0.1-1.3-0.4-2.5-1.3-3.3c-0.9-0.8-1.9-1.5-2.9-2.1v-4c0.9,0.4,1,1.5,1,2.7h2.9
				c0-1.5,0.1-4.8-3.8-5.2v-2h-1.6v2c-2.6,0.2-3.9,1.7-3.9,4.1c0,0.9,0.3,1.7,0.8,2.4c0.9,1,1.9,1.9,3.1,2.6v4.8
				c-0.8-0.4-1-1.3-1-2.5V228h-3v1.2c0,2.6,1.1,4.5,3.9,4.8v2h1.6v-2c2.3,0.1,4.3-1.8,4.4-4.1C229.4,229.7,229.4,229.5,229.4,229.4z
				 M222.8,221.2c-0.1-0.6,0.3-1.1,0.8-1.3v3C223,222.5,222.7,221.8,222.8,221.2z M225.1,231.5v-3.9l0,0c0.7,0.4,1.2,1.2,1.2,2.1
				C226.4,230.5,225.9,231.3,225.1,231.5z"/>
			<path class="st15" d="M37.7,298.5c10-1.4,17.1-10.7,15.7-20.7c-1.4-10-10.7-17.1-20.7-15.7l-3.5,0.5l5.1,36.4L37.7,298.5z"/>
			
				<ellipse transform="matrix(0.9904 -0.138 0.138 0.9904 -38.4382 7.0571)" class="st25" cx="31.7" cy="280.8" rx="18.4" ry="18.4"/>
			
				<ellipse transform="matrix(0.9904 -0.138 0.138 0.9904 -38.4382 7.0571)" class="st26" cx="31.7" cy="280.8" rx="13.4" ry="13.4"/>
			<path class="st27" d="M21.4,282.3c-0.9-6.8,3.4-13.2,10-14.9c-7.4,0.3-13.2,6.5-13,13.9c0.3,7.4,6.5,13.2,13.9,13
				c0.9,0,1.8-0.2,2.7-0.4C28.2,294,22.3,289,21.4,282.3z"/>
			<path class="st15" d="M37.7,283.8c-0.1-1.2-0.7-2.4-1.8-3.1c-1-0.7-2.1-1.2-3.2-1.7l-0.6-4c1,0.3,1.2,1.4,1.3,2.5l2.8-0.4
				c-0.2-1.5-0.6-4.7-4.5-4.6l-0.3-2l-1.5,0.2l0.3,2c-2.5,0.6-3.6,2.2-3.3,4.6c0.1,0.9,0.5,1.7,1.1,2.3c1,0.9,2.2,1.6,3.5,2.1
				l0.7,4.8c-0.8-0.3-1.2-1.1-1.3-2.3l-0.1-0.9l-2.9,0.4l0.2,1.1c0.4,2.5,1.7,4.3,4.5,4.2l0.3,2l1.5-0.2l-0.3-2
				c2.3-0.3,3.9-2.5,3.6-4.8C37.7,283.9,37.7,283.8,37.7,283.8z M30,276.6c-0.2-0.6,0.1-1.2,0.6-1.5l0.4,3
				C30.5,277.8,30.1,277.2,30,276.6z M33.8,286.4l-0.5-3.8l0,0c0.8,0.3,1.4,1.1,1.5,1.9C34.9,285.3,34.5,286.1,33.8,286.4
				L33.8,286.4z"/>
			<path class="st15" d="M58.8,150.8c3.1,9.6,13.5,14.9,23.1,11.8s14.9-13.5,11.8-23.1l-1.1-3.4l-34.9,11.4L58.8,150.8z"/>
			
				<ellipse transform="matrix(0.951 -0.3092 0.3092 0.951 -40.1502 30.1861)" class="st25" cx="75.2" cy="141.8" rx="18.4" ry="18.4"/>
			
				<ellipse transform="matrix(0.951 -0.3092 0.3092 0.951 -40.1502 30.1861)" class="st26" cx="75.2" cy="141.8" rx="13.4" ry="13.4"/>
			<path class="st27" d="M72,131.9c6.5-2.1,13.6,1,16.4,7.2c-1.5-7.3-8.6-12-15.9-10.5c-7.3,1.5-12,8.6-10.5,15.9
				c0.2,1,0.5,2,0.9,2.9C61.6,140.6,65.5,134,72,131.9z"/>
			<path class="st15" d="M73.3,148.2c1.2-0.3,2.2-1.2,2.7-2.3c0.5-1.1,0.9-2.3,1.2-3.4l3.9-1.3c-0.1,1-1.1,1.4-2.2,1.8l0.9,2.7
				c1.4-0.5,4.6-1.4,3.7-5.2l1.9-0.6l-0.5-1.5L83,139c-1-2.4-2.8-3.2-5.2-2.4c-0.8,0.3-1.5,0.8-2.1,1.5c-0.7,1.2-1.2,2.4-1.5,3.8
				l-4.6,1.5c0.1-0.8,0.9-1.4,2.1-1.7l0.9-0.3l-0.9-2.8l-1.1,0.4c-2.4,0.8-3.9,2.4-3.3,5.2l-1.9,0.6l0.5,1.5l1.9-0.6
				c0.7,2.2,3.1,3.5,5.3,2.7C73.1,148.3,73.2,148.2,73.3,148.2z M79.1,139.4c0.5-0.3,1.2-0.1,1.6,0.4l-2.9,0.9
				C77.9,140,78.4,139.5,79.1,139.4L79.1,139.4z M70.1,144.8l3.7-1.2l0,0c-0.2,0.8-0.8,1.5-1.6,1.8
				C71.4,145.8,70.5,145.5,70.1,144.8L70.1,144.8z"/>
			<path class="st15" d="M310.4,158.6c3.1,9.6,13.5,14.9,23.1,11.8c9.6-3.1,14.9-13.5,11.8-23.1l-1.1-3.4l-34.9,11.4L310.4,158.6z"
				/>
			
				<ellipse transform="matrix(0.951 -0.3092 0.3092 0.951 -30.2582 108.3694)" class="st25" cx="326.8" cy="149.7" rx="18.4" ry="18.4"/>
			
				<ellipse transform="matrix(0.951 -0.3092 0.3092 0.951 -30.2582 108.3694)" class="st26" cx="326.8" cy="149.7" rx="13.4" ry="13.4"/>
			<path class="st27" d="M323.5,139.7c6.5-2.1,13.6,1,16.4,7.2c-1.5-7.3-8.6-12-15.9-10.5c-7.3,1.5-12,8.6-10.5,15.9
				c0.2,1,0.5,2,0.9,2.9C313.2,148.5,317,141.8,323.5,139.7z"/>
			<path class="st15" d="M324.9,156c1.2-0.3,2.2-1.2,2.7-2.3c0.5-1.1,0.9-2.3,1.1-3.4l3.9-1.3c-0.1,1-1.1,1.4-2.2,1.8l0.9,2.7
				c1.4-0.5,4.6-1.4,3.7-5.2l1.9-0.6l-0.5-1.5l-1.9,0.6c-1-2.4-2.8-3.2-5.1-2.4c-0.8,0.3-1.5,0.8-2.1,1.5c-0.7,1.2-1.2,2.4-1.5,3.8
				l-4.6,1.5c0.1-0.8,0.9-1.4,2-1.7l0.9-0.3l-0.9-2.8l-1.1,0.4c-2.5,0.8-3.9,2.4-3.3,5.2l-1.9,0.6l0.5,1.5l1.9-0.6
				c0.7,2.2,3.1,3.5,5.3,2.7C324.7,156.1,324.8,156.1,324.9,156z M330.7,147.2c0.5-0.3,1.2-0.1,1.5,0.4l-2.9,0.9
				C329.5,147.9,330,147.4,330.7,147.2z M321.7,152.7l3.7-1.2l0,0c-0.2,0.8-0.8,1.5-1.6,1.8C323,153.6,322.1,153.4,321.7,152.7
				L321.7,152.7z"/>
			<path class="st15" d="M165,126.9c-2.7-9.8-12.8-15.5-22.6-12.8c-9.6,2.6-15.3,12.4-13,22.1l0.9,3.4l35.5-9.3L165,126.9z"/>
			
				<ellipse transform="matrix(0.9677 -0.2522 0.2522 0.9677 -29.2321 41.7157)" class="st25" cx="148.1" cy="134.9" rx="18.4" ry="18.4"/>
			
				<ellipse transform="matrix(0.9677 -0.2522 0.2522 0.9677 -29.2321 41.7157)" class="st26" cx="148.1" cy="134.9" rx="13.4" ry="13.4"/>
			<path class="st27" d="M150.7,144.9c-6.6,1.7-13.5-1.8-15.9-8.2c1,7.3,7.8,12.5,15.2,11.4c7.3-1,12.5-7.8,11.4-15.2
				c-0.1-1-0.4-2-0.8-3C161.6,136.8,157.3,143.2,150.7,144.9z"/>
			<path class="st15" d="M150.3,128.6c-1.2,0.2-2.3,1-2.9,2.1c-0.5,1.1-1,2.2-1.4,3.4l-3.9,1c0.1-1,1.2-1.3,2.3-1.6l-0.7-2.8
				c-1.4,0.4-4.6,1.1-4,5l-1.9,0.5l0.4,1.5l1.9-0.5c0.9,2.5,2.6,3.3,5,2.7c0.8-0.2,1.6-0.7,2.2-1.4c0.8-1.1,1.4-2.4,1.7-3.7l4.7-1.2
				c-0.2,0.8-1,1.3-2.1,1.6l-0.9,0.2l0.8,2.9l1.1-0.3c2.5-0.6,4-2.1,3.6-5l1.9-0.5l-0.4-1.5l-1.9,0.5c-0.6-2.3-2.9-3.6-5.2-3
				C150.5,128.5,150.4,128.5,150.3,128.6z M144.1,137.1c-0.6,0.2-1.2,0-1.5-0.5l2.9-0.8C145.2,136.4,144.7,136.9,144.1,137.1
				L144.1,137.1z M153.4,132.2l-3.8,1l0,0c0.2-0.8,0.9-1.5,1.7-1.7C152.1,131.2,153,131.4,153.4,132.2L153.4,132.2z"/>
			<path class="st15" d="M53.5,90.1c6.2-8,4.8-19.5-3.2-25.8c-8-6.2-19.5-4.8-25.8,3.2l-2.2,2.8l28.9,22.6L53.5,90.1z"/>
			
				<ellipse transform="matrix(0.6165 -0.7874 0.7874 0.6165 -50.0891 60.2875)" class="st25" cx="36.8" cy="81.6" rx="18.4" ry="18.4"/>
			
				<ellipse transform="matrix(0.6165 -0.7874 0.7874 0.6165 -50.0891 60.2875)" class="st26" cx="36.8" cy="81.6" rx="13.4" ry="13.4"/>
			<path class="st27" d="M30.4,89.8C25,85.5,23.7,78,27.3,72.1c-5.3,5.2-5.3,13.8,0,19c5.2,5.3,13.8,5.3,19,0c0.8-0.8,1.4-1.6,2-2.6
				C43.5,93.4,35.8,93.9,30.4,89.8z"/>
			<path class="st15" d="M43.2,79.5c-0.9-0.8-2.2-1.2-3.4-1c-1.2,0.2-2.3,0.6-3.5,1L33.1,77c0.9-0.5,1.8,0.2,2.7,0.9l1.7-2.3
				c-1.2-0.9-3.7-3-6.4-0.2l-1.6-1.2l-1,1.2l1.6,1.2c-1.4,2.2-1.1,4.1,0.9,5.6c0.7,0.5,1.5,0.8,2.4,0.9c1.4-0.1,2.7-0.4,4-0.9l3.8,3
				c-0.8,0.4-1.7,0-2.5-0.8L37.9,84l-1.8,2.3L37,87c2,1.6,4.2,1.9,6.2-0.2l1.6,1.2l1-1.2l-1.6-1.2c1.4-1.8,1.1-4.5-0.7-6
				C43.4,79.6,43.3,79.6,43.2,79.5z M32.7,79.7c-0.5-0.3-0.7-0.9-0.5-1.5l2.4,1.9C33.9,80.2,33.2,80.1,32.7,79.7z M42.2,84.1l-3-2.4
				l0,0c0.8-0.3,1.7-0.2,2.4,0.4C42.3,82.5,42.6,83.4,42.2,84.1L42.2,84.1z"/>
			<path class="st15" d="M428.2,216.7c8.3-5.9,10.2-17.3,4.3-25.6c-5.8-8.1-17-10.1-25.3-4.5l-2.9,2l21,30.1L428.2,216.7z"/>
			
				<ellipse transform="matrix(0.8211 -0.5708 0.5708 0.8211 -42.5676 273.014)" class="st25" cx="414.3" cy="204.4" rx="18.3" ry="18.3"/>
			
				<ellipse transform="matrix(0.8203 -0.572 0.572 0.8203 -41.9162 273.8839)" class="st26" cx="414.8" cy="203.6" rx="13.4" ry="13.4"/>
			<path class="st27" d="M406.3,209.6c-3.9-5.6-3-13.3,2.1-17.8c-6.5,3.5-9,11.7-5.4,18.2s11.7,9,18.2,5.4c0.9-0.5,1.8-1.1,2.5-1.8
				C417.7,217,410.2,215.2,406.3,209.6z"/>
			<path class="st15" d="M421.5,203.5c-0.6-1.1-1.7-1.8-3-2c-1.2-0.1-2.4-0.2-3.6-0.1l-2.4-3.3c1-0.2,1.7,0.7,2.3,1.6l2.3-1.6
				c-0.9-1.2-2.7-4-6.1-2l-1.1-1.6l-1.3,0.9l1.1,1.6c-2,1.7-2.2,3.6-0.8,5.6c0.5,0.7,1.2,1.2,2,1.6c1.3,0.3,2.7,0.4,4,0.3l2.8,4
				c-0.8,0.1-1.6-0.5-2.2-1.5l-0.5-0.8l-2.4,1.6l0.7,1c1.5,2.1,3.4,3,5.9,1.7l1.1,1.6l1.3-0.9l-1.1-1.6c1.9-1.3,2.4-4,1.1-5.9
				C421.7,203.7,421.6,203.6,421.5,203.5z M411.4,200.6c-0.4-0.4-0.4-1.1-0.1-1.6l1.7,2.5C412.4,201.5,411.8,201.2,411.4,200.6
				L411.4,200.6z M419.3,207.7l-2.2-3.2l0,0c0.8-0.1,1.7,0.3,2.2,1C419.8,206.1,419.8,207.1,419.3,207.7L419.3,207.7z"/>
			<path class="st15" d="M239.2,393.2c3.3,9.6,13.8,14.6,23.4,11.3c9.3-3.2,14.4-13.2,11.5-22.6l-1.1-3.4l-34.9,11.4L239.2,393.2z"
				/>
			
				<ellipse transform="matrix(0.951 -0.3092 0.3092 0.951 -106.27 97.8425)" class="st25" cx="255.6" cy="384.2" rx="18.4" ry="18.4"/>
			
				<ellipse transform="matrix(0.9507 -0.3102 0.3102 0.9507 -106.3839 98.2291)" class="st26" cx="255.6" cy="383.6" rx="13.4" ry="13.4"/>
			<path class="st27" d="M252.4,374.3c6.5-2.1,13.6,1,16.4,7.2c-0.1-0.5-0.2-1-0.4-1.5c-2.3-7.1-9.8-11-16.9-8.7
				c-7.1,2.3-11,9.8-8.7,16.9c0.2,0.5,0.4,1.1,0.6,1.6C242,383.1,245.9,376.4,252.4,374.3z"/>
			<path class="st15" d="M253.7,390.6c1.2-0.3,2.2-1.2,2.7-2.3c0.5-1.1,0.9-2.3,1.1-3.4l3.9-1.3c-0.1,1-1.1,1.4-2.2,1.8l0.9,2.7
				c1.4-0.5,4.6-1.4,3.7-5.2l1.9-0.6l-0.5-1.5l-1.9,0.6c-1-2.4-2.8-3.2-5.1-2.4c-0.8,0.3-1.5,0.8-2.1,1.5c-0.7,1.2-1.2,2.4-1.5,3.8
				l-4.6,1.5c0.1-0.8,0.9-1.4,2.1-1.7l0.9-0.3l-0.9-2.8l-1.1,0.4c-2.4,0.8-3.9,2.4-3.3,5.2l-1.9,0.6l0.5,1.5l1.9-0.6
				c0.7,2.2,3.1,3.5,5.3,2.7C253.5,390.7,253.6,390.6,253.7,390.6z M259.5,381.8c0.5-0.3,1.2-0.1,1.5,0.4l-2.9,0.9
				C258.3,382.5,258.8,382,259.5,381.8L259.5,381.8z M250.5,387.2l3.7-1.2l0,0c-0.2,0.8-0.8,1.5-1.6,1.8
				C251.8,388.2,250.9,387.9,250.5,387.2L250.5,387.2z"/>
			<path class="st15" d="M57.4,183.9c10-1.4,17.1-10.7,15.7-20.7c-1.4-10-10.7-17.1-20.7-15.7l-3.5,0.5l5.1,36.4L57.4,183.9z"/>
			
				<ellipse transform="matrix(0.9904 -0.138 0.138 0.9904 -22.4346 8.6797)" class="st25" cx="51.4" cy="166.2" rx="18.4" ry="18.4"/>
			
				<ellipse transform="matrix(0.9904 -0.138 0.138 0.9904 -22.4346 8.6797)" class="st26" cx="51.4" cy="166.2" rx="13.4" ry="13.4"/>
			<path class="st27" d="M41.1,167.6c-0.9-6.8,3.4-13.2,10-14.9c-7.4,0.2-13.3,6.3-13.1,13.8c0.2,7.4,6.3,13.3,13.8,13.1
				c1,0,2-0.2,3-0.4C47.9,179.4,42,174.4,41.1,167.6z"/>
			<path class="st15" d="M57.4,169.1c-0.1-1.2-0.7-2.4-1.8-3.1c-1-0.7-2.1-1.2-3.2-1.7l-0.6-4c1,0.3,1.2,1.4,1.3,2.5l2.8-0.4
				c-0.2-1.5-0.6-4.7-4.5-4.6l-0.3-2l-1.5,0.2l0.3,2c-2.5,0.6-3.6,2.2-3.3,4.6c0.1,0.9,0.5,1.7,1.1,2.3c1,0.9,2.2,1.6,3.4,2.1
				l0.7,4.8c-0.8-0.3-1.2-1.1-1.3-2.3l-0.1-0.9l-2.9,0.4l0.2,1.1c0.4,2.6,1.7,4.3,4.5,4.2l0.3,2l1.5-0.2l-0.3-2
				c2.3-0.3,3.9-2.5,3.6-4.8C57.4,169.3,57.4,169.2,57.4,169.1z M49.7,161.9c-0.2-0.6,0.1-1.2,0.6-1.5l0.4,3
				C50.2,163.2,49.8,162.6,49.7,161.9z M53.5,171.8l-0.5-3.8l0,0c0.8,0.3,1.4,1.1,1.5,1.9C54.6,170.7,54.2,171.5,53.5,171.8z"/>
		</g>
	</g>
</g>
</svg>
