<?xml version="1.0" encoding="iso-8859-1"?>
<!-- Generator: Adobe Illustrator 19.0.0, SVG Export Plug-In . SVG Version: 6.00 Build 0)  -->
<svg version="1.1" id="Layer_1" xmlns="http://www.w3.org/2000/svg" xmlns:xlink="http://www.w3.org/1999/xlink" x="0px" y="0px"
	 viewBox="0 0 512 512" style="enable-background:new 0 0 512 512;" xml:space="preserve">
<g>
	<circle style="fill:#E65F58;" cx="250.74" cy="31.152" r="13.351"/>
	<circle style="fill:#E65F58;" cx="161.733" cy="75.655" r="13.351"/>
	<path style="fill:#E65F58;" d="M339.802,365.739c2.828-8.675,4.402-17.908,4.402-27.515c0-4.915,3.985-8.901,8.901-8.901
		c4.915,0,8.901,3.985,8.901,8.901c0,14.661-2.978,28.64-8.347,41.372l20.904,20.904c8.969-17.249,14.145-36.629,14.145-57.191
		c0-29.831-24.073-74.523-52.259-116.649l-67.863,67.863L339.802,365.739z"/>
	<path style="fill:#E65F58;" d="M174.598,225.707c-28.465,42.41-52.909,87.554-52.909,117.602c0,20.984,5.364,40.749,14.68,58.258
		l107.045-107.044L174.598,225.707z"/>
	<path style="fill:#E65F58;" d="M255.198,445.032c-4.915,0-8.901-3.985-8.901-8.901s3.985-8.901,8.901-8.901
		c32.719,0,61.293-17.795,76.758-44.165L256,307.109L146.063,417.046c24.184,33.019,64.047,54.688,109.135,54.688
		c45.508,0,85.724-22.051,109.836-55.59l-20.141-20.142C325.856,425.453,292.799,445.032,255.198,445.032z"/>
	<path style="fill:#E65F58;" d="M326.222,211.714c-28.191-40.269-58.043-76.112-71.024-91.303
		c-12.874,15.071-42.358,50.481-70.355,90.369L256,281.937L326.222,211.714z"/>
</g>
<g>
	<path style="fill:#314E55;" d="M387.754,413.691c11.928-20.896,18.755-44.877,18.755-70.382c0-34.388-26.75-84.022-57.257-129.453
		L472.29,90.819c3.477-3.477,3.477-9.109,0-12.586c-3.477-3.477-9.109-3.477-12.586,0L338.994,198.943
		c-36.233-51.633-74.108-94.625-77.133-98.037c-3.381-3.816-9.944-3.816-13.325,0c-3.007,3.392-40.441,45.881-76.473,97.094
		L52.295,78.233c-3.477-3.477-9.109-3.477-12.586,0c-3.477,3.477-3.477,9.109,0,12.586l122.083,122.084
		c-30.774,45.69-57.906,95.776-57.906,130.407c0,25.918,7.086,50.235,19.374,71.366l-82.131,82.131
		c-3.477,3.477-3.477,9.109,0,12.586c1.738,1.738,4.016,2.608,6.293,2.608s4.555-0.869,6.293-2.608l79.685-79.685
		c27.57,36.197,71.826,59.828,121.796,59.828c50.389,0,94.981-24.018,122.496-60.731l80.589,80.588
		c1.738,1.738,4.016,2.608,6.293,2.608c2.277,0,4.555-0.869,6.293-2.608c3.477-3.477,3.477-9.109,0-12.586L387.754,413.691z
		 M388.708,343.309c0,20.562-5.176,39.942-14.145,57.191l-20.904-20.904c5.37-12.732,8.347-26.711,8.347-41.372
		c0-4.915-3.985-8.901-8.901-8.901c-4.915,0-8.901,3.985-8.901,8.901c0,9.607-1.574,18.84-4.402,27.515l-71.216-71.216
		l67.863-67.863C364.635,268.786,388.708,313.478,388.708,343.309z M255.198,120.411c12.982,15.191,42.833,51.034,71.024,91.303
		L256,281.937l-71.157-71.157C212.84,170.892,242.324,135.482,255.198,120.411z M121.688,343.309
		c0-30.048,24.445-75.193,52.909-117.602l68.816,68.816L136.369,401.568C127.052,384.059,121.688,364.293,121.688,343.309z
		 M255.198,471.734c-45.088,0-84.95-21.669-109.135-54.688L256,307.109l75.957,75.957c-15.466,26.37-44.04,44.165-76.758,44.165
		c-4.915,0-8.901,3.985-8.901,8.901s3.985,8.901,8.901,8.901c37.601,0,70.658-19.579,89.695-49.03l20.141,20.142
		C340.922,449.683,300.706,471.734,255.198,471.734z"/>
	<path style="fill:#314E55;" d="M161.741,106.808c17.176,0,31.152-13.977,31.152-31.152s-13.977-31.152-31.152-31.152
		s-31.152,13.977-31.152,31.152S144.566,106.808,161.741,106.808z M161.741,62.305c7.362,0,13.351,5.989,13.351,13.351
		s-5.989,13.351-13.351,13.351s-13.351-5.989-13.351-13.351C148.39,68.293,154.379,62.305,161.741,62.305z"/>
	<path style="fill:#314E55;" d="M250.748,62.305c17.176,0,31.152-13.977,31.152-31.152S267.923,0,250.748,0
		s-31.152,13.977-31.152,31.152S233.572,62.305,250.748,62.305z M250.748,17.801c7.362,0,13.351,5.989,13.351,13.351
		s-5.989,13.351-13.351,13.351c-7.362,0-13.351-5.989-13.351-13.351S243.386,17.801,250.748,17.801z"/>
</g>
<g>
</g>
<g>
</g>
<g>
</g>
<g>
</g>
<g>
</g>
<g>
</g>
<g>
</g>
<g>
</g>
<g>
</g>
<g>
</g>
<g>
</g>
<g>
</g>
<g>
</g>
<g>
</g>
<g>
</g>
</svg>
