<svg xmlns="http://www.w3.org/2000/svg" viewBox="0 0 512.001 512.001"><path d="M423.725 494.345H88.276c-9.751 0-17.655-7.904-17.655-17.655V17.655C70.621 7.904 78.525 0 88.276 0h335.448c9.751 0 17.655 7.904 17.655 17.655V476.69c.001 9.75-7.904 17.655-17.654 17.655z" fill="#c3e678"/><path d="M406.069 423.724V70.621c-19.502 0-35.31-15.809-35.31-35.31H141.242c0 19.501-15.809 35.31-35.31 35.31v353.103c19.501 0 35.31 15.809 35.31 35.31h229.517c0-19.501 15.808-35.31 35.31-35.31z" fill="#eff2fa"/><path d="M370.759 467.862H141.242a8.829 8.829 0 0 1-8.828-8.828c0-14.603-11.88-26.483-26.483-26.483a8.829 8.829 0 0 1-8.828-8.828V70.621a8.829 8.829 0 0 1 8.828-8.828c14.603 0 26.483-11.88 26.483-26.483a8.829 8.829 0 0 1 8.828-8.828h229.517a8.829 8.829 0 0 1 8.828 8.828c0 14.603 11.88 26.483 26.483 26.483a8.829 8.829 0 0 1 8.828 8.828v353.103a8.829 8.829 0 0 1-8.828 8.828c-14.603 0-26.483 11.88-26.483 26.483a8.828 8.828 0 0 1-8.828 8.827zm-221.578-17.655h213.638c3.518-17.267 17.155-30.905 34.422-34.422V78.56c-17.267-3.517-30.904-17.155-34.421-34.422H149.181c-3.517 17.267-17.155 30.905-34.422 34.422v337.224c17.267 3.518 30.905 17.155 34.422 34.423z" fill="#ffd782"/><g fill="#ff6464"><path d="M381.329 497.766l-20.557-5.091-12.607 17.018c-2.71 3.658-8.403 2.819-9.943-1.464l-29.256-81.354 49.841-17.923 29.256 81.354c1.54 4.283-2.316 8.554-6.734 7.46z"/><path d="M254.258 497.766l20.558-5.091 12.607 17.018c2.71 3.658 8.403 2.819 9.943-1.464l29.255-81.354-49.841-17.923-29.256 81.354c-1.54 4.283 2.316 8.554 6.734 7.46z"/></g><circle cx="317.794" cy="379.586" r="61.793" fill="#ffd782"/><circle cx="317.794" cy="379.586" r="44.138" fill="#ffc36e"/><path d="M335.449 141.241H176.552a8.829 8.829 0 0 1 0-17.656h158.897a8.829 8.829 0 0 1 0 17.656z" fill="#ffd782"/><path d="M185.38 211.861h-17.655a8.829 8.829 0 0 1 0-17.656h17.655a8.828 8.828 0 0 1 0 17.656z" fill="#afb9d2" opacity=".97"/><path d="M344.275 211.861H220.69a8.829 8.829 0 0 1 0-17.656h123.586a8.828 8.828 0 0 1-.001 17.656z" fill="#c7cfe2" opacity=".97"/><path d="M185.38 247.172h-17.655a8.829 8.829 0 0 1 0-17.656h17.655a8.829 8.829 0 0 1 0 17.656z" fill="#afb9d2" opacity=".97"/><path d="M344.275 247.172H220.69a8.829 8.829 0 0 1 0-17.656h123.586a8.829 8.829 0 0 1-.001 17.656z" fill="#c7cfe2" opacity=".97"/><path d="M185.38 282.483h-17.655a8.829 8.829 0 0 1 0-17.656h17.655a8.829 8.829 0 0 1 8.828 8.828 8.83 8.83 0 0 1-8.828 8.828z" fill="#afb9d2" opacity=".97"/><path d="M344.275 282.483H220.69a8.829 8.829 0 0 1 0-17.656h123.586a8.829 8.829 0 0 1 8.828 8.828 8.83 8.83 0 0 1-8.829 8.828z" fill="#c7cfe2" opacity=".97"/><path d="M229.518 361.931h-61.793a8.829 8.829 0 0 1 0-17.656h61.793a8.829 8.829 0 0 1 8.828 8.828 8.83 8.83 0 0 1-8.828 8.828zm-26.483 35.31h-35.31a8.829 8.829 0 0 1 0-17.656h35.31a8.829 8.829 0 0 1 0 17.656z" fill="#d7deed"/><path d="M308.966 105.931H203.035a8.829 8.829 0 0 1 0-17.656h105.931a8.829 8.829 0 0 1 0 17.656z" fill="#ffd782"/></svg>