<svg xmlns="http://www.w3.org/2000/svg" viewBox="0 0 504.124 504.124"><path d="M0 126.622L252.062 1.378l252.062 125.243v16.542L252.062 268.406 0 143.558v-16.936z" fill="#efc75e"/><path d="M0 126.622l252.062 125.243 252.062-125.243v250.88l-252.85 125.243L0 377.503V126.622z" fill="#e7bf55"/><path d="M252.062 502.352V251.866L1.575 127.409H0v250.092l251.274 125.243.788-.392z" fill="#dbb551"/><path d="M102.794 75.815l251.668 125.243 51.2-25.206L153.206 50.61l-50.412 25.205z" fill="#f7e3af"/><path d="M354.462 201.059l51.2-25.206v78.769l-13.785-2.363-14.572 17.723-22.843-1.575v-67.348z" fill="#f1d999"/><path d="M200.074 351.902l-85.071-42.535c-4.726-2.363-8.665.394-8.665 6.302v57.108c0 5.908 3.938 12.603 8.665 14.966l85.465 42.535c4.726 2.363 8.665-.394 8.665-6.302v-57.502c-.395-5.908-4.333-12.208-9.059-14.572zm-19.299 46.868l-54.351-27.175c-2.363-1.182-4.332-4.726-4.332-7.877s1.969-4.726 4.332-3.545l54.351 27.175c2.363 1.182 4.332 4.726 4.332 7.877s-1.969 4.726-4.332 3.545zm7.877-19.693l-62.228-31.508c-2.363-1.182-4.332-4.726-4.332-7.877s1.969-4.726 4.332-3.545l62.228 31.508c2.363 1.182 4.332 4.726 4.332 7.877.001 3.545-1.969 4.726-4.332 3.545z" fill="#f2f2f2"/></svg>