<svg xmlns="http://www.w3.org/2000/svg" viewBox="0 0 511.985 511.985"><path d="M458.646 0H53.338l32.249 79.333 170.417-1.93 170.394 1.93L458.646 0z" fill="#35bb9b"/><path d="M149.335 10.672c5.891 0 10.672-4.781 10.672-10.671h-21.344c0 5.889 4.781 10.671 10.672 10.671zm42.671 0c5.874 0 10.655-4.781 10.655-10.671h-21.327c0 5.889 4.765 10.671 10.672 10.671zm-85.342 0c5.891 0 10.672-4.781 10.672-10.671H96.008c0 5.889 4.765 10.671 10.656 10.671zm127.997 0c5.89 0 10.671-4.781 10.671-10.671h-21.327c0 5.889 4.765 10.671 10.656 10.671zm42.679 0c5.874 0 10.655-4.781 10.655-10.671H266.66c0 5.889 4.781 10.671 10.68 10.671zm42.654 0c5.875 0 10.656-4.781 10.656-10.671h-21.312c0 5.889 4.75 10.671 10.656 10.671zm42.655 0c5.906 0 10.688-4.781 10.688-10.671h-21.343c0 5.889 4.781 10.671 10.655 10.671zm42.686 0c5.875 0 10.656-4.781 10.656-10.671h-21.344c0 5.889 4.782 10.671 10.688 10.671z" fill="#46cead"/><path d="M53.338 511.985h405.309l-32.249-79.326-170.394 1.922-170.417-1.922-32.249 79.326z" fill="#35bb9b"/><path d="M362.649 501.331c-5.874 0-10.655 4.766-10.655 10.654h21.343c0-5.888-4.782-10.654-10.688-10.654zm-42.655 0a10.64 10.64 0 0 0-10.656 10.654h21.312c0-5.888-4.781-10.654-10.656-10.654zm85.341 0c-5.906 0-10.688 4.766-10.688 10.654h21.344c0-5.888-4.781-10.654-10.656-10.654zm-127.995 0c-5.898 0-10.68 4.766-10.68 10.654h21.335c0-5.888-4.781-10.654-10.655-10.654zm-42.679 0a10.649 10.649 0 0 0-10.656 10.654h21.327c0-5.888-4.781-10.654-10.671-10.654zm-42.655 0c-5.906 0-10.672 4.766-10.672 10.654h21.327c0-5.888-4.781-10.654-10.655-10.654zm-42.671 0c-5.891 0-10.672 4.766-10.672 10.654h21.344c0-5.888-4.782-10.654-10.672-10.654zm-42.671 0a10.649 10.649 0 0 0-10.656 10.654h21.328c0-5.888-4.782-10.654-10.672-10.654zM437.335 53.335H74.665s-21.327 74.662-21.327 202.658 21.327 202.666 21.327 202.666h362.67s21.312-74.67 21.312-202.666-21.312-202.658-21.312-202.658z" fill="#46cead"/><path d="M53.338 255.993c0 27.406.984 52.357 2.516 74.67h400.293c1.531-22.312 2.5-47.264 2.5-74.67s-.969-52.358-2.5-74.662H55.853c-1.531 22.304-2.515 47.256-2.515 74.662z" fill="#e5e8ec"/><path d="M256.004 127.333c-70.951 0-128.668 57.717-128.668 128.66 0 70.936 57.717 128.668 128.668 128.668 70.928 0 128.645-57.732 128.645-128.668-.001-70.943-57.718-128.66-128.645-128.66z" fill="#f4f6f9"/><path d="M319.65 223.993H192.334c-5.891 0-10.672 4.773-10.672 10.672 0 5.891 4.781 10.664 10.672 10.664H319.65c5.906 0 10.688-4.773 10.688-10.664 0-5.898-4.782-10.672-10.688-10.672zm-31.811 42.672h-63.678c-5.891 0-10.656 4.773-10.656 10.672 0 5.875 4.766 10.656 10.656 10.656h63.678c5.875 0 10.656-4.781 10.656-10.656 0-5.899-4.781-10.672-10.656-10.672z" fill="#424953"/></svg>