<svg xmlns="http://www.w3.org/2000/svg" viewBox="0 0 59 59"><path fill="#f0ede0" d="M.5 14.493h46v31H.5zm54 0h4v31h-4z"/><path d="M38.494 27h-3a1 1 0 1 1 0-2h3a1 1 0 1 1 0 2m-15-4h-3a1 1 0 1 1 0-2h3a1 1 0 1 1 0 2m15 0h-7a1 1 0 1 1 0-2h7a1 1 0 1 1 0 2m-11 0c-.27 0-.52-.11-.71-.29-.18-.19-.29-.45-.29-.71s.11-.521.29-.71c.37-.37 1.04-.37 1.42 0 .18.189.29.45.29.71s-.11.52-.29.71c-.19.18-.451.29-.71.29m4 4h-7a1 1 0 1 1 0-2h7a1 1 0 1 1 0 2m-11 0c-.27 0-.52-.11-.71-.29-.18-.19-.29-.45-.29-.71 0-.271.11-.521.29-.71.37-.37 1.04-.37 1.42 0 .18.189.29.439.29.71 0 .26-.11.52-.29.71-.19.18-.451.29-.71.29" fill="#d6d0bb"/><path d="M9.494 38.223c-2.757 0-5-2.243-5-5a1 1 0 1 1 2 0c0 1.654 1.346 3 3 3 .884 0 1.72-.388 2.292-1.064a1.46 1.46 0 0 0 .331-1.106 1.638 1.638 0 0 0-.622-1.118l-5.23-4.068a3.65 3.65 0 0 1-1.383-2.492c-.1-.956.182-1.881.794-2.603A4.991 4.991 0 0 1 9.494 22c2.757 0 5 2.244 5 5a1 1 0 1 1-2 0c0-1.654-1.346-3-3-3-.884 0-1.72.388-2.292 1.065a1.454 1.454 0 0 0-.331 1.103c.046.439.272.848.622 1.12l5.23 4.069a3.647 3.647 0 0 1 1.383 2.488c.1.957-.182 1.882-.793 2.606a4.995 4.995 0 0 1-3.819 1.772" fill="#56b46f"/><path d="M9.494 40a1 1 0 0 1-1-1V21a1 1 0 1 1 2 0v18a1 1 0 0 1-1 1" fill="#56b46f"/><path d="M23.638 32.4c-2.191 1.141-2.928 3.32-3.196 5.582l-1.242-1.04c-.981-.822-2.404.585-1.414 1.414l2.806 2.351c.662.554 1.676.211 1.707-.707.073-2.168.178-4.743 2.348-5.873 1.146-.596.133-2.322-1.009-1.727m9.339 5.083c-.52-.93-1.642-1.391-2.688-1.095-1.365.386-2.982 2.042-3.936.106-.571-1.157-2.296-.143-1.727 1.01.513 1.04 1.5 1.797 2.669 1.931.607.069 1.117-.012 1.688-.226.407-.152 1.923-1.331 2.267-.717.629 1.127 2.357.118 1.727-1.009" fill="#d6d0bb"/><path fill="#e6e7e9" d="M46.494 7h4v4h-4z"/><path d="M50.494 0h-2.015a1.99 1.99 0 0 0-1.11.339 1.984 1.984 0 0 0-.875 1.646V7h4V0zm2.014 0" fill="#d85b4b"/><path fill="#e38e23" d="M50.494 11h4v38h-4z"/><path fill="#cfcece" d="M50.494 7h4v4h-4z"/><path d="M54.494 7V1.985A1.982 1.982 0 0 0 52.509 0h-2.015v7h4z" fill="#c56256"/><path fill="#edddc8" d="M54.494 49h-8l4 7z"/><path d="M49.494 58a1 1 0 1 0 2 0v-4h-2v4z" fill="#5f5f5f"/><path fill="#f39d20" d="M46.494 11h4v38h-4z"/></svg>