<svg xmlns="http://www.w3.org/2000/svg" viewBox="0 0 496.162 496.162"><path d="M248.077 0C111.072 0 .002 111.062.002 248.083c0 137.005 111.07 248.079 248.075 248.079 137.013 0 248.083-111.074 248.083-248.079C496.16 111.062 385.09 0 248.077 0z" fill="#edc92f"/><path d="M336.442 143.214l-79.833-36.336a6.178 6.178 0 0 0-4.282-.3l-122.82 36.331a6.15 6.15 0 0 0-4.401 5.889v90.069a6.14 6.14 0 0 0 4.443 5.901l122.818 35.316a6.128 6.128 0 0 0 4.181-.288l79.833-35.316a6.138 6.138 0 0 0 3.657-5.614v-90.063a6.138 6.138 0 0 0-3.596-5.589z" fill="#c2c6c6"/><path d="M252.327 106.579l-122.82 36.331 124.896.186.09-36.75a6.296 6.296 0 0 0-2.166.233z" fill="#b6b7b7"/><path d="M336.442 143.214l-82.04-.12-.121 49.464h85.758v-43.755a6.14 6.14 0 0 0-3.597-5.589z" fill="#a1acad"/><path d="M129.507 142.909a6.15 6.15 0 0 0-4.401 5.889v43.754l129.176.006.121-49.464-124.896-.185z" fill="#919a9b"/><path d="M254.156 244.595l-.09 35.73c.852 0 1.696-.18 2.482-.528l79.833-35.316-82.225.114z" fill="#5a5e5e"/><path d="M254.281 192.559l-.125 52.036 82.226-.114a6.138 6.138 0 0 0 3.657-5.614v-46.309h-85.758v.001z" fill="#859193"/><path d="M129.549 244.769l122.818 35.316a6.09 6.09 0 0 0 1.699.24l.09-35.73-124.607.174zm-4.444-52.216v46.315a6.14 6.14 0 0 0 4.443 5.901l124.607-.174.125-52.036-129.175-.006z" fill="#72797a"/><g fill="#6a6d6d"><path d="M370.235 288.512H100.031c-12.15 0-22.003 9.853-22.003 22.003 0 12.149 9.853 22.003 22.003 22.003h270.204c12.149 0 22.003-9.854 22.003-22.003 0-12.15-9.853-22.003-22.003-22.003z"/><path d="M121.525 303.858c-12.714 0-23.023 5.505-23.023 12.289l10.741 60.588c0 6.789 5.499 12.288 12.282 12.288 6.782 0 12.287-5.499 12.287-12.288l10.741-60.588c.001-6.784-10.315-12.289-23.028-12.289zm293.538-164.781h-56.601a3.069 3.069 0 0 0-3.07 3.07v148.409a3.063 3.063 0 0 0 2.447 3.005l24.563 5.115a3.066 3.066 0 0 0 2.561-.623 3.062 3.062 0 0 0 1.133-2.381v-36.846h28.967a3.069 3.069 0 0 0 3.069-3.07V142.147a3.067 3.067 0 0 0-3.069-3.07z"/></g><path d="M356.418 314.095c-20.918 0-37.866 16.954-37.866 37.872 0 20.912 16.948 37.865 37.866 37.865s37.865-16.954 37.865-37.865c0-20.918-16.947-37.872-37.865-37.872z" fill="#393a3a"/><path d="M356.418 332.518c-10.74 0-19.443 8.708-19.443 19.449 0 10.734 8.703 19.442 19.443 19.442s19.442-8.708 19.442-19.442c0-10.741-8.702-19.449-19.442-19.449z" fill="#161616"/><path d="M282.726 211.234c0-16.672-13.518-30.19-30.189-30.19-16.678 0-30.195 13.518-30.195 30.19l-14.327 119.755c0 16.672 27.845 30.189 44.522 30.189 16.672 0 44.517-13.518 44.517-30.189l-14.328-119.755z" fill="#5a5e5e"/><path d="M222.341 211.234l-14.327 119.755c0 16.672 27.845 30.189 44.522 30.189V181.044c-16.678 0-30.195 13.518-30.195 30.19z" fill="#525454"/><circle cx="252.021" cy="209.701" r="12.282" fill="#424444"/></svg>