<svg xmlns="http://www.w3.org/2000/svg" viewBox="0 0 512.002 512.002"><path fill="#1d1d1f" d="M493.1 280.577h18.902v89.856H493.1z"/><path d="M127.382 296.35c47.558 16.304 94.786 19.81 133.826 12.382a16.078 16.078 0 0 0 12.199-10.583l49.713-145.011a16.097 16.097 0 0 0-3.14-15.842c-26.271-29.818-65.715-56.026-113.273-72.33s-94.786-19.81-133.826-12.381a16.078 16.078 0 0 0-12.199 10.583l-49.713 145.01a16.097 16.097 0 0 0 3.14 15.842c26.27 29.818 65.715 56.026 113.273 72.33z" fill="#dfdee1"/><path d="M102.016 49.173L35.022 244.589c8.486 7.3 17.793 14.251 27.845 20.73l73.856-215.432c-11.913-1.05-23.526-1.273-34.707-.714zm165.345 44.384l-74.541 217.43c11.812 1.241 23.353 1.678 34.49 1.348l68.114-198.682c-8.593-7.094-17.975-13.83-28.063-20.096z" fill="#bfbdc3"/><path fill="#006d71" d="M71.086 250.124h33.063v85.415H71.086z"/><path d="M16.221 311.297h360.577v76.045H0v-59.824c0-8.959 7.263-16.221 16.221-16.221z" fill="#00a3aa"/><path d="M506.967 371.28c0 8.871-7.191 16.062-16.062 16.062H336.141V155.431c0-8.871 7.191-16.062 16.062-16.062h81.012a16.062 16.062 0 0 1 13.477 7.324l57.69 88.98a16.059 16.059 0 0 1 2.584 8.737v126.87z" fill="#a8da64"/><path fill="#fff" d="M361.955 161.922v71.126h112.196l-47.024-71.126z"/><path fill="#006d71" d="M435.326 174.322l-8.199-12.4h-65.172v12.4z"/><path d="M403.285 274.376h-30.308c-6.086 0-11.021-4.935-11.021-11.021s4.935-11.021 11.021-11.021h30.308c6.086 0 11.021 4.935 11.021 11.021s-4.935 11.021-11.021 11.021z" fill="#7fa24d"/><path d="M403.285 270.506h-30.308c-6.086 0-11.021-4.935-11.021-11.021 0-6.086 4.935-11.021 11.021-11.021h30.308c6.086 0 11.021 4.935 11.021 11.021s-4.935 11.021-11.021 11.021z" fill="#fff"/><path d="M174.204 338.849c-21.998 0-41.692 10.046-54.742 25.789-13.049-15.743-32.744-25.789-54.742-25.789-28.735 0-53.525 17.149-64.72 41.74v6.752h241.587c-9.464-28.15-36.085-48.492-67.383-48.492z" fill="#006d71"/><path d="M421.554 338.849c-31.299 0-57.919 20.342-67.384 48.492h134.766c-9.464-28.15-36.083-48.492-67.382-48.492z" fill="#7fa24d"/><circle cx="64.723" cy="409.935" r="53.198" fill="#1a1b1c"/><circle cx="64.723" cy="409.935" r="16.729" fill="#dfdee1"/><circle cx="173.991" cy="409.935" r="53.198" fill="#1a1b1c"/><circle cx="173.991" cy="409.935" r="16.729" fill="#dfdee1"/><circle cx="421.554" cy="409.935" r="53.198" fill="#1a1b1c"/><circle cx="421.554" cy="409.935" r="16.729" fill="#dfdee1"/><path d="M64.72 399.179c8.216 0 15.034 5.929 16.443 13.739.175-.971.28-1.965.28-2.984 0-9.236-7.487-16.723-16.723-16.723s-16.723 7.487-16.723 16.723c0 1.021.106 2.015.28 2.984 1.409-7.808 8.227-13.739 16.443-13.739zm109.271 0c8.215 0 15.034 5.929 16.443 13.739.175-.971.28-1.965.28-2.984 0-9.236-7.487-16.723-16.723-16.723-9.236 0-16.723 7.487-16.723 16.723 0 1.021.106 2.015.28 2.984 1.409-7.808 8.226-13.739 16.443-13.739zm247.563 0c8.215 0 15.034 5.929 16.443 13.739.175-.971.28-1.965.28-2.984 0-9.236-7.487-16.723-16.723-16.723-9.236 0-16.723 7.487-16.723 16.723 0 1.021.106 2.015.28 2.984 1.409-7.808 8.227-13.739 16.443-13.739z" fill="#bfbdc3"/><path d="M469.872 218.008h-9.168a4.277 4.277 0 0 1 0-8.554h9.168a4.277 4.277 0 0 1 4.277 4.277 4.275 4.275 0 0 1-4.277 4.277zm0 31.217h-9.168a4.277 4.277 0 0 1 0-8.554h9.168a4.277 4.277 0 0 1 4.277 4.277 4.275 4.275 0 0 1-4.277 4.277z" fill="#006d71"/><path d="M451.657 259.485h-7.176c-6.496 0-11.762-5.266-11.762-11.762v-38.477c0-6.496 5.266-11.762 11.762-11.762h7.176c6.496 0 11.762 5.266 11.762 11.762v38.477c0 6.496-5.266 11.762-11.762 11.762z" fill="#7fa24d"/><path fill="#ffdc35" d="M469.159 270.504h37.803v37.803h-37.803z"/><path fill="#7fa24d" d="M495.738 308.314h11.219v62.118h-11.219z"/><path fill="#f90" d="M469.159 270.504h9.87v37.803h-9.87z"/><path fill="#ffea8d" d="M469.159 270.504h37.803v7.205h-37.803z"/><path fill="#7fa24d" d="M310.205 255.589h25.931V387.34h-25.931z"/></svg>