<svg xmlns="http://www.w3.org/2000/svg" viewBox="0 0 47.332 47.332"><path d="M38.072 30.059c-1.436-2.345-3.303-9.703-.958-11.139 1.617-.99 4.831 1.083 7.141 3.235-.777-10.89-9.836-19.49-20.924-19.49-11.32 0-20.523 8.964-20.958 20.178 2.312-2.363 6.054-5.02 7.844-3.924 2.345 1.436.478 8.794-.958 11.139-1.077 1.759-3.086 2.617-5.013 2.331 3.315 7.238 10.603 12.276 19.085 12.276 8.468 0 15.746-5.022 19.068-12.241-1.703.018-3.378-.814-4.327-2.365z" fill="#fbd971"/><path d="M13 36.666c0-6.075 4.925-11 11-11s11 4.925 11 11H13z" fill="#c03a2b"/><path d="M13 36.666c0-2.761 4.925-5 11-5s11 2.239 11 5" fill="#e64c3c"/><path d="M19.332 20.666a1 1 0 0 1-1-1c0-1.654-1.346-3-3-3s-3 1.346-3 3a1 1 0 1 1-2 0c0-2.757 2.243-5 5-5s5 2.243 5 5a1 1 0 0 1-1 1zm17 0a1 1 0 0 1-1-1c0-1.654-1.346-3-3-3s-3 1.346-3 3a1 1 0 1 1-2 0c0-2.757 2.243-5 5-5s5 2.243 5 5a1 1 0 0 1-1 1z" fill="#f29c1f"/><path d="M44.947 31.713c-2.345 1.436-5.439.692-6.875-1.653-1.436-2.345-3.303-9.703-.958-11.139 2.345-1.436 8.05 3.572 9.486 5.917 1.436 2.345.692 5.439-1.653 6.875zm-42.562 0c2.345 1.436 5.439.692 6.875-1.653 1.436-2.345 3.303-9.703.958-11.139-2.345-1.436-8.05 3.572-9.486 5.917-1.436 2.345-.692 5.439 1.653 6.875z" fill="#48a0dc"/></svg>