<svg xmlns="http://www.w3.org/2000/svg" viewBox="0 0 508 508"><path d="M508 254c0 140.3-113.7 254-254 254S0 394.3 0 254 113.7 0 254 0c110.8 0 204.9 70.9 239.7 169.7 7.5 21.2 12.2 43.6 13.7 66.9.4 5.8.6 11.6.6 17.4z" fill="#fd8469"/><path d="M54.2 410.7C100.7 469.9 172.9 508 254 508s153.3-38.1 199.8-97.3H54.2z" fill="#f1543f"/><path d="M359.8 356.2H335c-1.7 0-3.2 1.3-3.2-1.3v48.6c0 3.4 3 6.1 6.7 6.1h17.8c3.7 0 6.7-2.7 6.7-6.1V355c0 2.5-1.4 1.2-3.2 1.2zm-35.5 0h-24.9c-1.7 0-3.2 1.3-3.2-1.3v48.6c0 3.4 3 6.1 6.7 6.1h17.8c3.7 0 6.7-2.7 6.7-6.1V355c0 2.5-1.4 1.2-3.1 1.2z" fill="#2b3b4e"/><path fill="#324a5e" d="M289.1 345h81v37.3h-81z"/><path d="M208.6 356.2h-24.9c-1.7 0-3.2 1.3-3.2-1.3v48.6c0 3.4 3 6.1 6.7 6.1H205c3.7 0 6.7-2.7 6.7-6.1V355c0 2.5-1.4 1.2-3.1 1.2zm-35.6 0h-24.9c-1.7 0-3.2 1.3-3.2-1.3v48.6c0 3.4 3 6.1 6.7 6.1h17.8c3.7 0 6.7-2.7 6.7-6.1V355c.1 2.5-1.3 1.2-3.1 1.2z" fill="#2b3b4e"/><path fill="#324a5e" d="M137.9 345h81v37.3h-81z"/><g fill="#e6e9ee"><path d="M370.1 330.5V117.9c0-4.6-4.1-8.4-9.1-8.4H147c-5 0-9.1 3.7-9.1 8.4v212.6h232.2z"/><path d="M370.1 355V132.8c0-4.8-4.1-8.7-9.1-8.7H147c-5 0-9.1 3.9-9.1 8.7V355h232.2z"/></g><path fill="#324a5e" d="M150.8 127.4h206.3v203.1H150.8z"/><path d="M357.2 127.4h82.9v203.1h-82.9zm-289.3 0h82.9v203.1H67.9z" fill="#fff"/><path d="M217.5 330.5h-63.9c-.8 0-1.4-.6-1.4-1.4v-56.2c0-.8.6-1.4 1.4-1.4h63.9c.8 0 1.4.6 1.4 1.4v56.2c0 .8-.6 1.4-1.4 1.4zm68.5 0h-64c-.8 0-1.4-.6-1.4-1.4v-56.2c0-.8.6-1.4 1.4-1.4h64c.8 0 1.4.6 1.4 1.4v56.2c0 .8-.7 1.4-1.4 1.4zm68.4 0h-63.9c-.8 0-1.4-.6-1.4-1.4v-56.2c0-.8.6-1.4 1.4-1.4h63.9c.8 0 1.4.6 1.4 1.4v56.2c.1.8-.6 1.4-1.4 1.4z" fill="#ffd05b"/><path d="M217.5 268.4h-63.9c-.8 0-1.4-.6-1.4-1.4v-56.2c0-.8.6-1.4 1.4-1.4h63.9c.8 0 1.4.6 1.4 1.4V267c0 .8-.6 1.4-1.4 1.4zm68.5 0h-64c-.8 0-1.4-.6-1.4-1.4v-56.2c0-.8.6-1.4 1.4-1.4h64c.8 0 1.4.6 1.4 1.4V267c0 .8-.7 1.4-1.4 1.4zm68.4 0h-63.9c-.8 0-1.4-.6-1.4-1.4v-56.2c0-.8.6-1.4 1.4-1.4h63.9c.8 0 1.4.6 1.4 1.4V267c.1.8-.6 1.4-1.4 1.4zm-136.9-62.1h-63.9c-.8 0-1.4-.6-1.4-1.4v-56.2c0-.8.6-1.4 1.4-1.4h63.9c.8 0 1.4.6 1.4 1.4v56.2c0 .8-.6 1.4-1.4 1.4z" fill="#f9b54c"/><path d="M362.7 357.7h-22.2c-.7 0-1.3-.6-1.3-1.3v-11.8c0-.7.6-1.3 1.3-1.3h22.2c.7 0 1.3.6 1.3 1.3v11.8c0 .7-.6 1.3-1.3 1.3zm-33.2 0h-22.2c-.7 0-1.3-.6-1.3-1.3v-11.8c0-.7.6-1.3 1.3-1.3h22.2c.7 0 1.3.6 1.3 1.3v11.8c0 .7-.6 1.3-1.3 1.3zm-128.8 0h-22.2c-.7 0-1.3-.6-1.3-1.3v-11.8c0-.7.6-1.3 1.3-1.3h22.2c.7 0 1.3.6 1.3 1.3v11.8c0 .7-.6 1.3-1.3 1.3zm-33.2 0h-22.2c-.7 0-1.3-.6-1.3-1.3v-11.8c0-.7.6-1.3 1.3-1.3h22.2c.7 0 1.3.6 1.3 1.3v11.8c0 .7-.6 1.3-1.3 1.3z" fill="#ff7058"/></svg>