<svg xmlns="http://www.w3.org/2000/svg" viewBox="0 0 512 512"><circle cx="256" cy="256" r="256" fill="#83e46f"/><path d="M512 256c0-3.001-.071-5.985-.173-8.96l-83.077-83.077h-52.386l-51.509-59.629H150.042v67.438H86.643v125.133H31.479v57.051l145.642 145.642C201.97 507.638 228.474 512 256 512c141.385 0 256-114.615 256-256z" fill="#2ad827"/><path fill="#9a4c00" d="M150.04 104.33h174.81v193.03H150.04z"/><path fill="#703700" d="M237.45 104.33h87.41v193.03h-87.41z"/><path fill="#e67500" d="M86.64 171.77h150.81v125.59H86.64z"/><path fill="#c06200" d="M162.05 171.77h75.4v125.59h-75.4z"/><path d="M140.1 171.77h43.896v35.665H140.1zm-33.99 52.71h111.87v56.728H106.11z" fill="#d9d9db"/><path fill="#c8c6cc" d="M162.05 171.77h21.949v35.666H162.05z"/><path fill="#08f" d="M31.479 296.9h310.63v57.05H31.479z"/><path fill="#005ed3" d="M31.479 325.43h310.63v28.525H31.479z"/><path fill="#ff3200" d="M480.521 353.955H324.856V163.963H428.75l51.771 82.406z"/><path fill="#e1e1e3" d="M456.819 246.369l-42.045-66.924h-34.702v66.924z"/><path d="M452.319 282.384h-26.917a4.513 4.513 0 0 1-4.5-4.5v-7.629c0-2.475 2.025-4.5 4.5-4.5h26.917c2.475 0 4.5 2.025 4.5 4.5v7.629c0 2.475-2.025 4.5-4.5 4.5z" fill="#08f"/><circle cx="405.5" cy="353.95" r="45.711" fill="#2a2a2c"/><circle cx="130.3" cy="353.95" r="45.711" fill="#3c3b41"/><circle cx="130.3" cy="353.95" r="25.316" fill="#fff"/><circle cx="405.5" cy="353.95" r="25.316" fill="#e1e1e3"/></svg>