<svg xmlns="http://www.w3.org/2000/svg" viewBox="0 0 512 512"><path fill="#e6e6e6" d="M496.758 321.676l-125.72 26.232 26.232-116.305h64.542l6.984 17.994z"/><path d="M397.27 302.262V269.01c0-10.722 8.691-19.413 19.413-19.413h52.113l-6.984-17.994h-112.53l-41.827 174.911 106.845-3.769 82.459 3.769v-84.838h-80.075c-10.721 0-19.414-8.692-19.414-19.414zM158.134 142.55c-.382 0-.767-.023-1.151-.069-34.419-4.133-59.805-17.215-75.454-38.881-23.363-32.347-15.747-71.563-15.413-73.217a9.646 9.646 0 0 1 11.795-7.441c32.414 8.103 58.248 29.575 74.711 62.093 12.209 24.115 14.977 45.781 15.087 46.692a9.648 9.648 0 0 1-9.575 10.823zM84.033 45.049c-.319 11.765 1.371 31.066 13.243 47.401 10.35 14.242 26.632 23.839 48.509 28.621-2.01-7.5-5.333-17.476-10.646-27.85-12.124-23.68-29.283-39.84-51.106-48.172zm124.402 97.501a9.648 9.648 0 0 1-9.576-10.822c.112-.911 2.879-22.575 15.087-46.692 16.463-32.518 42.298-53.99 74.711-62.093a9.644 9.644 0 0 1 11.794 7.441c.336 1.654 7.951 40.87-15.413 73.217-15.649 21.666-41.035 34.747-75.454 38.881a10.09 10.09 0 0 1-1.149.068zm74.141-97.516c-21.84 8.327-39.013 24.492-51.146 48.186-5.312 10.373-8.636 20.35-10.646 27.85 21.952-4.798 38.27-14.443 48.615-28.766 11.865-16.426 13.525-35.584 13.177-47.27z" fill="#666"/><g fill="#f95428"><path d="M349.282 208.091H0V132.9h366.569v75.191z"/><path d="M17.287 195.58h331.995v204.507H17.287z"/></g><path fill="#e54728" d="M17.287 208.095h331.995v30.869H17.287z"/><path d="M208.43 120.216v272.238h-50.291V120.216c0-13.299 10.766-24.065 24.052-24.065h2.187c13.286.002 24.052 10.767 24.052 24.065z" fill="#666"/><path fill="#e6e6e6" d="M496.758 392.456H9.184v44.849H512v-44.849z"/><path d="M158.139 208.095h50.291v30.869h-50.291zM414.3 374.449c27.37 0 50.265 19.177 56.001 44.85a57.287 57.287 0 0 1 1.389 12.605c0 31.731-25.698 57.442-57.39 57.442-31.679 0-57.378-25.711-57.378-57.442 0-4.335.476-8.553 1.389-12.605 5.737-25.673 28.631-44.85 55.989-44.85z" fill="#4d4d4d"/><path d="M414.3 461.048c-16.036 0-29.081-13.074-29.081-29.145 0-2.185.235-4.332.697-6.383 2.953-13.218 14.885-22.776 28.384-22.776 13.505 0 25.444 9.557 28.385 22.723.473 2.103.709 4.25.709 6.435 0 16.072-13.051 29.146-29.094 29.146z" fill="#666"/><path d="M179.709 419.299a57.376 57.376 0 0 1 1.376 12.528c0 31.692-25.698 57.378-57.39 57.378-31.679 0-57.378-25.686-57.378-57.378 0-4.309.476-8.502 1.376-12.528 5.711-25.673 28.631-44.85 56.001-44.85 27.384 0 50.304 19.177 56.015 44.85z" fill="#4d4d4d"/><path d="M123.694 460.908c-16.036 0-29.081-13.046-29.081-29.081 0-2.156.234-4.292.695-6.35 2.933-13.185 14.869-22.731 28.387-22.731 13.527 0 25.468 9.545 28.392 22.696.468 2.093.702 4.229.702 6.385-.001 16.035-13.052 29.081-29.095 29.081z" fill="#666"/></svg>