<svg xmlns="http://www.w3.org/2000/svg" viewBox="0 0 423.543 423.543"><path fill="#ccc" d="M11.273 109.308h250.254v208.024H11.273z"/><path fill="#ccc" d="M0 109.308h272.8v49.01H0z"/><path d="M200.458 45.25c-6.798-6.798-16.17-11.002-26.528-11.002s-19.73 4.203-26.528 11.002S136.4 61.42 136.4 71.778c0-10.359-4.203-19.73-11.002-26.528-6.798-6.798-16.17-11.002-26.528-11.002S79.14 38.451 72.341 45.25C65.543 52.048 61.34 61.42 61.34 71.778c0 20.716 16.813 37.53 37.53 37.53h13.943V317.33h47.18V109.308h13.937c20.717 0 37.53-16.814 37.53-37.53 0-10.358-4.203-19.73-11.002-26.528zM98.87 88.892c-9.458 0-17.114-7.656-17.114-17.114 0-4.718 1.909-9.007 5.018-12.095 3.088-3.11 7.377-5.018 12.095-5.018s9.007 1.908 12.095 5.018a16.996 16.996 0 0 1 5.018 12.095v17.114H98.87zm75.06 0h-17.114V71.778c0-4.718 1.909-9.007 5.018-12.095 3.088-3.11 7.377-5.018 12.095-5.018s9.007 1.908 12.095 5.018a16.996 16.996 0 0 1 5.018 12.095c.002 9.458-7.654 17.114-17.112 17.114z" fill="#fc7a51"/><path opacity=".2" fill="#4d4d4d" d="M11.273 158.321h101.54v17.47H11.273zm148.72 0h101.53v17.47h-101.53z"/><g fill="#e6e6e6"><path d="M193.444 221.365h28.297v45h-28.297z"/><path d="M179.415 228.542h56.355l-28.177-28.177zm-128.356-7.177h28.297v45H51.059z"/><path d="M37.03 228.542h56.355l-28.178-28.177z"/></g><path d="M79.123 333.113c12.47 0 22.618 10.148 22.618 22.618 0 12.469-10.148 22.618-22.618 22.618S56.505 368.2 56.505 355.73s10.149-22.617 22.618-22.617z" fill="#e6e6e6"/><path d="M112.683 355.73c0 .73-.024 1.46-.071 2.182-1.122 17.52-15.683 31.382-33.486 31.382-17.81 0-32.371-13.862-33.494-31.382a33.643 33.643 0 0 1-.071-2.182 33.27 33.27 0 0 1 3.399-14.71c5.44-11.162 16.908-18.847 30.165-18.847 18.535.001 33.558 15.025 33.558 33.557zm-19.788 0c0-7.59-6.178-13.768-13.768-13.768s-13.768 6.178-13.768 13.768 6.178 13.768 13.768 13.768 13.768-6.177 13.768-13.768z" fill="#666"/><path d="M356.472 333.113c12.47 0 22.618 10.148 22.618 22.618 0 12.469-10.148 22.618-22.618 22.618s-22.618-10.148-22.618-22.618c0-12.471 10.148-22.618 22.618-22.618z" fill="#e6e6e6"/><path d="M415.123 243.231v97.79h-20.78c-.4-1.06-.86-2.09-1.36-3.11-6.87-14.06-20.86-22.8-36.51-22.8-17.22 0-31.97 10.75-37.88 25.91a40.774 40.774 0 0 0-2.68 16.9h-31.84V157.318a7.637 7.637 0 0 1 7.637-7.637h86.283c11.12 0 20.14 9.02 20.14 20.13v48.28c0 7.1 4.36 13.19 10.55 15.73 3.86 1.579 6.44 5.25 6.44 9.41z" fill="#f9de58"/><path d="M423.543 341.013v16.9h-26.505c.039-.722.063-1.452.063-2.182 0-5.102-.926-10.039-2.755-14.718h29.197z" fill="#b3b3b3"/><path d="M322.986 357.913a33.643 33.643 0 0 1-.071-2.182c0-18.533 15.024-33.556 33.556-33.556 13.258 0 24.718 7.685 30.165 18.839a33.414 33.414 0 0 1 3.328 16.892c-1.122 17.528-15.683 31.39-33.494 31.39-17.801-.001-32.361-13.863-33.484-31.383zm47.254-2.183c0-7.59-6.178-13.768-13.768-13.768s-13.768 6.178-13.768 13.768 6.178 13.768 13.768 13.768 13.768-6.177 13.768-13.768z" fill="#666"/><path d="M297.613 149.68v191.34h-13.54V157.318a7.637 7.637 0 0 1 7.637-7.637h5.903v-.001z" opacity=".2" fill="#4d4d4d"/><path d="M406.032 320.467c-9.787 0-17.72-7.934-17.72-17.72 0-9.787 7.934-17.72 17.72-17.72v35.44zm-47.308-150.689h-45.785a5.494 5.494 0 0 0-5.494 5.494v46.604a5.494 5.494 0 0 0 5.494 5.494h45.785v-57.592zm21.527 0h-9.143v57.591h9.143a5.494 5.494 0 0 0 5.494-5.494v-46.604a5.494 5.494 0 0 0-5.494-5.493z" fill="#fff"/><path d="M318.597 341.017h-34.524v-24.556H2.116v41.452h36.445a40.216 40.216 0 0 1 2.328-15.9h76.469a40.435 40.435 0 0 1 2.385 13.719c0 .732-.023 1.464-.056 2.184h196.231a35.125 35.125 0 0 1-.068-2.184 40.602 40.602 0 0 1 2.747-14.715z" fill="#b3b3b3"/></svg>