<svg xmlns="http://www.w3.org/2000/svg" viewBox="0 0 496.246 496.246"><path d="M471.135 68.332H250.778v6.451c0-15.328-12.446 12.69-27.758 12.69H93.468c-15.321 0-27.75 12.43-27.75 27.75L4.427 321.118c0 15.344 12.414 27.758 27.758 27.758h438.957c6.845 0 12.383-5.537 12.383-12.367V80.699c0-6.837-5.545-12.367-12.39-12.367z" fill="#1a3d5b"/><path d="M18.188 274.857L4.419 321.119c0 15.344 12.414 27.758 27.758 27.758h438.957c6.845 0 12.383-5.537 12.383-12.367v-61.653H18.188z" fill="#0a2438"/><path d="M153.624 114.475H65.788c0 .252-.063.496-.063.756l-26.734 89.773c1.434.221 2.867.457 4.372.457h110.269c15.328 0 27.758-12.43 27.758-27.758v-35.47c-.008-15.344-12.438-27.758-27.766-27.758z" fill="#528099"/><path d="M54.91 282.199c0 14.249-3.269 25.813-7.326 25.813-4.033 0-7.318-11.571-7.318-25.813 0-14.281 3.285-25.836 7.318-25.836 4.057-.001 7.326 11.555 7.326 25.836z" fill="#c1e5f4"/><path d="M47.584 308.019c-4.033 0-7.318-11.571-7.318-25.813 0-14.281 3.285-25.836 7.318-25.836" fill="#d9f5ff"/><path d="M108.19 205.462l71.719-71.719c-2.576-7.971-8.554-14.336-16.321-17.337l-89.049 89.056h33.651zm17.234 0h28.199c15.328 0 27.758-12.43 27.758-27.758v-28.199l-55.957 55.957zm-31.886-90.987h-27.75c0 .252-.063.496-.063.756L54.24 153.765l39.298-39.29z" fill="#1d5777"/><path d="M496.246 359.944c0 5.711-4.632 10.342-10.342 10.342H10.335C4.608 370.294 0 365.655 0 359.944V324.34a10.317 10.317 0 0 1 10.335-10.342h475.569c5.711 0 10.342 4.624 10.342 10.342v35.604z" fill="#ffa522"/><g fill="#ffc41f"><path d="M485.904 313.998H10.335C4.608 313.998 0 318.622 0 324.348v7.845a10.32 10.32 0 0 0 10.335 10.335h475.569c5.711 0 10.342-4.632 10.342-10.335v-7.845c0-5.726-4.631-10.35-10.342-10.35z"/><path d="M135.467 376.596c0 19.259-15.644 34.895-34.911 34.895s-34.895-15.628-34.895-34.895c0-19.291 15.628-34.926 34.895-34.926s34.911 15.627 34.911 34.926z"/></g><path d="M100.557 341.669c19.267 0 34.911 15.628 34.911 34.926 0 19.259-15.644 34.895-34.911 34.895" fill="#ffa522"/><path d="M100.557 427.914c-28.302 0-51.326-23.032-51.326-51.326 0-28.325 23.016-51.342 51.326-51.342s51.326 23.016 51.326 51.342c0 28.294-23.024 51.326-51.326 51.326zm0-69.813c-10.193 0-18.479 8.302-18.479 18.495 0 10.177 8.287 18.464 18.479 18.464s18.495-8.287 18.495-18.464c0-10.193-8.302-18.495-18.495-18.495z" fill="#1a3d5b"/><circle cx="402.038" cy="376.58" r="34.903" fill="#ffc41f"/><path d="M377.336 351.894c13.627-13.619 35.738-13.619 49.357 0 13.643 13.627 13.627 35.738 0 49.373" fill="#ffa522"/><path d="M438.319 412.877c-20.023 20.023-52.578 20.023-72.602 0-20.023-20.023-20.023-52.571 0-72.586 20.023-20.039 52.578-20.039 72.602 0 20.008 20.015 20.008 52.563 0 72.586zm-49.357-49.373c-7.223 7.207-7.223 18.928 0 26.136 7.192 7.207 18.913 7.207 26.12 0 7.2-7.207 7.2-18.928 0-26.136-7.199-7.191-18.928-7.191-26.12 0z" fill="#1a3d5b"/><path d="M303.206 239.293h-37.053c23.182-22.481 40.669-41.913 40.669-66.19 0-20.385-13.257-40.952-42.803-40.952-13.989 0-27.38 4.813-37.715 13.556a6.555 6.555 0 0 0-1.733 7.656l5.104 11.311c.835 1.843 2.505 3.198 4.49 3.671 1.961.473 4.057-.047 5.616-1.355 3.797-3.174 11.603-8.523 20.953-8.523 11.453 0 17.006 5.451 17.006 16.581-.15 15.006-12.524 29.168-42.134 57.344l-12.564 12.209a6.487 6.487 0 0 0-1.969 4.671v9.838a6.498 6.498 0 0 0 6.514 6.498h75.618a6.493 6.493 0 0 0 6.514-6.498v-13.304a6.499 6.499 0 0 0-6.513-6.513zm101.156-31.531h-10.075v-67.104c0-3.592-2.922-6.498-6.514-6.498h-17.321a6.583 6.583 0 0 0-5.341 2.773l-52.838 75.634a6.469 6.469 0 0 0-1.174 3.718v10.571c0 3.584 2.907 6.491 6.506 6.491h48.514v25.765c0 3.592 2.922 6.498 6.522 6.498h15.132c3.592 0 6.514-2.907 6.514-6.498v-25.765h10.075a6.492 6.492 0 0 0 6.491-6.491v-12.572c-.001-3.616-2.907-6.522-6.491-6.522zm-58.1 0l19.858-27.672v27.672h-19.858z" fill="#ffc41f"/><g fill="#ffa522"><path d="M309.713 259.104V245.8a6.488 6.488 0 0 0-6.514-6.498h-37.053c23.182-22.481 40.669-41.913 40.669-66.19 0-18.897-11.422-37.935-36.659-40.598-11.729 1.189-22.764 5.75-31.579 13.202a6.555 6.555 0 0 0-1.733 7.656l5.104 11.311c.079.158.244.244.323.41 4.246-3.04 10.815-6.617 18.464-6.617 2.363 0 4.411.284 6.262.756 1.914-.457 3.931-.756 6.018-.756 11.453 0 17.006 5.451 17.006 16.581-.142 15.006-12.516 29.168-42.134 57.344l-12.564 12.209a6.462 6.462 0 0 0-1.977 4.671v9.838a6.498 6.498 0 0 0 6.514 6.498h63.338a6.51 6.51 0 0 0 6.515-6.513zm84.574 0v-25.765h81.967a6.493 6.493 0 0 0 6.498-6.491v-12.572a6.498 6.498 0 0 0-6.498-6.514h-81.967v-67.104c0-3.592-2.922-6.498-6.514-6.498h-5.041a6.583 6.583 0 0 0-5.341 2.773l-52.831 75.634a6.418 6.418 0 0 0-1.182 3.718v10.571c0 3.584 2.907 6.491 6.506 6.491h48.514v25.765c0 3.592 2.922 6.498 6.522 6.498h2.851c3.594-.008 6.516-2.915 6.516-6.506zm-15.88-51.342h-32.138l19.858-27.672v17.101l12.28-17.101v27.672z"/><path d="M483.037 186.25a3.39 3.39 0 0 1-3.395 3.395h-72.208a3.39 3.39 0 0 1-3.395-3.395 3.4 3.4 0 0 1 3.395-3.395h72.208a3.396 3.396 0 0 1 3.395 3.395zm0-18.416a3.39 3.39 0 0 1-3.395 3.395h-72.208a3.39 3.39 0 0 1-3.395-3.395 3.4 3.4 0 0 1 3.395-3.395h72.208a3.396 3.396 0 0 1 3.395 3.395zm0-18.417a3.39 3.39 0 0 1-3.395 3.395h-72.208a3.39 3.39 0 0 1-3.395-3.395 3.4 3.4 0 0 1 3.395-3.395h72.208a3.396 3.396 0 0 1 3.395 3.395z"/></g></svg>