<svg xmlns="http://www.w3.org/2000/svg" viewBox="0 0 512 512"><path d="M477.288 238.644H373.153v121.492h130.169a8.679 8.679 0 0 0 8.678-8.678v-78.102c0-19.171-15.541-34.712-34.712-34.712z" fill="#c7cfe2"/><path d="M373.153 256h104.136c9.586 0 17.356 7.77 17.356 17.356v86.78H373.153V256z" fill="#afb9d2"/><path d="M493.954 360.136c-4.221-29.427-29.462-52.068-60.056-52.068s-55.835 22.641-60.056 52.068h120.112z" fill="#959cb5"/><path d="M442.576 134.508h-69.424v34.712h91.119a4.34 4.34 0 0 0 4.339-4.339v-4.339c0-14.378-11.655-26.034-26.034-26.034z" fill="#c7cfe2"/><path d="M364.475 99.797H52.068a8.679 8.679 0 0 0-8.678 8.678v173.559H26.034a8.676 8.676 0 0 0-8.678 8.678 8.676 8.676 0 0 0 8.678 8.678h52.068a8.676 8.676 0 0 1 8.678 8.678 8.676 8.676 0 0 1-8.678 8.678H43.39v34.712a8.679 8.679 0 0 0 8.678 8.678h321.085V108.475a8.678 8.678 0 0 0-8.678-8.678z" fill="#ffdc64"/><g fill="#ffc850"><circle cx="208.271" cy="212.61" r="78.102"/><path d="M178.501 316.746c-9.087-5.427-19.619-8.678-30.976-8.678s-21.889 3.251-30.976 8.678H8.678A8.676 8.676 0 0 0 0 325.424a8.676 8.676 0 0 0 8.678 8.678H43.39v17.356a8.679 8.679 0 0 0 8.678 8.678h321.085v-43.39H178.501z"/></g><g fill="#5b5d6e"><circle cx="433.898" cy="368.814" r="43.39"/><circle cx="147.525" cy="368.814" r="43.39"/></g><path fill="#b4e6ff" d="M477.288 238.644l-17.356-69.424h-86.779v69.424z"/><circle cx="147.525" cy="368.814" r="26.034" fill="#c7cfe2"/><circle cx="208.271" cy="212.61" r="60.746" fill="#fff"/><path d="M234.305 247.322a8.644 8.644 0 0 1-6.135-2.543l-26.034-26.034a8.68 8.68 0 0 1-2.543-6.135v-34.712a8.676 8.676 0 0 1 8.678-8.678 8.676 8.676 0 0 1 8.678 8.678v31.119l23.491 23.491a8.675 8.675 0 0 1 0 12.272 8.645 8.645 0 0 1-6.135 2.542z" fill="#5b5d6e"/><circle cx="147.525" cy="368.814" r="8.678" fill="#7f8499"/><circle cx="433.898" cy="368.814" r="26.034" fill="#c7cfe2"/><circle cx="433.898" cy="368.814" r="8.678" fill="#7f8499"/><path d="M407.864 186.576h56.407l-4.339-17.356h-86.78v69.424h26.034v-43.39a8.679 8.679 0 0 1 8.678-8.678z" fill="#9bd6ff"/><path d="M373.153 151.864h69.424a8.679 8.679 0 0 1 8.678 8.678v8.678h-78.102v-17.356z" fill="#afb9d2"/><path fill="#f1f4fb" d="M485.966 273.356H512v34.712h-26.034z"/><path d="M468.61 273.356v17.356c0 9.585 7.771 17.356 17.356 17.356h8.678v-34.712H468.61z" fill="#ffc850"/><path d="M208.271 221.288a8.679 8.679 0 0 1-8.678-8.678v-34.712a8.679 8.679 0 0 1 17.356 0v34.712a8.678 8.678 0 0 1-8.678 8.678z" fill="#464655"/></svg>