<svg xmlns="http://www.w3.org/2000/svg" viewBox="0 0 511.987 511.987"><path d="M406.958 389.692l-8.797-19.421c20.656-9.359 35.952-23.952 45.483-43.437 7.266-14.859 8.297-27.124 8.328-27.265l21.219 1.577c-.031.609-1.172 15.75-9.938 34.094-8.015 16.859-24.359 40.016-56.295 54.452z" fill="#434a54"/><path d="M454.472 386.333l-1.828-.531c-26.452-7.093-35.39-13.921-47.171-18.405-41.828-15.922-52.688-27.39-55.483-32.812l-.234-.609-.359-48.562-99.138-1.109-99.092 1.109-.344 48.562c-.078.203-.219.406-.312.609-2.734 5.422-13.656 16.89-55.42 32.812-11.781 4.484-20.765 11.312-47.218 18.405l-1.843.531c-24.062 7.969-40.281 30.329-40.281 55.547v70.107h489.067V441.88c-.001-25.218-16.265-47.578-40.344-55.547z" fill="#da4453"/><path d="M387.833 191.479c0 89.373-85.232 171.605-137.575 171.605-52.327 0-137.528-82.232-137.528-171.605 0-89.381 61.592-148.34 137.528-148.34 75.999 0 137.575 58.959 137.575 148.34z" fill="#ed5564"/><path d="M291.335 325.054c-1.953-3.156-5.391-5.078-9.062-5.078h-63.998c-3.718 0-7.14 1.922-9.093 5.078-1.938 3.125-2.094 7.078-.469 10.359l32.03 63.998c1.781 3.625 5.484 5.906 9.516 5.906 4.078 0 7.734-2.281 9.546-5.906l31.983-63.998c1.687-3.281 1.484-7.234-.453-10.359z" fill="#434a54"/><path d="M505.846 300.616l-17.624-84.302c-.891-4.289-4.312-7.586-8.577-8.328a10.69 10.69 0 0 0-10.953 4.93l-45.265 73.92c-1.859 3.031-2.125 6.766-.672 9.984 1.453 3.202 4.405 5.515 7.89 6.108l63.062 10.938c.656.109 1.25.172 1.844.172h.094c5.844-.078 10.593-4.812 10.593-10.672a9.528 9.528 0 0 0-.392-2.75z" fill="#ed5564"/><path d="M190.791 76.145c-47.5-8.296-77.483-69.483-77.749-70.101A10.75 10.75 0 0 0 102.121.076c-4.531.547-8.25 3.938-9.188 8.406-.172.953-4.75 23.508-1.5 50.351 4.562 36.89 21.781 64.1 49.812 78.631 7.171 3.711 14.562 5.594 21.968 5.594 11.828 0 23.375-4.914 32.391-13.875 7.984-7.852 13.171-18.164 14.015-27.593 1.171-13.25-6.266-23.234-18.828-25.445z" fill="#ffce54"/><path d="M170.338 69.068c-6.469-3.383-12.5-7.602-18.015-12.258-3.812 9.508-18.156 40.507-45.546 48.468 4 6.539 8.672 12.414 14.031 17.577 27.936-11.976 43.28-39.749 49.53-53.787z" fill="#f6bb42"/><path d="M309.772 76.145c47.451-8.296 77.498-69.483 77.748-70.101A10.66 10.66 0 0 1 398.395.076a10.63 10.63 0 0 1 9.172 8.406c.234.953 4.812 23.508 1.516 50.351-4.516 36.89-21.719 64.1-49.828 78.631-7.125 3.711-14.499 5.594-21.952 5.594-11.827 0-23.327-4.914-32.39-13.875-7.938-7.852-13.172-18.164-13.969-27.593-1.172-13.25 6.219-23.234 18.828-25.445z" fill="#ffce54"/><path d="M330.225 69.068c6.468-3.383 12.452-7.602 17.999-12.258 3.843 9.508 18.171 40.507 45.562 48.468a87.307 87.307 0 0 1-14.094 17.577c-27.875-11.976-43.218-39.749-49.467-53.787z" fill="#f6bb42"/></svg>