<svg xmlns="http://www.w3.org/2000/svg" viewBox="0 0 512 512"><path d="M256.11 168.607L92.8 5.297c-7.062-7.062-17.655-7.062-24.717 0L5.407 67.09c-7.062 7.062-7.062 17.655 0 24.717L168.717 256l87.393-87.393zm252.469 252.469L343.503 256l-87.393 87.393 165.076 165.076c4.414 4.414 12.359 4.414 16.772 0l70.621-70.621c4.414-4.414 4.414-12.358 0-16.772" fill="#e0e0e0"/><path d="M448.552 410.483c-10.593-10.593-27.366-10.593-37.076 0s-10.593 27.366 0 37.076 27.365 10.593 37.076 0c9.71-10.593 9.71-26.483 0-37.076" fill="#a3aaaf"/><path d="M62.786 449.324L368.221 143.89l43.255 44.138-305.435 305.434-43.255-44.138z" fill="#a0772d"/><path d="M62.786 449.324l-43.255-44.138L324.965 99.752l44.138 43.255L62.786 449.324z" fill="#bd9139"/><path d="M362.041 62.676l87.393 87.393 53.848-53.848c11.476-11.476 11.476-30.897 0-42.372l-45.02-45.021c-11.476-11.476-30.897-11.476-42.372 0l-53.849 53.848z" fill="#e65252"/><path d="M18.648 406.069L.11 512l105.931-18.538-87.393-87.393z" fill="#edb691"/><path d="M412.359 187.145l-87.393-87.393 37.076-37.076 87.393 87.393-37.076 37.076z" fill="#f4ba48"/><path d="M30.124 117.407L67.2 80.331c3.531-3.531 3.531-9.71 0-13.241-3.531-3.531-8.828-3.531-12.359 0l-37.076 37.959 12.359 12.358zm24.717 24.717l24.717-24.717c3.531-3.531 3.531-8.828 0-12.359-3.531-3.531-8.828-3.531-12.359 0l-24.717 24.717 12.359 12.359zm50.318-24.717l-37.076 37.076 12.359 12.359 37.076-37.076c3.531-3.531 3.531-8.828 0-12.359-3.532-3.531-8.828-3.531-12.359 0m12.358 37.076L92.8 179.2l12.359 12.359 24.717-24.717c3.531-3.531 3.531-8.828 0-12.359-3.531-2.649-8.828-2.649-12.359 0m50.317 13.241c-3.531-3.531-8.828-3.531-12.359 0L118.4 204.8l12.359 12.359 37.076-37.076c3.531-3.531 3.531-8.828-.001-12.359m12.359 37.076c-3.531-3.531-8.828-3.531-12.359 0l-25.6 24.717 12.359 12.359 24.717-24.717c4.414-3.531 4.414-8.828.883-12.359m99.752 162.428l37.076-37.076c3.531-3.531 3.531-8.828 0-12.359-3.531-3.531-8.828-3.531-12.359 0l-37.076 37.076 12.359 12.359zm24.717 24.717l24.717-24.717c3.531-3.531 3.531-8.828 0-12.359-3.531-3.531-8.828-3.531-12.359 0l-24.717 24.717 12.359 12.359zm50.317-24.717l-37.076 37.076 12.359 12.359 37.076-37.076c3.531-3.531 3.531-8.828 0-12.359-3.531-3.531-8.828-3.531-12.359 0" fill="#a3aaaf"/></svg>