<svg xmlns="http://www.w3.org/2000/svg" viewBox="0 0 512 512"><path d="M506.126 310.684A256.889 256.889 0 0 0 512 256C512 114.616 397.385 0 256 0 114.616 0 0 114.616 0 256c0 116.887 78.34 215.473 185.378 246.128l320.748-191.444z" fill="#ff9075"/><path d="M506.126 310.684l-54.691-54.69H343.522v-77.902L229.03 63.599 67.243 383.993l118.135 118.135C207.812 508.553 231.503 512 256 512c122.614 0 225.076-86.209 250.126-201.316z" fill="#ff7452"/><path fill="#ffd652" d="M343.521 178.091h-87.058v178.076l194.972-22.258v-77.916l-44.522-14.509z"/><path d="M431.211 333.909c-13.17-13.706-31.659-22.261-52.124-22.261-20.464 0-38.954 8.555-52.124 22.261l-70.502-.002 33.391 50.087 161.583.002v-50.087h-20.224z" fill="#fdba4c"/><path fill="#f7edbc" d="M289.841 144.7v166.945l-166.957 22.261 77.915-189.201z"/><path fill="#fff" d="M67.243 144.7v166.945l111.294 22.261V144.7z"/><path fill="#ccc" d="M289.852 311.645H67.243v22.261l116.87 27.826 105.739-27.827z"/><path fill="#b2b2b2" d="M67.239 333.902h222.609v50.087H67.239z"/><path d="M139.597 434.082l-30.052-50.087 30.052-50.087c27.618 0 50.087 22.469 50.087 50.087 0 27.618-22.468 50.087-50.087 50.087z" fill="#383838"/><path d="M89.51 383.996c0 27.618 22.469 50.087 50.087 50.087V333.907c-27.618.002-50.087 22.471-50.087 50.089z" fill="#4c4c4c"/><path d="M139.597 411.822l-16.696-27.826 16.696-27.826c15.343 0 27.826 12.483 27.826 27.826s-12.483 27.826-27.826 27.826z" fill="#ccc"/><path d="M111.771 383.996c0 15.343 12.483 27.826 27.826 27.826V356.17c-15.344-.001-27.826 12.482-27.826 27.826z" fill="#fff"/><path d="M379.087 434.082l-30.052-50.087 30.052-50.087c27.618 0 50.087 22.469 50.087 50.087 0 27.618-22.469 50.087-50.087 50.087z" fill="#383838"/><path d="M328.999 383.996c0 27.618 22.469 50.087 50.087 50.087V333.907c-27.618.002-50.087 22.471-50.087 50.089z" fill="#4c4c4c"/><path d="M379.087 411.819l-16.696-27.826 16.696-27.826c15.343 0 27.826 12.483 27.826 27.826 0 15.344-12.483 27.826-27.826 27.826z" fill="#ccc"/><path d="M351.261 383.993c0 15.343 12.483 27.826 27.826 27.826v-55.652c-15.343 0-27.826 12.483-27.826 27.826z" fill="#fff"/><path fill="#d33734" d="M154.123 105.286l24.762 110.139 27.826 27.826V105.286z"/><path fill="#e24642" d="M178.857 105.286h-27.798v137.965l27.826-27.826z"/><path d="M186.799 63.242c-5.912 5.912-8.781 13.727-8.626 21.527l-11.382 29.995 11.746 29.995 38.683-21.65 20.797-37.832a30.189 30.189 0 0 0-8.887-21.778c-11.759-11.76-30.713-11.875-42.331-.257z" fill="#d33734"/><g fill="#e24642"><path d="M259.794 94.163c11.76 11.76 11.875 30.713.257 42.332-5.912 5.912-13.727 8.362-21.525 8.211h-59.99l59.48-59.429a30.193 30.193 0 0 1 21.778 8.886z"/><path d="M170.275 63.242c5.912 5.912 8.781 13.727 8.626 21.527l-.364 59.99-38.683-21.65-20.797-37.832a30.189 30.189 0 0 1 8.887-21.778c11.759-11.76 30.713-11.875 42.331-.257z"/></g><path d="M97.279 94.163c-11.76 11.76-11.875 30.713-.257 42.332 5.912 5.912 13.726 8.362 21.525 8.211h59.99l-59.48-59.429a30.193 30.193 0 0 0-21.778 8.886z" fill="#f15d4a"/></svg>