<svg xmlns="http://www.w3.org/2000/svg" viewBox="0 0 156 182.64"><defs><style>.cls-2{fill:#255605}.cls-3{fill:#163502}.cls-4{fill:#599e2d}.cls-5{fill:#316d0d}.cls-6{fill:#ff5538}.cls-7{fill:#e84731}.cls-8{fill:#ce3d2e}</style></defs><g id="Слой_2" data-name="Слой 2"><g id="OBJECTS"><ellipse cx="78" cy="174.76" rx="78" ry="7.87" fill="#d5dce0"/><path class="cls-2" d="M82.08 37.79C83.13 33.08 87.35 8.08 76.46 2S54 4.78 53.28 19.87 74 41.1 74 41.1s-13.17-21-11.41-28.53 6.49-7.57 8.07-5.9S80.15 18.46 77 34s5.08 3.79 5.08 3.79z"/><path class="cls-3" d="M62.59 12.56c1.58-6.78 5.55-7.46 7.5-6.34-.47-1.76-5.54-5.28-8.29-3.77-4.73 3.23-8.15 9.46-8.52 17.42C52.58 35 74 41.1 74 41.1S60.83 20.11 62.59 12.56z"/><path class="cls-2" d="M76.79 41.11c-3.14-3.14-22.6-31-38.52-25.74C30.22 17.92 27.46 29.9 41 39.73s10.41-.59 10.41-.59S33.75 24 45.35 18.51c1.57-1 22.9 16.19 27.42 21.5 4.77 5.62 4.02 1.1 4.02 1.1z"/><path class="cls-3" d="M45.35 18.51c.13-.08.41 0 .8.14C44 17.18 39.63 14.91 35.21 17c-5.44 4.27-5.83 14.29 5.79 22.73 13.56 9.83 10.41-.59 10.41-.59S33.75 24 45.35 18.51z"/><path class="cls-4" d="M78 43.66C76.61 37 69.22 4.31 49.66 11a7.64 7.64 0 0 0-3.53 2C43.62 15.63 43 33.89 58.9 40.79c14.81 6.4 14.66 1.84 14.66 1.84S39.68 16.15 58.9 12.81c6.27-1.09 13.93 14.1 19.1 30.85z"/><path class="cls-3" d="M67 16.84c-.4-.45-.72-.82-.92-1.07s-.34-.39-.52-.57c-3.47-3-6.64-2.4-6.64-2.4C64.49 14.44 71 25.1 76.1 39.7c.47 1.36 1.42 2.54 1.86 4-.84-4.15-4.06-18.35-10.96-26.86zm11.75 22.7c7.06-9.72 16.53-21.54 23.82-25.18 5.77-2.87 21.52-4.27 23.58 5.45s-10 21.79-18 23-7.36 0-2.36-1.77 15-14.13 7.07-21.49-22 10.08-22 10.08-6.4 13-3.31 14.57-8.8-4.66-8.8-4.66z"/><path class="cls-5" d="M108.19 42.77c7.95-1.18 20-13.25 18-23-1.85-8.7-14.66-8.48-21.46-6.28a11.28 11.28 0 0 1 9.23 7.08c6 7.43-3.32 18.71-8.08 20.39-5.05 1.81-5.64 3.04 2.31 1.81z"/><path class="cls-2" d="M104.65 43.2c.91-.07 2.08-.2 3.54-.42 6.29-.93 15.14-8.69 17.54-16.7-.27.28-9.75 9.83-16.06 12.33a12 12 0 0 1-3.84 2.6c-.74.26-1.37.51-1.9.73a8.19 8.19 0 0 0 .72 1.46z"/><path class="cls-5" d="M76.1 42.63c0-4.86 2.43-30 13-33.56s17 11.63 15.9 19.65c-.79 5.73-2.89 10.89-10.16 13.91s-9.05-2.5-9.05-2.5 9.5-10.19 1.1-23.77c-.63-1-10.79 26.27-10.79 26.27z"/><path class="cls-3" d="M81.29 17.69c-4.07 8.9-5.19 21.62-5.19 24.93 0 0 10.16-27.27 10.82-26.28 0 .01-2.5-3.4-5.63 1.35z"/><path class="cls-4" d="M89.13 9.06c-3.38 1.13-5.93 4.46-7.83 8.63 1.73-2.63 3.27-2.76 4.3-2.35 3.93-1.14 10.43-.85 19.05 7.06C103 14.74 97.3 6.34 89.13 9.06z"/><path class="cls-5" d="M53 18s-4.17 13.48 1.9 20.61a24.54 24.54 0 0 0 4 2.18 59.15 59.15 0 0 0 6.93 2.57 7.62 7.62 0 0 0 4.69-2.26l.35-.67C65.32 35.74 53.13 24.71 53 18z"/><path class="cls-6" d="M18.26 99.4v72.8l15.86 1.75 75.06-1.46 30.93-1.9 2.38-77.22-121.1-2.63-3.13 8.66z"/><path class="cls-7" d="M140.11 170.59l2.38-77.22-26.88-.59-3.78 3.45-1.14 76.17 29.42-1.81z"/><path class="cls-8" d="M18.26 99.4v72.8l15.06 1.66V92.78l-9.14-1.98-2.79-.06-3.13 8.66z"/><path fill="#840000" d="M18.26 98.58v4.55l13.21-5.88 83.44 1.34 27.3 2.6.28-8.07-121.1-2.38-3.13 7.84z"/><path class="cls-6" d="M11.3 54.53l18.32-15.86 34.28.7 11.9 3.11 10.12-2.67 30.4.62 30.31 11.28-1.76 46.87-29.96-2.82-83.44-1.32-17.44 7.67-2.73-47.58z"/><path class="cls-8" d="M11.3 54.53l2.73 47.58 17.44-7.67-1.85-55.77L11.3 54.53z"/><path class="cls-7" d="M146.63 51.71l-30.31-11.28-1.41 55.33 29.96 2.82 1.76-46.87z"/><path class="cls-5" d="M63.9 39.37l-.87 55.57-1.22 78.47 24.11-.47V39.81l-22.02-.44z"/><path class="cls-4" d="M62.95 1.71l-.28.16-.34.21-.52.33a4.51 4.51 0 0 1 3.66.05C74.7 5.4 81.18 10.38 83.2 14.15c-.74-4.63-2.34-8.79-5.37-11.24-.44-.33-.9-.65-1.38-1a13.43 13.43 0 0 0-13.5-.2z"/></g></g></svg>