<svg xmlns="http://www.w3.org/2000/svg" width="128" height="128" viewBox="0 0 535.806 535.807"><g fill="#003A65"><path d="M440.956 373.932c-11.934-13.158-26.315-19.584-44.676-19.584h-38.686l-25.398-24.479c-18.666 15.3-41.31 24.174-65.791 24.174-22.95 0-44.676-7.956-62.424-21.726l-22.645 21.726h-40.262c-20.502 0-36.414 7.038-48.96 21.421C55.7 417.691 61.82 507.962 64.574 535.808h407.592c2.144-28.154 5.816-120.566-31.21-161.876z"/><path d="M160.343 182.376c-7.344 6.12-12.24 15.912-12.24 27.234 0 16.83 11.016 30.6 25.092 33.048 3.06 25.398 13.464 47.736 29.07 64.26 3.365 3.366 6.731 6.732 10.403 9.486 4.591 3.672 9.486 6.732 14.688 9.486 11.628 6.119 24.479 9.485 38.25 9.485 13.77 0 26.623-3.366 38.25-9.485 5.202-2.754 10.098-5.814 14.688-9.486 3.673-2.754 7.038-6.12 10.404-9.486 15.3-16.523 26.01-38.556 28.764-63.954h.918c16.219 0 29.07-14.994 29.07-33.354 0-11.322-4.896-21.114-12.24-27.234H160.343zm217.066-64.26c-9.486-31.518-34.578-63.648-66.402-80.172v82.926c-.306 3.366-.918 6.426-2.447 9.486-3.979 7.65-11.935 13.158-21.114 13.158H248.89c-8.568 0-16.219-4.59-20.196-11.322-1.836-2.754-2.754-5.813-3.366-9.18-.306-1.224-.306-2.142-.306-3.366V37.638c-31.824 16.83-56.916 48.96-66.402 80.478l-2.142 6.732h-17.442v38.25h257.737v-38.25h-17.22l-2.144-6.732z"/><path d="M248.777 134.028h38.25c5.508 0 10.098-3.06 12.546-7.65 1.224-2.142 1.836-4.284 1.836-6.732V18.972c0-2.448-.612-4.59-1.224-6.732C297.432 5.202 290.394 0 282.438 0h-33.661c-7.344 0-13.464 5.508-14.076 12.546 0 .612-.306 1.224-.306 1.836v105.264c0 3.06.918 5.814 2.448 8.262 2.755 3.672 7.038 6.12 11.934 6.12z"/></g></svg>