<svg xmlns="http://www.w3.org/2000/svg" viewBox="0 0 512 512"><path d="M302.649 45.511C302.649 20.48 282.169 0 257.138 0H45.511C20.48 0 0 20.48 0 45.511v59.164l151.324 22.756 151.324-22.756V45.511z" fill="#c2b8b9"/><path d="M187.164 60.894h-71.68a8.533 8.533 0 0 1 0-17.066h71.68c4.714 0 8.533 3.821 8.533 8.533s-3.819 8.533-8.533 8.533zM0 104.676v302.648l151.324 22.756 151.325-22.756V104.676z" fill="#605353"/><path d="M0 466.489C0 491.52 20.48 512 45.511 512h211.627c25.031 0 45.511-20.48 45.511-45.511v-59.164H0v59.164z" fill="#c2b8b9"/><circle cx="151.324" cy="459.662" r="17.067" fill="#fff"/><path fill="#ffd24d" d="M245.352 188.079v-37.43L151.273 256l94.079 105.351v-37.43H512V188.079z"/></svg>