<svg xmlns="http://www.w3.org/2000/svg" viewBox="0 0 512 512"><path d="M154.527 315.063L84.746 470.528c-2.407 5.361 1.958 11.298 7.792 10.599l39.098-4.674 22.532 32.311c3.36 4.818 10.69 4.13 13.095-1.229l70.647-157.398-83.383-35.074z" fill="#ff507d"/><path d="M357.473 315.063l69.781 155.465c2.407 5.361-1.958 11.298-7.792 10.599l-39.098-4.674-22.533 32.311c-3.36 4.818-10.69 4.13-13.095-1.229l-70.647-157.398 83.384-35.074z" fill="#d23c69"/><path d="M427.255 470.528l-49.103-109.394-1.637-3.648s-9.729 3.648-17.094 17.214c-3.533 6.507-8.999 11.294-12.631 13.986a5.65 5.65 0 0 0-1.794 6.853l36.323 81.03 38.142 4.56c5.836.697 10.2-5.239 7.794-10.601z" fill="#ff507d"/><path d="M154.527 315.063L84.746 470.528c-2.407 5.361 1.958 11.297 7.792 10.599l38.142-4.56 35.178-78.474c1.865-4.161 6.6-5.887 10.916-4.413a37.785 37.785 0 0 0 18.196 1.577l21.133-3.325c.077-.002.15-.005.22-.005.645 0 1.016.115 1.344.315l1.056.643 19.187-42.749-83.383-35.073z" fill="#d23c69"/><path d="M448.486 206.09l-11.155 18.295a20.407 20.407 0 0 0-2.735 13.791l3.325 21.133a20.4 20.4 0 0 1-8.153 19.668l-17.292 12.578a20.397 20.397 0 0 0-7.828 11.699l-5.035 20.806a20.401 20.401 0 0 1-15.031 15.03l-20.805 5.034a20.401 20.401 0 0 0-11.7 7.828l-12.574 17.287a20.403 20.403 0 0 1-19.67 8.153l-21.125-3.325a20.397 20.397 0 0 0-13.793 2.735l-18.292 11.154a20.4 20.4 0 0 1-21.241 0l-18.295-11.155a20.407 20.407 0 0 0-13.791-2.735l-21.133 3.325a20.4 20.4 0 0 1-19.668-8.153l-12.578-17.292a20.397 20.397 0 0 0-11.699-7.828l-20.806-5.035a20.401 20.401 0 0 1-15.03-15.031l-5.034-20.805a20.401 20.401 0 0 0-7.828-11.7l-17.288-12.576a20.403 20.403 0 0 1-8.153-19.67l3.325-21.125a20.397 20.397 0 0 0-2.735-13.793L63.513 206.09a20.4 20.4 0 0 1 0-21.241l11.155-18.295a20.407 20.407 0 0 0 2.735-13.791l-3.325-21.133a20.4 20.4 0 0 1 8.153-19.668l17.292-12.578a20.397 20.397 0 0 0 7.828-11.699l5.035-20.806a20.401 20.401 0 0 1 15.031-15.03l20.805-5.034a20.401 20.401 0 0 0 11.7-7.828L172.497 21.7a20.403 20.403 0 0 1 19.67-8.153l21.125 3.325a20.397 20.397 0 0 0 13.793-2.735l18.292-11.154a20.4 20.4 0 0 1 21.241 0l18.296 11.155a20.407 20.407 0 0 0 13.791 2.735l21.133-3.325a20.4 20.4 0 0 1 19.668 8.153l12.578 17.292a20.397 20.397 0 0 0 11.699 7.828l20.806 5.035a20.401 20.401 0 0 1 15.03 15.031l5.034 20.805a20.401 20.401 0 0 0 7.828 11.7l17.287 12.574a20.403 20.403 0 0 1 8.153 19.67l-3.325 21.125a20.397 20.397 0 0 0 2.735 13.793l11.154 18.292a20.402 20.402 0 0 1 .001 21.244z" fill="#ffc850"/><path d="M138.432 154.773c0-54.222 20.336-103.674 53.758-141.221l-.021-.003a20.396 20.396 0 0 0-19.669 8.152l-12.574 17.287a20.4 20.4 0 0 1-11.7 7.828l-20.805 5.034a20.4 20.4 0 0 0-15.031 15.03l-5.035 20.806a20.399 20.399 0 0 1-7.828 11.699l-17.293 12.578a20.402 20.402 0 0 0-8.153 19.668l3.325 21.132a20.396 20.396 0 0 1-2.735 13.791l-11.157 18.295a20.4 20.4 0 0 0 0 21.241l11.154 18.292a20.402 20.402 0 0 1 2.735 13.793L74.078 259.3a20.396 20.396 0 0 0 8.152 19.669l17.287 12.574a20.4 20.4 0 0 1 7.828 11.7l5.034 20.805a20.4 20.4 0 0 0 15.03 15.031l20.806 5.035a20.399 20.399 0 0 1 11.699 7.828l12.576 17.292a20.403 20.403 0 0 0 19.668 8.153l21.132-3.325a20.395 20.395 0 0 1 13.792 2.735l18.296 11.155a20.4 20.4 0 0 0 21.241 0l18.292-11.154a20.402 20.402 0 0 1 13.793-2.735l21.126 3.325a20.398 20.398 0 0 0 19.669-8.152l1.592-2.189c-112.792-5.154-202.659-98.208-202.659-212.274z" fill="#e1a546"/><circle cx="256.006" cy="195.47" r="144.7" fill="#ffdc64"/><path d="M289.774 266.182c-53.255-8.497-95.99-51.232-104.487-104.487-2.993-18.765-1.775-36.857 2.784-53.577 2.25-8.249-7.553-14.557-14.066-9.018-30.363 25.818-48.399 65.67-43.947 109.578 5.972 58.91 53.822 106.759 112.731 112.731 43.908 4.452 83.761-13.583 109.578-43.947 5.538-6.514-.769-16.316-9.018-14.066-16.718 4.562-34.81 5.78-53.575 2.786z" fill="#ffc850"/><path d="M256 256.311l-52.64 29.466c-5.477 3.066-12.029-1.696-10.806-7.851l11.757-59.17-44.291-40.958c-4.608-4.262-2.105-11.965 4.127-12.704l59.907-7.103 25.267-54.779c2.628-5.699 10.729-5.699 13.358 0l25.267 54.779 59.907 7.103c6.232.739 8.735 8.442 4.127 12.704l-44.291 40.958 11.757 59.17c1.223 6.155-5.33 10.917-10.806 7.851L256 256.311z" fill="#fff"/><path d="M255.87 98.973c-2.637.047-5.257 1.437-6.549 4.238l-25.267 54.78-59.907 7.103c-6.232.739-8.735 8.442-4.127 12.703l44.291 40.959-11.757 59.17c-1.223 6.155 5.33 10.917 10.806 7.851l8.332-4.663 14.123-64.572a9.725 9.725 0 0 0-2.055-8.333l-14.96-17.797c-2.527-3.005-1.045-7.617 2.759-8.588l23.881-6.098a9.723 9.723 0 0 0 7.142-7.585l13.288-69.168zm61.227 185.821l-29.055-32.284a15.503 15.503 0 0 0-18.864-3.284L256 256.31l52.64 29.466c2.993 1.676 6.265.968 8.457-.982z" fill="#fffab4"/></svg>