<svg id="Слой_1" xmlns="http://www.w3.org/2000/svg" xmlns:xlink="http://www.w3.org/1999/xlink" viewBox="0 0 488.6 472.9"><style>.st0{fill:#f2f2f2}.st1{fill:#e6e6e6}.st2{fill:#a2e00a}.st3{fill:#89cc00}.st4{fill:#3b9c0d}.st5{fill:#fff}.st6{fill:#0071bc}.st15{fill:#ff9f24}.st18{fill:#f1bf89}.st19{fill:#d8a475}.st20{fill:#e5af7a}.st22{fill:#2e3d4c}.st23{fill:#40515e}.st25{fill:#ffdc00}.st26{fill:#feef00}.st27{fill:#ff9f25}</style><g id="Слой_2"><g id="Object"><path class="st0" d="M221.9 212.6h-3.5c-10.1 0-18.4 8.2-18.3 18.4 0 10.1 8.2 18.3 18.3 18.3h3.5c10.1 0 18.4-8.2 18.4-18.4 0-10-8.2-18.3-18.4-18.3z"/><path class="st0" d="M205.8 208.7c-1.1-5.2-6.1-8.5-11.3-7.5-.1 0-.2 0-.2.1l-27 5.7-.2-2.4 10.3-.8c5.7-.5 9.9-5.4 9.5-11.1-.5-5.7-5.4-9.9-11.1-9.5h-.4l-18.1 2c-1.7.2-3.4.5-5 .9.4-5.7-3.8-10.6-9.5-11.1-2.4-.2-4.8.5-6.8 1.9l-14.7 10.7c-6.2 4.5-10.9 10.8-13.6 18L0 212.7l5.2 78.8 1.8-.1c2.3 9.1 11.1 15 20.3 13.7l3.5-.5c8.2-1.1 14.6-7.6 15.6-15.8l21.3-1.4c-29.3 58-37.9 121-25.5 185.4h86.1c-13.9-52.7-8.8-102.7 15.3-149.3L137 320l9.6-12.7-9.6-5.5 14.6-.5c18.3-.7 34.9-10.9 43.8-26.9l9-16.3c2.1-3.9.7-8.8-3.2-10.9s-8.8-.7-10.9 3.2l-2.2 3.9c-3.3 5.8-9.6 9.3-16.2 8.9l-1-.1-2.5-36.9 30.1-6.2c5.1-1.2 8.3-6.2 7.3-11.3zm259.4-13.2L437 126.3l-116.2 47.4-30.4-15.3-35.5 70.5 54.6 27.6 2.5 6.1 5.4-2.2 86.7 43.7 35.6-70.5-32.8-16.5zM171.5 54.9c3.2-6.7.4-14.8-6.4-18l-1.2-.6 3.3-10.6L88.7 0 28.3 61.7l.9.8c-3.8 1-7.1 3.3-9.5 6.4l-2.2 2.8c-6.2 8-4.8 19.5 3.2 25.8 8 6.2 19.5 4.8 25.8-3.1l2.2-2.8c1.6-2 2.7-4.3 3.3-6.7l54.4 53.4c4 4 10 5.2 15.3 3.1l.4 1.4c2.4 9.8 12.4 15.9 22.2 13.4 9.8-2.4 15.9-12.4 13.4-22.2 0-.2-.1-.3-.1-.5l-.9-3.4c-1.4-5.4-5.2-9.9-10.3-12.1l9.7-9.9 11-11.2c5.5-5.6 5.4-14.7-.2-20.2l-3.8-3.7 7.8-16.3.6-1.8z"/><path class="st0" d="M344.8 302.4l-32.2-42.2c-4.1-5.4-11.9-6.5-17.3-2.4l-1.9 1.5-81.4 62.1c-1.3 1-2.4 2.3-3.2 3.7-.2.3-.4.7-.5 1.1-1.9 4.1-1.3 9 1.4 12.6l1.7 2.2 9 11.8 16.8 22.1c-5.9 4.8-8.3 12.7-5.9 20l1.1 3.4c3.2 9.7 13.5 14.9 23.2 11.8 9.7-3.2 14.9-13.5 11.8-23.2l-1.1-3.4c-.5-1.4-1.1-2.8-1.9-4.1l18.8-14.3 57.6-44 1.9-1.5c5.1-4.1 6.2-11.8 2.1-17.2zM85.1 140.7l-1.1-3.4c-3.1-9.6-13.5-14.9-23.1-11.8-9.6 3.1-14.9 13.5-11.8 23.1v.1c-1.8-.3-3.6-.3-5.4-.1l-3.5.5c-10 1.4-17.1 10.7-15.7 20.7 1.4 10 10.7 17.1 20.7 15.7l3.5-.5c10-1.4 17.1-10.6 15.7-20.7 10 1.8 19.5-4.9 21.3-14.9.6-2.8.4-5.9-.6-8.7z"/><path transform="rotate(-11.321 354.577 161.942)" class="st1" d="M290.6 160.9h128v2h-128z"/><path transform="rotate(-11.321 358.305 180.46)" class="st1" d="M294.3 179.5h128v2h-128z"/><path transform="rotate(-11.321 362.024 199.018)" class="st1" d="M298 198h128v2H298z"/><path class="st0" d="M447.8 375.2l-10.2 5.3-9-16.1-5 2.8c-9.8-19.4-12.1-47.8-12-55.7 0-.6.1-1.2.1-1.8.2-12.6-5.7-24.5-15.8-31.9l-14.7-10.7c-4.6-3.4-11.1-2.3-14.4 2.3-1.4 1.9-2.1 4.2-2 6.5v.3c-1.6-.4-3.3-.7-5-.9l-18.1-2c-5.7-.7-10.8 3.4-11.5 9.1-.7 5.7 3.4 10.8 9.1 11.5h.4l14.4 1.1c6.8.5 13.1 4.1 17.1 9.6-4.9-2.9-10.2-5-15.7-6.3l-32.8-6.9c-5.2-1.2-10.3 2-11.5 7.1 0 .1 0 .2-.1.3-1.1 5.1 2.2 10.2 7.3 11.3l34.7 7.2c5.8 1.3 10.5 5.4 12.5 11l.5 1.5c3.2 9-1.4 18.9-10.4 22.2-1.5.6-3.1.9-4.8 1l-5.9.4c-6.7.4-13-3-16.2-8.9l-2.2-3.9c-2.1-3.9-7-5.3-10.9-3.1-3.9 2.1-5.3 7-3.1 10.9l9 16.3c8.9 16 25.5 26.2 43.8 26.9l14.6.5-9.6 5.5 9.6 12.7-6.8 3.5c9.7 18.5 16.4 38.4 20.1 59h84.9c-4.3-34-14.5-67.1-30.4-97.6z"/><path class="st1" d="M288 180.5l25 61.2 12.1 4.9 105.3-42.9-105.5-42.3-34.9 14.2z"/><path transform="rotate(-22.172 378.833 182.064)" class="st2" d="M295.3 142.6h167.2v79H295.3z"/><path class="st3" d="M316.4 250.2l125-136.3L286.6 177z"/><path class="st4" d="M420.8 130.6l-107.9 44-16.3 6.6 6.6 16.3 10.7 26.3 6.6 16.3 16.3-6.6 107.9-44 16.3-6.6-6.6-16.3-10.7-26.3-6.6-16.3-16.3 6.6zm30.4 37.7c-5.7 3.9-8.6 10.8-7.4 17.6l-108.6 44.3c-3.9-5.7-10.8-8.6-17.6-7.4l-11-27c5.7-3.9 8.6-10.8 7.4-17.6l108.6-44.3c3.9 5.7 10.8 8.6 17.6 7.4l11 27z"/><ellipse transform="rotate(-22.172 378.826 182.061)" class="st4" cx="378.9" cy="182.1" rx="30" ry="29.9"/><path class="st5" d="M391.4 184.8c-.9-2.6-2.8-4.6-5.4-5.6-2.5-.9-5-1.5-7.6-2l-3.3-8.1c2.1 0 3.2 2.3 4.1 4.6l5.7-2.3c-1.3-2.9-3.7-9.7-11.9-7.2l-1.6-4-3.1 1.3 1.6 4c-5 2.6-6.4 6.5-4.4 11.5.7 1.7 2 3.2 3.5 4.3 2.5 1.5 5.5 2.1 8.4 2.6l4 9.7c-1.8-.1-3.1-1.8-4-4.2l-.8-1.9-5.9 2.4 1 2.3c2.1 5.2 5.8 8.1 11.8 6.4l1.6 4 3.1-1.3-1.6-4c4.9-2.4 7-7 4.8-12.5zm-20-11c-.6-1.1-.4-2.5.6-3.4l2.5 6.1c-1.5-.4-2.6-1.4-3.1-2.7zm13.1 18.7l-3.2-7.8c1.9.2 3.5 1.5 4.2 3.2.8 2 .5 3.5-1 4.6z"/><path transform="rotate(-63.263 352.168 228.838)" class="st2" d="M312.7 145.3h79v167.2h-79z"/><path class="st3" d="M259.8 226.5l184.8 4.7-149.3-75.3z"/><path class="st4" d="M418.5 226.7l-104.1-52.4-15.7-7.9-7.9 15.7-12.8 25.3-7.9 15.7 15.7 7.9 104.1 52.4 15.7 7.9 7.9-15.7 12.8-25.3 7.9-15.7-15.7-7.9zm-8.4 47.6c-6.7-1.8-13.8.6-18.2 6l-104.8-52.8c1.8-6.7-.6-13.8-6-18.2l13.1-26c6.7 1.8 13.8-.6 18.2-6l104.8 52.8c-1.8 6.7.6 13.8 6 18.2l-13.1 26z"/><ellipse transform="rotate(-63.263 352.166 228.833)" class="st4" cx="352.2" cy="228.8" rx="30" ry="29.9"/><path class="st5" d="M358.3 240c1.4-2.3 1.6-5.2.7-7.7-1-2.4-2.2-4.8-3.5-7l4-7.9c1.4 1.6.4 3.9-.7 6.1l5.5 2.8c1.4-2.9 4.8-9.2-2.4-13.7l2-3.9-3-1.5-2 3.9c-5.3-2.1-9.1-.5-11.6 4.3-.8 1.7-1.1 3.6-.9 5.4.5 2.9 2 5.5 3.5 8l-4.7 9.4c-1.1-1.5-.7-3.5.5-5.7l.9-1.8-5.8-2.8-1.1 2.3c-2.5 5-2.3 9.6 2.9 13.1l-2 3.9 3 1.5 1.9-3.9c5.3 2 10.1.6 12.8-4.8zm-4.8-22.3c.4-1.2 1.7-2 2.9-1.8l-3 5.9c-.6-1.3-.6-2.8.1-4.1zm-5.4 22.3l3.8-7.5c1 1.6 1.1 3.6.3 5.2-1 1.9-2.4 2.7-4.1 2.3z"/><path transform="rotate(-87.9 92.525 235.295) scale(.99997)" class="st2" d="M53 151.7h79v167.2H53z"/><path class="st3" d="M7.5 271.7l170-72.8-167.1-6.1z"/><path class="st4" d="M151.9 205.7l-116.4-4.3-17.6-.6-.7 17.6-1 28.3-.7 17.6 17.6.6 116.4 4.3 17.6.6.6-17.6 1-28.3.6-17.6-17.4-.6zm12.2 46.8c-6.8 1.2-12.3 6.3-14 13l-117.2-4.3c-1.2-6.8-6.3-12.3-13-14l1.1-29.1c6.8-1.2 12.3-6.3 14-13l117.2 4.3c1.2 6.8 6.3 12.3 13 14l-1.1 29.1z"/><ellipse transform="rotate(-87.9 92.511 235.28) scale(.99997)" class="st4" cx="92.5" cy="235.3" rx="30" ry="30"/><path class="st5" d="M102.8 242.9c.3-2.7-.7-5.4-2.6-7.3-1.9-1.8-3.9-3.4-6.1-4.9l.3-8.8c1.9.9 2 3.4 1.9 5.9l6.2.2c.1-3.2.6-10.4-7.9-11.5l.2-4.3-3.4-.1-.2 4.3c-5.7.3-8.5 3.3-8.7 8.7 0 1.9.5 3.7 1.5 5.3 1.7 2.4 4.1 4.1 6.6 5.8l-.4 10.5c-1.6-.9-2.1-2.9-1.9-5.4l.1-2-6.4-.2-.1 2.5c-.2 5.6 1.9 9.7 8.1 10.6l-.2 4.4 3.4.1.2-4.3c5.4-.3 9.1-3.5 9.4-9.5zm-13.7-18.2c-.1-1.3.7-2.5 1.9-2.9l-.2 6.6c-1.2-.9-1.8-2.3-1.7-3.7zm4.3 22.4l.3-8.4c1.6 1 2.5 2.8 2.4 4.6 0 2.2-.9 3.5-2.7 3.8z"/><path class="st1" d="M339.3 151.2l-1.1-3.3c-3.1-9.6-13.5-14.9-23.1-11.8-9.6 3.1-14.9 13.5-11.8 23.1l1.1 3.4c3.1 9.6 13.5 14.9 23.1 11.8 9.7-3.2 15-13.5 11.8-23.2z"/><path class="st6" d="M225 320l81.4-62.2c5.4-4.1 13.2-3.1 17.3 2.3l32.2 42.2c4.1 5.4 3.1 13.2-2.3 17.3l-81.4 62.2c-5.4 4.1-13.2 3.1-17.3-2.3l-32.2-42.2c-4.2-5.4-3.1-13.2 2.3-17.3z"/><path d="M223.1 321.4l81.4-62.2c5.4-4.1 13.2-3.1 17.3 2.3l32.2 42.2c4.1 5.4 3.1 13.2-2.3 17.3l-81.4 62.2c-5.4 4.1-13.2 3.1-17.3-2.3l-32.2-42.2c-4.1-5.3-3.1-13.1 2.3-17.3z" fill="#29abe2"/><path d="M314.7 257.1c-3.6-.8-7.3 0-10.2 2.2l-81.4 62.1c-5.4 4.1-6.5 11.9-2.3 17.3l32.2 42.2c1.9 2.6 4.8 4.3 8 4.7l53.7-128.5z" fill="#42bfea"/><path transform="rotate(-37.354 277.956 308.898)" fill="#333" d="M214.4 300.7h127.2V317H214.4z"/><path transform="rotate(-37.354 268.622 340)" class="st5" d="M235.5 334h66.2v12.1h-66.2z"/><ellipse transform="rotate(-37.354 332.145 311.242)" class="st6" cx="332.2" cy="311.2" rx="11.6" ry="11.6"/><ellipse transform="rotate(-37.354 319.691 320.736)" cx="319.7" cy="320.7" rx="11.6" ry="11.6" fill="#c1272d"/><path d="M176.4 36.8L100 0 39.8 61.9l101.3 48.6c6.7 3.2 14.8.4 18-6.4l23.7-49.2c3.2-6.8.4-14.8-6.4-18.1.1 0 0 0 0 0z" fill="#912310"/><path d="M39.8 61.9l101.3 48.6c6.7 3.2 14.8.4 18-6.4L182 56.4 89.6 10.6 39.8 61.9z" fill="#7f1c0e"/><path d="M178 76.5L100 0 39.5 61.7l78 76.5c5.6 5.5 14.7 5.4 20.2-.2l40.4-41.3c5.6-5.6 5.5-14.7-.1-20.2z" fill="#ba4120"/><path d="M123.1 64.7c-5.2-5.1-13.6-5-18.7.2s-5 13.6.2 18.7l44.1 43.3 18.5-18.9-44.1-43.3z" fill="#ce5029"/><ellipse transform="rotate(-45.571 113.806 74.117)" class="st15" cx="113.8" cy="74.1" rx="8.8" ry="8.8"/><path class="st2" d="M170.7 50.8l7.9-25.2L100 0l32.5 31.9 16.7 8.3z"/><path class="st4" d="M165.1 48l5.6-18-60.9-20.4 7.3 7.1 36 12.1c-.2 3.2.8 9.3 9.3 13.3l-1.2 3.9 3.9 2z"/><path transform="rotate(-45.571 74.634 35.63)" fill="#ad391e" d="M31.5 28.8h86.4v13.7H31.5z"/><defs><path id="SVGID_1_" d="M-3.5-27.1h500v500h-500z"/></defs><clipPath id="SVGID_2_"><use xlink:href="#SVGID_1_" overflow="visible"/></clipPath><g clip-path="url(#SVGID_2_)"><path class="st18" d="M139.9 232.9c0-.6-1.4-8-2.7-15.4-1.6-9.1 2.2-18.4 9.9-23.6l11.9-8.1c4.6-3.1 5.9-9.3 3-14-3-4.9-9.3-6.4-14.2-3.4-.2.1-.5.3-.7.4l-14.7 10.7c-11.8 8.5-17.7 23-15.5 37.3l7 45 16-28.9z"/><path class="st18" d="M139.9 232.9c0-.6-1.4-8-2.7-15.4-1.6-9.1 2.2-18.4 9.9-23.6l11.9-8.1c4.6-3.1 5.9-9.3 3-14-3-4.9-9.3-6.4-14.2-3.4-.2.1-.5.3-.7.4l-14.7 10.7c-11.8 8.5-17.7 23-15.5 37.3l7 45 16-28.9z"/><path class="st19" d="M163.5 177.8h-.2c-17.6.4-32.8 13.2-35.4 30.7-.1.4-.1.9-.2 1.3l-5 44 .2.9 11.5-11.9 5.5-9.9c0-.6-1.4-8-2.7-15.4-.2-1.1-.3-2.3-.4-3.4v-1.7c0-.6.1-1.1.1-1.7.8-6.8 4.5-12.9 10.1-16.7l11.9-8.1c2.8-1.9 4.5-4.9 4.6-8.1z"/><path class="st18" d="M148.6 227.1c.3-.6 2.8-7.6 5.3-14.7 3.1-8.8 11-14.9 20.3-15.6l14.4-1.1c5.5-.4 9.7-5.1 9.5-10.6-.2-5.7-4.9-10.2-10.6-10.1-.3 0-.6 0-.8.1l-18.1 2c-14.4 1.6-26.7 11.2-31.9 24.7l-16.1 42.5 28-17.2z"/><path class="st18" d="M212.5 239.5c-3.8-2.2-8.7-.9-10.9 3l-2.2 3.9c-3.3 5.8-9.6 9.3-16.2 8.9l-5.9-.4c-9.5-.6-16.8-8.8-16.2-18.4.1-1.6.4-3.2 1-4.8l.5-1.5c2-5.6 6.7-9.7 12.5-11l34.7-7.2c5.1-1.1 8.4-6.2 7.3-11.3-1.1-5.2-6.1-8.5-11.3-7.5-.1 0-.2 0-.3.1l-32.8 6.9c-11 2.6-21 8.4-28.6 16.7l-9.3-8.8s-4.1 11.2-9.8 24.4l-8.5-21.1c.6 3.6-1.1 37.7-12.8 59.2l34.5 32.2 7.8-8.9 16.9-.6c18.3-.7 34.9-10.9 43.8-26.9l9-16.3c2-3.8.6-8.5-3.2-10.6z"/><path class="st20" d="M130.7 295.9l-5.2-4.9 12.7 11.9 7.8-8.9s-9.6-1.1-15.3 1.9z"/><path fill="#ccc" d="M88.5 286l11.1-19.8 58.3 33.2-17.7 23.4z"/><path class="st0" d="M124.6 311.7l15.6 11.1 17.7-23.4-19.9-11.3z"/><path class="st22" d="M155.4 658.9c-1.8-1.8-44.9-46-75.7-113.6-42.3-92.8-42.1-185.6.7-268.3l74.6 38.6c-31 59.8-30.6 125.4 1.1 194.8 24.4 53.4 58.8 89.2 59.2 89.6l-59.9 58.9z"/><path class="st23" d="M215.3 600c-.3-.3-34.8-36.2-59.2-89.6-31.7-69.4-32.1-135-1.1-194.8l-25.6-13.2c-42.8 82.7-37 171 5.4 263.8 11.8 25.6 26 49.9 42.4 72.8l38.1-39z"/><path class="st18" d="M396.9 322.9c0-.6 1.4-8 2.7-15.4 1.6-9.1-2.2-18.4-9.9-23.6l-11.9-8.1c-4.6-3.1-5.9-9.3-3-14 3-4.9 9.3-6.4 14.2-3.4.2.1.5.3.7.4l14.7 10.7c11.8 8.5 17.7 23 15.5 37.3l-7 45-16-28.9z"/><path class="st18" d="M396.9 322.9c0-.6 1.4-8 2.7-15.4 1.6-9.1-2.2-18.4-9.9-23.6l-11.9-8.1c-4.6-3.1-5.9-9.3-3-14 3-4.9 9.3-6.4 14.2-3.4.2.1.5.3.7.4l14.7 10.7c11.8 8.5 17.7 23 15.5 37.3l-7 45-16-28.9z"/><path class="st19" d="M373.2 267.8h.2c17.6.4 32.8 13.2 35.4 30.6.1.4.1.9.2 1.3l5 44-.1.9-11.5-11.9-5.5-9.9c0-.6 1.4-8 2.7-15.4.2-1.1.3-2.3.4-3.4v-1.7c0-.6-.1-1.1-.1-1.7-.8-6.8-4.5-12.9-10.1-16.7l-11.9-8.1c-2.9-1.8-4.5-4.7-4.7-8z"/><path class="st18" d="M388.2 317.2c-.3-.6-2.8-7.6-5.3-14.7-3.1-8.7-11-14.8-20.3-15.6l-14.4-1.1c-5.5-.4-9.7-5.1-9.5-10.6.2-5.7 4.9-10.2 10.6-10.1.3 0 .6 0 .8.1l18.1 2c14.4 1.6 26.7 11.1 31.9 24.7l16.1 42.6-28-17.3z"/><path class="st18" d="M324.3 329.5c3.8-2.2 8.7-.9 10.9 3l2.2 3.9c3.3 5.8 9.6 9.3 16.2 8.9l5.9-.4c9.5-.6 16.8-8.8 16.2-18.4-.1-1.6-.4-3.2-1-4.8l-.5-1.5c-2-5.6-6.7-9.7-12.5-11L327 302c-5.1-1.1-8.4-6.2-7.3-11.3 1.1-5.2 6.1-8.5 11.3-7.5.1 0 .2 0 .2.1l32.8 6.9c11 2.6 21 8.4 28.6 16.7l9.3-8.8s4.1 11.2 9.9 24.4l8.5-21.1c-.6 3.6 1.1 37.7 12.8 59.2l-34.5 32.1-7.8-8.9-16.9-.6c-18.3-.7-34.9-10.9-43.8-26.9l-9-16.3c-2-3.7-.6-8.4 3.2-10.5z"/><path class="st20" d="M406.1 385.9l5.3-4.9-12.7 11.9-7.8-8.9c-.1 0 9.5-1.1 15.2 1.9z"/><path class="st0" d="M448.2 376l-11-19.8-58.3 33.2 17.7 23.4z"/><path fill="#b3b3b3" d="M412.1 401.7l-15.5 11.1-17.7-23.4 21.8-12.4z"/><path class="st22" d="M381.3 749c1.8-1.8 44.9-46 75.7-113.6 42.4-92.8 42.1-185.6-.7-268.3l-74.6 38.6c31 59.8 30.6 125.4-1.1 194.8-24.4 53.4-58.8 89.2-59.2 89.6l59.9 58.9z"/><path class="st23" d="M426.8 631.7c39.8-87.1 42-174.2 6.7-252.9l22.8-11.8c42.8 82.7 43.1 175.5.7 268.3-30.9 67.6-73.9 111.8-75.7 113.6l-17.8-17.5c25.5-30.2 46.8-63.8 63.3-99.7z"/></g><path class="st15" d="M227.4 244c10.1 0 18.4-8.2 18.4-18.4 0-10.1-8.2-18.4-18.4-18.4h-3.5V244h3.5z"/><circle class="st25" cx="223.8" cy="225.6" r="18.4"/><circle class="st26" cx="223.8" cy="225.6" r="13.4"/><path class="st27" d="M213.4 225.6c0-6.8 5.1-12.6 11.9-13.4-7.4-.9-14 4.4-14.9 11.8-.9 7.4 4.4 14 11.8 14.9 1 .1 2.1.1 3.1 0-6.7-.7-11.9-6.4-11.9-13.3z"/><path class="st15" d="M229.4 229.4c.1-1.3-.4-2.5-1.3-3.3-.9-.8-1.9-1.5-2.9-2.1v-4c.9.4 1 1.5 1 2.7h2.9c0-1.5.1-4.8-3.8-5.2v-2h-1.6v2c-2.6.2-3.9 1.7-3.9 4.1 0 .9.3 1.7.8 2.4.9 1 1.9 1.9 3.1 2.6v4.8c-.8-.4-1-1.3-1-2.5v-.9h-3v1.2c0 2.6 1.1 4.5 3.9 4.8v2h1.6v-2c2.3.1 4.3-1.8 4.4-4.1-.2-.2-.2-.4-.2-.5zm-6.6-8.2c-.1-.6.3-1.1.8-1.3v3c-.6-.4-.9-1.1-.8-1.7zm2.3 10.3v-3.9c.7.4 1.2 1.2 1.2 2.1.1.8-.4 1.6-1.2 1.8zm-187.4 67c10-1.4 17.1-10.7 15.7-20.7-1.4-10-10.7-17.1-20.7-15.7l-3.5.5 5.1 36.4 3.4-.5z"/><ellipse transform="rotate(-7.932 31.674 280.734)" class="st25" cx="31.7" cy="280.8" rx="18.4" ry="18.4"/><ellipse transform="rotate(-7.932 31.674 280.734)" class="st26" cx="31.7" cy="280.8" rx="13.4" ry="13.4"/><path class="st27" d="M21.4 282.3c-.9-6.8 3.4-13.2 10-14.9-7.4.3-13.2 6.5-13 13.9.3 7.4 6.5 13.2 13.9 13 .9 0 1.8-.2 2.7-.4-6.8.1-12.7-4.9-13.6-11.6z"/><path class="st15" d="M37.7 283.8c-.1-1.2-.7-2.4-1.8-3.1-1-.7-2.1-1.2-3.2-1.7l-.6-4c1 .3 1.2 1.4 1.3 2.5l2.8-.4c-.2-1.5-.6-4.7-4.5-4.6l-.3-2-1.5.2.3 2c-2.5.6-3.6 2.2-3.3 4.6.1.9.5 1.7 1.1 2.3 1 .9 2.2 1.6 3.5 2.1l.7 4.8c-.8-.3-1.2-1.1-1.3-2.3l-.1-.9-2.9.4.2 1.1c.4 2.5 1.7 4.3 4.5 4.2l.3 2 1.5-.2-.3-2c2.3-.3 3.9-2.5 3.6-4.8v-.2zm-7.7-7.2c-.2-.6.1-1.2.6-1.5l.4 3c-.5-.3-.9-.9-1-1.5zm3.8 9.8l-.5-3.8c.8.3 1.4 1.1 1.5 1.9.1.8-.3 1.6-1 1.9zm25-135.6c3.1 9.6 13.5 14.9 23.1 11.8s14.9-13.5 11.8-23.1l-1.1-3.4-34.9 11.4 1.1 3.3z"/><ellipse transform="rotate(-18.01 75.16 141.763)" class="st25" cx="75.2" cy="141.8" rx="18.4" ry="18.4"/><ellipse transform="rotate(-18.01 75.16 141.763)" class="st26" cx="75.2" cy="141.8" rx="13.4" ry="13.4"/><path class="st27" d="M72 131.9c6.5-2.1 13.6 1 16.4 7.2-1.5-7.3-8.6-12-15.9-10.5-7.3 1.5-12 8.6-10.5 15.9.2 1 .5 2 .9 2.9-1.3-6.8 2.6-13.4 9.1-15.5z"/><path class="st15" d="M73.3 148.2c1.2-.3 2.2-1.2 2.7-2.3.5-1.1.9-2.3 1.2-3.4l3.9-1.3c-.1 1-1.1 1.4-2.2 1.8l.9 2.7c1.4-.5 4.6-1.4 3.7-5.2l1.9-.6-.5-1.5-1.9.6c-1-2.4-2.8-3.2-5.2-2.4-.8.3-1.5.8-2.1 1.5-.7 1.2-1.2 2.4-1.5 3.8l-4.6 1.5c.1-.8.9-1.4 2.1-1.7l.9-.3-.9-2.8-1.1.4c-2.4.8-3.9 2.4-3.3 5.2l-1.9.6.5 1.5 1.9-.6c.7 2.2 3.1 3.5 5.3 2.7 0-.1.1-.2.2-.2zm5.8-8.8c.5-.3 1.2-.1 1.6.4l-2.9.9c.1-.7.6-1.2 1.3-1.3zm-9 5.4l3.7-1.2c-.2.8-.8 1.5-1.6 1.8-.8.4-1.7.1-2.1-.6zm240.3 13.8c3.1 9.6 13.5 14.9 23.1 11.8 9.6-3.1 14.9-13.5 11.8-23.1l-1.1-3.4-34.9 11.4 1.1 3.3z"/><ellipse transform="rotate(-18.01 326.769 149.644)" class="st25" cx="326.8" cy="149.7" rx="18.4" ry="18.4"/><ellipse transform="rotate(-18.01 326.769 149.644)" class="st26" cx="326.8" cy="149.7" rx="13.4" ry="13.4"/><path class="st27" d="M323.5 139.7c6.5-2.1 13.6 1 16.4 7.2-1.5-7.3-8.6-12-15.9-10.5-7.3 1.5-12 8.6-10.5 15.9.2 1 .5 2 .9 2.9-1.2-6.7 2.6-13.4 9.1-15.5z"/><path class="st15" d="M324.9 156c1.2-.3 2.2-1.2 2.7-2.3.5-1.1.9-2.3 1.1-3.4l3.9-1.3c-.1 1-1.1 1.4-2.2 1.8l.9 2.7c1.4-.5 4.6-1.4 3.7-5.2l1.9-.6-.5-1.5-1.9.6c-1-2.4-2.8-3.2-5.1-2.4-.8.3-1.5.8-2.1 1.5-.7 1.2-1.2 2.4-1.5 3.8l-4.6 1.5c.1-.8.9-1.4 2-1.7l.9-.3-.9-2.8-1.1.4c-2.5.8-3.9 2.4-3.3 5.2l-1.9.6.5 1.5 1.9-.6c.7 2.2 3.1 3.5 5.3 2.7.1-.1.2-.1.3-.2zm5.8-8.8c.5-.3 1.2-.1 1.5.4l-2.9.9c.2-.6.7-1.1 1.4-1.3zm-9 5.5l3.7-1.2c-.2.8-.8 1.5-1.6 1.8-.8.3-1.7.1-2.1-.6zM165 126.9c-2.7-9.8-12.8-15.5-22.6-12.8-9.6 2.6-15.3 12.4-13 22.1l.9 3.4 35.5-9.3-.8-3.4z"/><ellipse transform="rotate(-14.602 148.133 134.88)" class="st25" cx="148.1" cy="134.9" rx="18.4" ry="18.4"/><ellipse transform="rotate(-14.602 148.133 134.88)" class="st26" cx="148.1" cy="134.9" rx="13.4" ry="13.4"/><path class="st27" d="M150.7 144.9c-6.6 1.7-13.5-1.8-15.9-8.2 1 7.3 7.8 12.5 15.2 11.4 7.3-1 12.5-7.8 11.4-15.2-.1-1-.4-2-.8-3 1 6.9-3.3 13.3-9.9 15z"/><path class="st15" d="M150.3 128.6c-1.2.2-2.3 1-2.9 2.1-.5 1.1-1 2.2-1.4 3.4l-3.9 1c.1-1 1.2-1.3 2.3-1.6l-.7-2.8c-1.4.4-4.6 1.1-4 5l-1.9.5.4 1.5 1.9-.5c.9 2.5 2.6 3.3 5 2.7.8-.2 1.6-.7 2.2-1.4.8-1.1 1.4-2.4 1.7-3.7l4.7-1.2c-.2.8-1 1.3-2.1 1.6l-.9.2.8 2.9 1.1-.3c2.5-.6 4-2.1 3.6-5l1.9-.5-.4-1.5-1.9.5c-.6-2.3-2.9-3.6-5.2-3-.1 0-.2 0-.3.1zm-6.2 8.5c-.6.2-1.2 0-1.5-.5l2.9-.8c-.3.6-.8 1.1-1.4 1.3zm9.3-4.9l-3.8 1c.2-.8.9-1.5 1.7-1.7.8-.3 1.7-.1 2.1.7zM53.5 90.1c6.2-8 4.8-19.5-3.2-25.8-8-6.2-19.5-4.8-25.8 3.2l-2.2 2.8 28.9 22.6 2.3-2.8z"/><ellipse transform="rotate(-51.941 36.84 81.557)" class="st25" cx="36.8" cy="81.6" rx="18.4" ry="18.4"/><ellipse transform="rotate(-51.941 36.84 81.557)" class="st26" cx="36.8" cy="81.6" rx="13.4" ry="13.4"/><path class="st27" d="M30.4 89.8C25 85.5 23.7 78 27.3 72.1c-5.3 5.2-5.3 13.8 0 19 5.2 5.3 13.8 5.3 19 0 .8-.8 1.4-1.6 2-2.6-4.8 4.9-12.5 5.4-17.9 1.3z"/><path class="st15" d="M43.2 79.5c-.9-.8-2.2-1.2-3.4-1-1.2.2-2.3.6-3.5 1L33.1 77c.9-.5 1.8.2 2.7.9l1.7-2.3c-1.2-.9-3.7-3-6.4-.2l-1.6-1.2-1 1.2 1.6 1.2c-1.4 2.2-1.1 4.1.9 5.6.7.5 1.5.8 2.4.9 1.4-.1 2.7-.4 4-.9l3.8 3c-.8.4-1.7 0-2.5-.8l-.8-.4-1.8 2.3.9.7c2 1.6 4.2 1.9 6.2-.2l1.6 1.2 1-1.2-1.6-1.2c1.4-1.8 1.1-4.5-.7-6-.1 0-.2 0-.3-.1zm-10.5.2c-.5-.3-.7-.9-.5-1.5l2.4 1.9c-.7.1-1.4 0-1.9-.4zm9.5 4.4l-3-2.4c.8-.3 1.7-.2 2.4.4.7.4 1 1.3.6 2zm386 132.6c8.3-5.9 10.2-17.3 4.3-25.6-5.8-8.1-17-10.1-25.3-4.5l-2.9 2 21 30.1 2.9-2z"/><ellipse transform="rotate(-34.805 414.236 204.405)" class="st25" cx="414.3" cy="204.4" rx="18.3" ry="18.3"/><ellipse transform="rotate(-34.888 414.831 203.631)" class="st26" cx="414.8" cy="203.6" rx="13.4" ry="13.4"/><path class="st27" d="M406.3 209.6c-3.9-5.6-3-13.3 2.1-17.8-6.5 3.5-9 11.7-5.4 18.2s11.7 9 18.2 5.4c.9-.5 1.8-1.1 2.5-1.8-6 3.4-13.5 1.6-17.4-4z"/><path class="st15" d="M421.5 203.5c-.6-1.1-1.7-1.8-3-2-1.2-.1-2.4-.2-3.6-.1l-2.4-3.3c1-.2 1.7.7 2.3 1.6l2.3-1.6c-.9-1.2-2.7-4-6.1-2l-1.1-1.6-1.3.9 1.1 1.6c-2 1.7-2.2 3.6-.8 5.6.5.7 1.2 1.2 2 1.6 1.3.3 2.7.4 4 .3l2.8 4c-.8.1-1.6-.5-2.2-1.5l-.5-.8-2.4 1.6.7 1c1.5 2.1 3.4 3 5.9 1.7l1.1 1.6 1.3-.9-1.1-1.6c1.9-1.3 2.4-4 1.1-5.9.1 0 0-.1-.1-.2zm-10.1-2.9c-.4-.4-.4-1.1-.1-1.6l1.7 2.5c-.6 0-1.2-.3-1.6-.9zm7.9 7.1l-2.2-3.2c.8-.1 1.7.3 2.2 1 .5.6.5 1.6 0 2.2zM239.2 393.2c3.3 9.6 13.8 14.6 23.4 11.3 9.3-3.2 14.4-13.2 11.5-22.6l-1.1-3.4-34.9 11.4 1.1 3.3z"/><ellipse transform="rotate(-18.01 255.553 384.192)" class="st25" cx="255.6" cy="384.2" rx="18.4" ry="18.4"/><ellipse transform="rotate(-18.071 255.663 383.608)" class="st26" cx="255.6" cy="383.6" rx="13.4" ry="13.4"/><path class="st27" d="M252.4 374.3c6.5-2.1 13.6 1 16.4 7.2-.1-.5-.2-1-.4-1.5-2.3-7.1-9.8-11-16.9-8.7-7.1 2.3-11 9.8-8.7 16.9.2.5.4 1.1.6 1.6-1.4-6.7 2.5-13.4 9-15.5z"/><path class="st15" d="M253.7 390.6c1.2-.3 2.2-1.2 2.7-2.3.5-1.1.9-2.3 1.1-3.4l3.9-1.3c-.1 1-1.1 1.4-2.2 1.8l.9 2.7c1.4-.5 4.6-1.4 3.7-5.2l1.9-.6-.5-1.5-1.9.6c-1-2.4-2.8-3.2-5.1-2.4-.8.3-1.5.8-2.1 1.5-.7 1.2-1.2 2.4-1.5 3.8l-4.6 1.5c.1-.8.9-1.4 2.1-1.7l.9-.3-.9-2.8-1.1.4c-2.4.8-3.9 2.4-3.3 5.2l-1.9.6.5 1.5 1.9-.6c.7 2.2 3.1 3.5 5.3 2.7 0-.1.1-.2.2-.2zm5.8-8.8c.5-.3 1.2-.1 1.5.4l-2.9.9c.2-.6.7-1.1 1.4-1.3zm-9 5.4l3.7-1.2c-.2.8-.8 1.5-1.6 1.8-.8.4-1.7.1-2.1-.6zM57.4 183.9c10-1.4 17.1-10.7 15.7-20.7-1.4-10-10.7-17.1-20.7-15.7l-3.5.5 5.1 36.4 3.4-.5z"/><ellipse transform="rotate(-7.932 51.378 166.132)" class="st25" cx="51.4" cy="166.2" rx="18.4" ry="18.4"/><ellipse transform="rotate(-7.932 51.378 166.132)" class="st26" cx="51.4" cy="166.2" rx="13.4" ry="13.4"/><path class="st27" d="M41.1 167.6c-.9-6.8 3.4-13.2 10-14.9-7.4.2-13.3 6.3-13.1 13.8.2 7.4 6.3 13.3 13.8 13.1 1 0 2-.2 3-.4-6.9.2-12.8-4.8-13.7-11.6z"/><path class="st15" d="M57.4 169.1c-.1-1.2-.7-2.4-1.8-3.1-1-.7-2.1-1.2-3.2-1.7l-.6-4c1 .3 1.2 1.4 1.3 2.5l2.8-.4c-.2-1.5-.6-4.7-4.5-4.6l-.3-2-1.5.2.3 2c-2.5.6-3.6 2.2-3.3 4.6.1.9.5 1.7 1.1 2.3 1 .9 2.2 1.6 3.4 2.1l.7 4.8c-.8-.3-1.2-1.1-1.3-2.3l-.1-.9-2.9.4.2 1.1c.4 2.6 1.7 4.3 4.5 4.2l.3 2 1.5-.2-.3-2c2.3-.3 3.9-2.5 3.6-4.8.1 0 .1-.1.1-.2zm-7.7-7.2c-.2-.6.1-1.2.6-1.5l.4 3c-.5-.2-.9-.8-1-1.5zm3.8 9.9L53 168c.8.3 1.4 1.1 1.5 1.9.1.8-.3 1.6-1 1.9z"/></g></g></svg>