<svg xmlns="http://www.w3.org/2000/svg" viewBox="0 0 512 512"><g fill="#e65f58"><circle cx="250.74" cy="31.152" r="13.351"/><circle cx="161.733" cy="75.655" r="13.351"/><path d="M339.802 365.739c2.828-8.675 4.402-17.908 4.402-27.515a8.901 8.901 0 0 1 17.802 0c0 14.661-2.978 28.64-8.347 41.372l20.904 20.904c8.969-17.249 14.145-36.629 14.145-57.191 0-29.831-24.073-74.523-52.259-116.649l-67.863 67.863 71.216 71.216zM174.598 225.707c-28.465 42.41-52.909 87.554-52.909 117.602 0 20.984 5.364 40.749 14.68 58.258l107.045-107.044-68.816-68.816zm80.6 219.325a8.901 8.901 0 0 1 0-17.802c32.719 0 61.293-17.795 76.758-44.165L256 307.109 146.063 417.046c24.184 33.019 64.047 54.688 109.135 54.688 45.508 0 85.724-22.051 109.836-55.59l-20.141-20.142c-19.037 29.451-52.094 49.03-89.695 49.03zm71.024-233.318c-28.191-40.269-58.043-76.112-71.024-91.303-12.874 15.071-42.358 50.481-70.355 90.369L256 281.937l70.222-70.223z"/></g><g fill="#314e55"><path d="M387.754 413.691c11.928-20.896 18.755-44.877 18.755-70.382 0-34.388-26.75-84.022-57.257-129.453L472.29 90.819a8.897 8.897 0 0 0 0-12.586 8.897 8.897 0 0 0-12.586 0l-120.71 120.71c-36.233-51.633-74.108-94.625-77.133-98.037-3.381-3.816-9.944-3.816-13.325 0-3.007 3.392-40.441 45.881-76.473 97.094L52.295 78.233a8.897 8.897 0 0 0-12.586 0 8.897 8.897 0 0 0 0 12.586l122.083 122.084c-30.774 45.69-57.906 95.776-57.906 130.407 0 25.918 7.086 50.235 19.374 71.366l-82.131 82.131a8.897 8.897 0 0 0 0 12.586c1.738 1.738 4.016 2.608 6.293 2.608s4.555-.869 6.293-2.608l79.685-79.685c27.57 36.197 71.826 59.828 121.796 59.828 50.389 0 94.981-24.018 122.496-60.731l80.589 80.588a8.874 8.874 0 0 0 6.293 2.608 8.87 8.87 0 0 0 6.293-2.608 8.897 8.897 0 0 0 0-12.586l-83.113-83.116zm.954-70.382c0 20.562-5.176 39.942-14.145 57.191l-20.904-20.904c5.37-12.732 8.347-26.711 8.347-41.372a8.901 8.901 0 0 0-17.802 0c0 9.607-1.574 18.84-4.402 27.515l-71.216-71.216 67.863-67.863c28.186 42.126 52.259 86.818 52.259 116.649zm-133.51-222.898c12.982 15.191 42.833 51.034 71.024 91.303L256 281.937l-71.157-71.157c27.997-39.888 57.481-75.298 70.355-90.369zm-133.51 222.898c0-30.048 24.445-75.193 52.909-117.602l68.816 68.816-107.044 107.045c-9.317-17.509-14.681-37.275-14.681-58.259zm133.51 128.425c-45.088 0-84.95-21.669-109.135-54.688L256 307.109l75.957 75.957c-15.466 26.37-44.04 44.165-76.758 44.165a8.901 8.901 0 0 0 0 17.802c37.601 0 70.658-19.579 89.695-49.03l20.141 20.142c-24.113 33.538-64.329 55.589-109.837 55.589z"/><path d="M161.741 106.808c17.176 0 31.152-13.977 31.152-31.152s-13.977-31.152-31.152-31.152-31.152 13.977-31.152 31.152 13.977 31.152 31.152 31.152zm0-44.503c7.362 0 13.351 5.989 13.351 13.351s-5.989 13.351-13.351 13.351-13.351-5.989-13.351-13.351c0-7.363 5.989-13.351 13.351-13.351zm89.007 0c17.176 0 31.152-13.977 31.152-31.152S267.923 0 250.748 0s-31.152 13.977-31.152 31.152 13.976 31.153 31.152 31.153zm0-44.504c7.362 0 13.351 5.989 13.351 13.351s-5.989 13.351-13.351 13.351c-7.362 0-13.351-5.989-13.351-13.351s5.989-13.351 13.351-13.351z"/></g></svg>