<svg xmlns="http://www.w3.org/2000/svg" viewBox="0 0 509.287 509.287"><circle cx="254.644" cy="254.644" r="254.644" fill="#ffb74a"/><circle cx="254.644" cy="254.644" r="234.299" fill="#f8fa95"/><path d="M285.499 226.501l138.342-79.682c7.46-4.408 9.494-14.241 4.408-21.362-34.585-46.453-87.481-78.326-148.175-85.446-8.477-1.017-16.276 5.764-16.276 14.58v159.703c-.338 10.85 11.868 17.971 21.701 12.207zm8.816 40.688l138.342 79.682c7.46 4.408 17.293 1.017 20.683-6.781 11.189-26.109 17.632-55.269 17.632-85.446 0-30.517-6.442-59.338-17.632-85.446-3.391-7.799-13.224-11.189-20.683-6.781l-138.342 79.682c-9.833 5.424-9.833 19.665 0 25.09zm-48.487-53.234V54.591c0-8.816-7.46-15.597-16.276-14.58-60.355 7.121-113.25 38.993-148.175 85.446-5.086 7.121-3.391 16.954 4.408 21.362l138.342 79.682c9.494 5.764 21.701-1.357 21.701-12.546zm17.632 81.377v159.703c0 8.816 7.46 15.597 16.276 14.58 60.355-7.121 113.25-38.993 148.175-85.446 5.086-7.121 3.391-16.954-4.408-21.362L285.5 282.786c-9.834-5.764-22.04 1.357-22.04 12.546zm-39.672-12.545L85.446 362.469c-7.46 4.408-9.494 14.241-4.408 21.362 34.585 46.453 87.481 78.326 148.175 85.446 8.477 1.017 16.276-5.764 16.276-14.58V295.332c.339-11.189-11.868-18.31-21.701-12.545zm-8.816-40.689L76.63 162.416c-7.46-4.408-17.293-1.017-20.683 6.781-11.189 26.109-17.632 55.269-17.632 85.446 0 30.517 6.442 59.338 17.632 85.446 3.391 7.799 13.224 11.189 20.683 6.781l138.342-79.682c9.833-5.424 9.833-19.665 0-25.09z" fill="#ffb03a"/><path d="M321.441 431.979s4.408-18.988-9.155-33.907c-13.902-14.919-12.885-25.77-12.885-25.77s-6.781 9.494 3.73 28.482c5.086 9.155 21.023 22.379 18.31 31.195zm80.36-32.212s-3.391-19.327-22.04-27.126c-18.649-8.138-22.04-18.649-22.04-18.649s-2.374 11.528 14.58 24.413c8.478 6.443 28.144 12.207 29.5 21.362zm-92.228-19.666s3.391-19.327-11.528-33.229c-14.58-13.902-14.241-25.091-14.241-25.091s-6.103 9.833 5.425 28.143c5.764 9.154 22.379 21.022 20.344 30.177zm.679-59.677s0-11.528-9.833-18.31c-9.833-6.781-10.85-13.224-10.85-13.224s-2.713 6.442 5.764 15.936c4.746 4.747 15.258 10.173 14.919 15.598zm.678 133.595s3.73-10.85-3.052-20.344c-7.121-9.494-5.764-15.936-5.764-15.936s-4.408 5.086.339 16.954c2.374 5.763 10.85 14.239 8.477 19.326zm67.814-28.822s-1.017-11.528-11.528-16.954c-10.511-5.764-11.868-11.868-11.868-11.868s-2.034 6.442 7.46 14.919c4.408 4.409 15.936 8.478 15.936 13.903zm-39.671 15.937s3.052-11.189-4.747-20.005c-7.799-8.816-7.121-15.597-7.121-15.597s-4.069 5.425 1.695 16.615c2.713 5.763 11.868 13.562 10.173 18.987zm-11.19-78.665s3.052-11.189-4.747-20.005c-7.799-8.816-7.121-15.597-7.121-15.597s-4.069 5.425 1.695 16.615c2.714 6.102 11.869 13.901 10.173 18.987zM285.499 460.8s11.528-15.936 4.408-34.925c-7.121-18.988-2.034-28.821-2.034-28.821s-9.833 6.442-7.46 27.465c1.357 11.19 10.851 29.16 5.086 36.281zm71.206-27.126s2.374-19.327-12.885-32.551c-15.258-13.224-15.597-24.413-15.597-24.413s-5.425 10.172 6.781 27.804c6.103 8.816 23.396 20.005 21.701 29.16zm63.067-49.844s-4.747-18.988-24.074-25.77c-18.988-6.781-23.396-16.954-23.396-16.954s-1.356 11.529 16.276 23.396c9.494 5.766 29.499 9.834 31.194 19.328zm-110.538-25.769s4.408-18.988-9.155-33.907c-13.902-14.919-12.885-25.77-12.885-25.77s-6.781 9.494 3.73 28.482c5.087 9.494 21.023 22.379 18.31 31.195zm-35.263 30.177s11.189-15.936 3.73-34.924c-7.46-18.988-2.374-28.821-2.374-28.821s-9.833 6.442-6.781 27.804c1.017 10.85 11.189 28.482 5.425 35.941zm100.026 12.885s-2.034-19.327-20.005-28.821-20.683-20.005-20.683-20.005-3.052 11.189 12.885 25.43c8.137 7.46 27.464 14.241 27.803 23.396zm-12.545-50.183s-3.73-18.988-22.379-27.126c-18.649-7.799-22.379-18.31-22.379-18.31s-2.034 11.528 14.919 24.413c8.816 6.443 28.482 11.529 29.839 21.023zm-172.928 85.108s-4.408-18.988 9.155-33.907c13.902-14.919 12.885-25.77 12.885-25.77s6.781 9.494-3.73 28.482c-5.086 9.494-21.022 22.379-18.31 31.195zm-80.36-32.212s3.391-19.327 22.04-27.126c18.649-8.138 22.04-18.649 22.04-18.649s2.374 11.529-14.58 24.413c-8.477 6.782-28.143 12.207-29.5 21.362zm92.228-19.327s-3.391-19.327 11.528-33.229c14.58-13.902 14.241-25.091 14.241-25.091s6.103 9.833-5.425 28.143c-5.764 9.154-22.378 21.022-20.344 30.177zm-.678-59.677s0-11.529 9.833-18.31c9.833-6.781 10.85-13.224 10.85-13.224s2.713 6.442-5.764 15.936c-4.747 4.747-15.258 9.834-14.919 15.598zm-.678 133.255s-3.73-10.85 3.052-20.344c7.121-9.494 5.764-15.936 5.764-15.936s4.408 5.086-.339 16.954c-2.374 5.764-10.851 14.24-8.477 19.326zm-67.815-28.821s1.017-11.528 11.528-16.954c10.511-5.764 11.868-11.868 11.868-11.868s2.034 6.442-7.46 14.919c-4.407 4.409-15.936 8.478-15.936 13.903zm39.672 15.937s-3.052-11.189 4.747-20.005 7.121-15.597 7.121-15.597 4.069 5.425-1.695 16.615c-2.714 5.763-11.869 13.901-10.173 18.987zm11.189-78.326s-3.052-11.189 4.747-20.005c7.799-8.816 7.121-15.597 7.121-15.597s4.069 5.425-1.695 16.615c-2.713 5.763-11.868 13.562-10.173 18.987zm42.384 98.331s-11.528-15.936-4.408-34.925c7.121-18.988 2.034-28.821 2.034-28.821s9.833 6.442 7.46 27.465c-1.356 10.85-10.85 28.821-5.086 36.281zm-71.205-27.126s-2.374-19.327 12.885-32.551c15.258-13.224 15.597-24.413 15.597-24.413s5.425 10.172-6.781 27.804c-6.104 8.816-23.396 19.666-21.701 29.16zm-63.068-50.183s4.747-18.988 24.074-25.77c18.988-6.781 23.396-16.954 23.396-16.954s1.356 11.528-16.275 23.396c-9.494 6.105-29.499 10.173-31.195 19.328zm110.538-25.43s-4.408-18.988 9.155-33.907c13.902-14.919 12.885-25.77 12.885-25.77s6.781 9.494-3.73 28.482c-5.425 9.155-21.022 22.04-18.31 31.195zm35.264 29.838s-11.189-15.936-3.73-34.925c7.46-18.988 2.373-28.821 2.373-28.821s9.833 6.442 6.781 27.804c-1.016 10.851-11.189 28.483-5.424 35.942zm-100.027 13.224s2.034-19.327 20.005-28.821 20.683-20.005 20.683-20.005 3.052 11.189-12.885 25.43c-8.137 7.121-27.464 13.902-27.803 23.396zm12.546-50.522s3.73-18.988 22.379-27.126c18.649-7.799 22.379-18.31 22.379-18.31s2.034 11.529-14.919 24.413c-8.817 6.443-28.483 11.868-29.839 21.023zM321.441 75.613s4.408 18.988-9.155 33.907c-13.902 14.919-12.885 25.77-12.885 25.77s-6.781-9.494 3.73-28.482c5.086-9.494 21.023-22.379 18.31-31.195zm80.36 32.212s-3.391 19.327-22.04 27.126c-18.649 8.138-22.04 18.649-22.04 18.649s-2.374-11.528 14.58-24.413c8.478-6.782 28.144-12.207 29.5-21.362zm-92.228 19.327s3.391 19.327-11.528 33.229c-14.58 13.902-14.241 25.091-14.241 25.091s-6.103-9.833 5.425-28.143c5.764-9.154 22.379-21.022 20.344-30.177zm.679 59.677s0 11.528-9.833 18.31c-9.833 6.781-10.85 13.224-10.85 13.224s-2.713-6.442 5.764-15.936c4.746-4.748 15.258-10.173 14.919-15.598zm.678-133.255s3.73 10.85-3.052 20.344c-7.121 9.494-5.764 15.936-5.764 15.936s-4.408-5.086.339-16.954c2.374-5.764 10.85-14.24 8.477-19.326zm67.814 28.482s-1.017 11.528-11.528 16.954c-10.511 5.764-11.868 11.868-11.868 11.868s-2.034-6.442 7.46-14.919c4.408-4.07 15.936-8.139 15.936-13.903zm-39.671-15.598s3.052 11.189-4.747 20.005c-7.799 8.816-7.121 15.597-7.121 15.597s-4.069-5.425 1.695-16.615c2.713-5.763 11.868-13.901 10.173-18.987zm-11.19 78.326s3.052 11.189-4.747 20.005c-7.799 8.816-7.121 15.597-7.121 15.597s-4.408-5.425 1.356-16.615c3.053-5.763 12.208-13.562 10.512-18.987zm-42.384-98.331s11.528 15.936 4.408 34.925-2.034 28.821-2.034 28.821-9.833-6.442-7.46-27.465c1.357-10.851 10.851-28.821 5.086-36.281zm71.206 27.126s2.374 19.327-12.885 32.551c-15.258 13.224-15.597 24.413-15.597 24.413s-5.425-10.172 6.781-27.804c6.103-8.816 23.396-20.005 21.701-29.16zm63.067 50.183s-4.747 18.988-24.074 25.77c-18.988 6.781-23.396 16.954-23.396 16.954s-1.356-11.528 16.276-23.396c9.494-6.105 29.499-10.173 31.194-19.328zm-110.538 25.43s4.408 18.988-9.155 33.907c-13.902 14.919-12.885 25.77-12.885 25.77s-6.781-9.494 3.73-28.482c5.087-9.155 21.023-22.04 18.31-31.195zm-35.263-29.838s11.189 15.936 3.73 34.925-2.374 28.821-2.374 28.821-9.833-6.442-6.781-27.804c1.017-10.851 11.189-28.822 5.425-35.942zm100.026-13.224s-2.034 19.327-20.005 28.821-20.683 20.005-20.683 20.005-3.052-11.189 12.885-25.43c8.137-7.121 27.464-13.902 27.803-23.396zm-12.545 50.522s-3.73 18.988-22.379 27.126c-18.649 7.799-22.379 18.31-22.379 18.31s-2.034-11.528 14.919-24.413c8.816-6.782 28.482-11.868 29.839-21.023zM66.119 290.924s13.902-13.563 33.907-9.494c19.666 4.069 28.821-2.374 28.821-2.374s-4.747 10.511-26.109 11.189c-11.188 1.019-30.176-6.102-36.619.679zm-13.563-85.446s18.31-6.781 34.585 5.086c16.275 11.868 27.126 9.494 27.126 9.494s-8.816 7.799-28.482 0c-9.833-4.069-24.413-18.31-33.229-14.58zm64.085 69.171s14.919-12.546 34.246-7.121c19.327 5.425 28.821-.339 28.821-.339s-5.425 10.172-26.787 9.494c-10.849-.339-29.498-8.476-36.28-2.034zm50.861-31.195s9.833-5.764 20.683-1.017c10.85 5.086 16.954 2.374 16.954 2.374s-4.069 5.425-16.615 3.052c-6.442-1.018-16.614-7.46-21.022-4.409zM52.556 311.269s7.46-8.816 18.988-7.799c11.868 1.017 16.615-3.391 16.615-3.391s-2.034 6.442-14.58 8.477c-6.104 1.017-17.971-1.695-21.023 2.713zm-10.172-72.901s10.511-4.747 20.683 1.356 16.275 4.069 16.275 4.069-4.747 5.086-16.615 1.356c-6.102-2.034-15.596-9.493-20.343-6.781zm6.782 42.045s8.138-8.138 19.666-6.103c11.868 2.034 16.954-1.695 16.954-1.695s-2.713 6.442-15.258 7.121c-6.443.338-17.633-3.392-21.362.677zm73.239-30.177s8.138-8.138 19.666-6.103c11.868 2.034 16.954-1.695 16.954-1.695s-2.713 6.442-15.258 7.121c-6.442-.001-17.632-3.731-21.362.677zm-62.728 86.463s7.799-17.971 27.804-21.701 25.77-13.224 25.77-13.224-.339 11.528-20.005 20.683c-9.834 4.748-30.518 5.426-33.569 14.242zm-13.224-74.935S62.05 249.896 81.038 256c19.327 6.442 28.821.678 28.821.678s-5.764 10.172-27.126 8.477c-10.85-.678-29.159-9.494-36.28-3.391zm10.85-80.021s18.649-5.425 34.246 7.46 26.448 11.189 26.448 11.189-9.155 7.121-28.482-2.034c-9.833-4.747-23.396-19.667-32.212-16.615zm78.326 81.717s13.902-13.563 33.907-9.494c19.666 4.069 28.821-2.374 28.821-2.374s-4.747 10.511-26.109 11.189c-11.188 1.018-30.176-6.103-36.619.679zm-7.799 46.113s8.138-17.632 28.143-21.022c20.005-3.391 25.77-12.546 25.77-12.546s-.678 11.528-20.344 20.005c-9.494 4.069-30.178 4.748-33.569 13.563zm-62.389-79.682s17.632-8.138 34.924 2.713c17.293 10.511 27.804 7.46 27.804 7.46s-8.138 8.477-28.482 2.034c-10.172-3.391-25.769-16.615-34.246-12.207zm49.844-14.58s18.31-6.442 34.585 5.425 27.126 9.833 27.126 9.833-8.816 7.799-28.482-.678c-10.172-4.068-24.752-18.31-33.229-14.58zm328.561 5.086s-13.902 13.563-33.907 9.494c-19.666-4.069-28.821 2.374-28.821 2.374s4.747-10.511 26.109-11.189c11.189-.679 30.177 6.442 36.619-.679zm13.563 85.786s-18.31 6.781-34.585-5.086-27.126-9.494-27.126-9.494 8.816-7.799 28.482 0c9.833 4.069 24.413 18.31 33.229 14.58zm-64.085-69.171s-14.919 12.546-34.246 7.121c-19.327-5.425-28.821.339-28.821.339s5.425-10.172 26.787-9.494c10.85.339 29.499 8.476 36.28 2.034zm-50.86 31.195s-9.833 5.764-20.683 1.017c-10.85-5.086-16.954-2.374-16.954-2.374s4.069-5.425 16.615-3.052c6.441 1.018 16.614 7.46 21.022 4.409zm114.945-67.815s-7.46 8.816-18.988 7.799c-11.868-1.017-16.615 3.391-16.615 3.391s2.034-6.442 14.58-8.477c6.104-1.018 17.972 1.695 21.023-2.713zm10.172 72.901s-10.511 4.747-20.683-1.356-16.276-4.069-16.276-4.069 4.747-5.086 16.615-1.356c6.103 2.034 15.597 9.493 20.344 6.781zm-6.781-42.045s-8.138 8.138-19.666 6.103c-11.868-2.034-16.954 1.695-16.954 1.695s2.713-6.442 15.258-7.121c6.443-.338 17.632 3.392 21.362-.677zm-73.24 30.177s-8.138 8.138-19.666 6.103c-11.868-2.034-16.954 1.695-16.954 1.695s2.713-6.442 15.258-7.121c6.443-.338 17.632 3.731 21.362-.677zm62.729-86.463s-7.799 17.971-27.804 21.701c-20.005 3.73-25.77 13.224-25.77 13.224s.339-11.528 20.005-20.683c9.834-4.748 30.517-5.427 33.569-14.242zm13.224 74.935s-15.597 11.868-34.585 5.764c-19.327-6.442-28.821-.678-28.821-.678s5.764-10.172 27.126-8.477c10.849.678 29.159 9.494 36.28 3.391zm-10.851 80.021s-18.649 5.425-34.246-7.46c-15.597-12.885-26.448-11.189-26.448-11.189s9.155-7.121 28.482 2.034c9.833 4.747 23.396 19.667 32.212 16.615zm-78.326-82.056s-13.902 13.563-33.907 9.494c-19.666-4.069-28.821 2.374-28.821 2.374s4.747-10.511 26.109-11.189c10.85-.679 30.177 6.442 36.619-.679zm7.799-45.775s-8.138 17.632-28.143 21.023c-20.005 3.391-25.77 12.546-25.77 12.546s.678-11.528 20.344-20.005c9.495-4.409 30.178-4.748 33.569-13.564zm62.39 79.683s-17.632 8.138-34.925-2.713c-17.293-10.511-27.804-7.46-27.804-7.46s8.138-8.477 28.482-2.034c10.172 3.391 25.77 16.614 34.247 12.207zm-49.844 14.58s-18.31 6.442-34.585-5.425c-16.275-11.868-27.126-9.833-27.126-9.833s8.816-7.799 28.482.678c10.172 4.068 24.752 18.309 33.229 14.58zM188.524 79.682s-4.408 18.988 9.155 33.907c13.902 14.919 12.885 25.77 12.885 25.77s6.781-9.494-3.73-28.482c-5.086-9.494-21.022-22.379-18.31-31.195zm-80.36 32.212s3.391 19.327 22.04 27.126c18.649 8.138 22.04 18.649 22.04 18.649s2.374-11.528-14.58-24.413c-8.477-6.443-28.143-12.207-29.5-21.362zm92.228 19.327s-3.391 19.327 11.528 33.229c14.58 13.902 14.241 25.091 14.241 25.091s6.103-9.833-5.425-28.143c-5.764-9.154-22.378-21.022-20.344-30.177zm-.678 59.677s0 11.528 9.833 18.31c9.833 6.781 10.85 13.224 10.85 13.224s2.713-6.442-5.764-15.936c-4.747-4.409-15.258-9.834-14.919-15.598zm-.678-133.256s-3.73 10.85 3.052 20.344c7.121 9.494 5.764 15.936 5.764 15.936s4.408-5.086-.339-16.954c-2.374-5.763-10.851-14.24-8.477-19.326zm-67.815 28.822s1.017 11.528 11.528 16.954c10.511 5.764 11.868 11.868 11.868 11.868s2.034-6.442-7.46-14.919c-4.407-4.409-15.936-8.478-15.936-13.903zm39.672-15.937s-3.052 11.189 4.747 20.005 7.121 15.597 7.121 15.597 4.069-5.425-1.695-16.615c-2.714-5.763-11.869-13.562-10.173-18.987zm11.189 78.326s-3.052 11.189 4.747 20.005c7.799 8.816 7.121 15.597 7.121 15.597s4.069-5.425-1.695-16.615c-2.713-5.763-11.868-13.562-10.173-18.987zm42.384-98.331s-11.528 15.936-4.408 34.924 2.034 28.821 2.034 28.821 9.833-6.442 7.46-27.465c-1.356-10.85-10.85-28.821-5.086-36.28zm-71.205 27.126s-2.374 19.327 12.885 32.551c15.258 13.224 15.597 24.413 15.597 24.413s5.425-10.172-6.781-27.804c-6.104-8.816-23.396-19.666-21.701-29.16zM90.193 127.83s4.747 18.988 24.074 25.77c18.988 6.781 23.396 16.954 23.396 16.954s1.356-11.528-16.275-23.396c-9.494-5.765-29.499-9.833-31.195-19.328zm110.538 25.77s-4.408 18.988 9.155 33.907c13.563 14.919 12.885 25.77 12.885 25.77s6.781-9.494-3.73-28.482c-5.425-9.494-21.022-22.379-18.31-31.195zm35.264-30.177s-11.189 15.936-3.73 34.925c7.46 18.988 2.373 28.821 2.373 28.821s9.833-6.442 6.781-27.804c-1.016-10.851-11.189-28.483-5.424-35.942zm-100.027-13.224s2.034 19.327 20.005 28.821 20.683 20.005 20.683 20.005 3.052-11.189-12.885-25.43c-8.137-7.121-27.464-13.902-27.803-23.396zm12.546 50.522s3.73 18.988 22.379 27.126c18.649 7.799 22.379 18.31 22.379 18.31s2.034-11.868-14.919-24.413c-8.817-6.443-28.483-11.869-29.839-21.023z" fill="#f4971c"/></svg>