<svg xmlns="http://www.w3.org/2000/svg" width="128" height="128" viewBox="0 0 558.957 558.957"><g fill="#003A65"><path d="M0 390.396h171.021v131.846H0zm387.938 45h171.02v86.842h-171.02zm-15.301 0v-99.475H186.32v186.321h186.32v-86.846h-.003zm-83.979 43.424a9.18 9.18 0 0 1-9.179 9.18 9.18 9.18 0 0 1-9.18-9.18v-77.256l-10.331 10.367a9.149 9.149 0 0 1-6.502 2.699 9.158 9.158 0 0 1-6.481-2.678c-3.589-3.576-3.602-9.391-.021-12.982l26.013-26.109c.003-.002.006-.002.006-.006a9.32 9.32 0 0 1 1.396-1.145c.223-.148.468-.25.701-.379.291-.158.572-.336.881-.465.303-.125.615-.195.927-.287.263-.078.514-.182.786-.236a9.103 9.103 0 0 1 1.793-.18h.009c.092 0 .177.023.272.027.508.014 1.02.055 1.518.152.273.055.523.152.787.232.312.092.623.162.928.287.297.123.564.291.848.445.244.131.498.24.734.396.424.285.816.619 1.186.967.064.062.145.105.209.168.004.004.004.008.006.008.426.424.809.893 1.145 1.395.15.223.254.469.383.703.158.291.336.57.461.879.127.303.199.621.291.936.076.262.178.512.232.781a9.1 9.1 0 0 1 .182 1.797v99.483z"/><circle cx="288.102" cy="112.581" r="24.7"/><path d="M261.863 173.662v36.548l-35.579 43.483c-3.586 4.385-3.14 10.808 1.025 14.651l27.289 25.187c2.06 1.9 4.664 2.84 7.261 2.84 2.886 0 5.762-1.16 7.874-3.445 4.012-4.346 3.742-11.123-.606-15.135l-19.875-18.344 18.054-22.063h25.831v73.468c0 4.359 2.615 8.096 6.355 9.768 1.334.596 2.799.941 4.354.941s3.023-.346 4.354-.941c3.74-1.672 6.357-5.408 6.357-9.768v-89.206c0-.731-.078-1.444-.215-2.136v-46.803l28.883-43.826a10.71 10.71 0 0 0 1.77-5.894V47.425c0-5.915-4.795-10.71-10.711-10.71-5.914 0-10.709 4.795-10.709 10.71v72.354l-16.645 25.254h-42.687l-17.898-18.893 4.942-20.591c1.38-5.752-2.163-11.533-7.913-12.913-5.759-1.383-11.536 2.164-12.913 7.913l-6.297 26.24a10.711 10.711 0 0 0 2.638 9.865l35.061 37.008z"/></g></svg>