<svg xmlns="http://www.w3.org/2000/svg" viewBox="0 0 473.935 473.935"><circle cx="236.967" cy="236.967" r="236.967" fill="#49a0ae"/><path d="M363.249 125.866c-18.769 1.257-35.446.079-50.031-2.582-51.405-9.366-77.062-36.763-77.893-37.676 0-.052-.004-.112-.004-.112l-.052.056-.06-.056v.112c-1.123 1.227-47.169 50.473-140.553 39.094V263.07c-.546 9.025 4.984 31.375 21.837 56.931 6.211 9.429 13.968 19.278 23.536 29.074 22.077 22.593 53.755 44.827 98.372 60.46 132.912-56.34 137.481-146.465 137.481-146.465V124.702c-4.326.528-8.51.88-12.633 1.164z" fill="#edb20f"/><path d="M235.325 85.605c0-.052-.004-.112-.004-.112l-.052.056-.06-.056v.112c-1.123 1.227-47.169 50.473-140.553 39.094v138.368c-.546 9.025 4.984 31.375 21.837 56.931 6.211 9.429 13.968 19.278 23.536 29.074 22.077 22.593 53.755 44.827 98.372 60.46.003.003-2.242-323.014-3.076-323.927z" fill="#ffc50b"/><path fill="#fff800" d="M235.639 171.336l22.455 45.489 50.199 7.301-36.329 35.408 8.58 50.002-44.905-23.611-44.905 23.611 8.58-50.002-36.329-35.408 50.2-7.301z"/></svg>