<svg xmlns="http://www.w3.org/2000/svg" viewBox="0 0 512.001 512.001"><path d="M346.329 0H165.671a37.917 37.917 0 0 0-26.817 11.109L11.109 138.853A37.92 37.92 0 0 0 0 165.671V346.33a37.917 37.917 0 0 0 11.109 26.817l127.745 127.745a37.927 37.927 0 0 0 26.817 11.109H346.33a37.917 37.917 0 0 0 26.817-11.109l127.745-127.745a37.929 37.929 0 0 0 11.109-26.817V165.671a37.917 37.917 0 0 0-11.109-26.817L373.147 11.109A37.92 37.92 0 0 0 346.329 0z" fill="#ff5050"/><path d="M94.815 379.259C94.815 207.421 201.177 60.52 351.614.522 349.864.275 348.117 0 346.329 0H165.671a37.917 37.917 0 0 0-26.817 11.109L11.109 138.853A37.922 37.922 0 0 0 0 165.671V346.33a37.921 37.921 0 0 0 11.109 26.817l93.103 93.103c-6.098-28.041-9.397-57.124-9.397-86.991z" fill="#c84146"/><path d="M246.519 187.259h-75.852c-6.546 0-11.852 5.306-11.852 11.852s5.306 11.852 11.852 11.852h26.074v101.926c0 6.546 5.306 11.852 11.852 11.852s11.852-5.306 11.852-11.852V210.963h26.074c6.546 0 11.852-5.306 11.852-11.852s-5.307-11.852-11.852-11.852zm66.37 0c-27.444 0-49.778 22.329-49.778 49.778v37.926c0 27.449 22.334 49.778 49.778 49.778s49.778-22.329 49.778-49.778v-37.926c0-27.449-22.334-49.778-49.778-49.778zm26.074 87.704c0 14.38-11.694 26.074-26.074 26.074s-26.074-11.694-26.074-26.074v-37.926c0-14.38 11.694-26.074 26.074-26.074s26.074 11.694 26.074 26.074v37.926zm82.963-87.704h-33.185c-6.546 0-11.852 5.306-11.852 11.852v113.778c0 6.546 5.306 11.852 11.852 11.852s11.852-5.306 11.852-11.852v-35.556h21.333c24.833 0 45.037-20.204 45.037-45.037s-20.204-45.037-45.037-45.037zm0 66.371h-21.333v-42.667h21.333c11.759 0 21.333 9.569 21.333 21.333s-9.574 21.334-21.333 21.334zm-312.889-42.667c12.574 0 21.333 6.871 21.333 13.037 0 6.546 5.306 11.852 11.852 11.852s11.852-5.306 11.852-11.852c0-20.602-19.787-36.741-45.037-36.741S64 203.398 64 224c0 28.495 25.695 37.676 41.047 43.162 21.666 7.736 25.324 12.68 25.324 20.838 0 6.167-8.76 13.037-21.333 13.037S87.704 294.167 87.704 288c0-6.546-5.306-11.852-11.852-11.852S64 281.454 64 288c0 20.602 19.787 36.741 45.037 36.741s45.037-16.139 45.037-36.741c0-28.495-25.695-37.676-41.047-43.162-21.666-7.736-25.324-12.68-25.324-20.838.001-6.167 8.76-13.037 21.334-13.037z" fill="#fff"/></svg>