<svg xmlns="http://www.w3.org/2000/svg" viewBox="0 0 491.52 491.52"><circle cx="245.76" cy="245.76" r="245.76" fill="#45b39c"/><path d="M137.881 104.96v281.6l104.884 104.884c1.001.012 1.99.076 2.994.076 135.73 0 245.76-110.03 245.76-245.76 0-1.004-.064-1.993-.076-2.994L353.639 104.96H137.881z" opacity=".1"/><path fill="#ebf0f3" d="M137.876 104.96h215.757v281.6H137.876z"/><path fill="#27a2db" d="M148.116 115.21h195.277v59.72H148.116z"/><path d="M171.321 168.16v-38.58h-10.989v-7.62h31.534v7.62h-10.989v38.58h-9.556zm18.081 0l11.555-46.2h12.82l11.655 46.2h-10.289l-2.531-11.61h-10.989l-2.464 11.61h-9.757zm13.72-18.54h8.125l-4.096-19.38-4.029 19.38zm23.575 18.54l12.554-23.58-11.921-22.62h10.756l6.826 14.55 6.959-14.55h10.656l-12.354 22.62 12.687 23.58h-10.789l-7.426-15.42-7.559 15.42h-10.389zm41.124 0v-46.2h26.34v7.68h-16.849v10.68h15.684v7.32h-15.684v12.72h17.249v7.8h-26.74zm32.8-16.23h9.557v2.97c0 2.84.394 4.775 1.182 5.805s2.148 1.545 4.079 1.545c2.02 0 3.557-.46 4.612-1.38 1.054-.92 1.582-2.28 1.582-4.08 0-1.38-.366-2.565-1.099-3.555s-2.32-2.265-4.762-3.825l-4.895-3.12c-4.218-2.64-6.898-4.82-8.042-6.54-1.143-1.72-1.715-3.88-1.715-6.48 0-3.88 1.276-6.92 3.829-9.12 2.553-2.2 6.072-3.3 10.556-3.3 4.751 0 8.391 1.17 10.922 3.51 2.531 2.34 3.796 5.7 3.796 10.08 0 .44-.006.78-.017 1.02-.011.24-.028.45-.05.63H321.1v-1.23c0-2.5-.455-4.29-1.365-5.37-.91-1.08-2.409-1.62-4.495-1.62-1.532 0-2.736.405-3.613 1.215-.877.81-1.315 1.935-1.315 3.375 0 1.94 1.965 4.09 5.894 6.45l.1.06 5.261 3.21c3.752 2.24 6.294 4.355 7.625 6.345 1.332 1.99 1.998 4.525 1.998 7.605 0 4.2-1.332 7.44-3.996 9.72-2.664 2.28-6.471 3.42-11.422 3.42-5.15 0-8.985-1.2-11.505-3.6-2.52-2.4-3.779-6.06-3.779-10.98 0-.52.044-1.38.133-2.58v-.18z" fill="#fff"/><path d="M167.809 286.239v-10.997c-6.815-.405-11.945-2.671-15.39-6.797-3.445-4.126-5.167-10.076-5.167-17.849v-2.155h13.428c0 .295-.018.737-.055 1.326a22.904 22.904 0 0 0-.055 1.271c0 3.905.626 6.908 1.879 9.007s3.205 3.389 5.858 3.868v-25.088c-7.257-3.979-12.433-8.003-15.528-12.074-3.095-4.071-4.642-8.851-4.642-14.34 0-6.373 1.741-11.457 5.222-15.252 3.481-3.795 8.298-5.839 14.45-6.134v-7.571h6.244v7.681c6.336.074 11.163 1.842 14.478 5.305 3.316 3.463 4.973 8.492 4.973 15.086v1.603h-13.097v-1.16c0-3.131-.599-5.581-1.796-7.35-1.197-1.768-2.864-2.708-5.001-2.818v22.601c8.4 4.347 14.137 8.492 17.213 12.433 3.076 3.942 4.614 8.86 4.614 14.754 0 7.257-1.833 12.912-5.498 16.965-3.666 4.052-8.961 6.281-15.887 6.686v10.997h-6.243zm.497-64.876l-.055-19.673c-2.137.184-3.776 1.059-4.918 2.625-1.142 1.566-1.713 3.712-1.713 6.438 0 2.063.543 3.97 1.63 5.719 1.087 1.751 2.772 3.381 5.056 4.891zm5.305 42.551c2.468-.442 4.347-1.52 5.637-3.233 1.289-1.713 1.934-3.988 1.934-6.825 0-2.8-.553-5.102-1.658-6.907-1.105-1.805-3.076-3.61-5.913-5.415v22.38z" fill="#e56353"/><path d="M210.381 193.551h133.023v7.68H210.381zm0 28.145h133.023v7.68H210.381zm0 28.099h133.023v7.68H210.381zm0 28.119h133.023v7.68H210.381zm-63.13 28.129h196.147v7.68H147.251zm0 28.139h196.147v7.68H147.251zm0 28.109h129.638v7.68H147.251z" fill="#d5d6db"/></svg>