<svg xmlns="http://www.w3.org/2000/svg" viewBox="0 0 512 512"><path d="M506.605 197.101l-76.712-84.383a20.75 20.75 0 0 0-15.342-6.788h-96.759v300.138h44.138c0-29.246 23.711-52.966 52.966-52.966 29.255 0 52.966 23.72 52.966 52.966H512v-195.01a20.744 20.744 0 0 0-5.395-13.957" fill="#ee705c"/><path d="M317.793 300.138H0V78.336c0-14.009 11.361-25.37 25.37-25.37h267.052c14.009 0 25.37 11.361 25.37 25.37v221.802z" fill="#fac75a"/><path d="M368.275 247.172h143.722V211.05a20.737 20.737 0 0 0-5.394-13.948l-50.776-55.861h-87.552a6.347 6.347 0 0 0-6.347 6.347v93.237a6.348 6.348 0 0 0 6.347 6.347" fill="#e6e6e6"/><path d="M467.862 406.069c0 29.255-23.711 52.966-52.966 52.966s-52.966-23.711-52.966-52.966 23.711-52.966 52.966-52.966 52.966 23.711 52.966 52.966m-317.793 0c0 29.255-23.711 52.966-52.966 52.966s-52.966-23.711-52.966-52.966 23.711-52.966 52.966-52.966 52.966 23.711 52.966 52.966" fill="#5b5b5b"/><path d="M0 300.138v83.871c0 12.182 9.878 22.06 22.06 22.06h22.078c0-29.255 23.711-52.966 52.966-52.966s52.966 23.711 52.966 52.966h167.724V300.138H0z" fill="#c64533"/><path d="M114.759 406.069c0 9.754-7.901 17.655-17.655 17.655s-17.655-7.901-17.655-17.655 7.901-17.655 17.655-17.655 17.655 7.9 17.655 17.655m317.793 0c0 9.754-7.901 17.655-17.655 17.655s-17.655-7.901-17.655-17.655 7.901-17.655 17.655-17.655 17.655 7.9 17.655 17.655" fill="#b2b2b2"/><path d="M512 300.138h-52.966c-4.882 0-8.828 3.946-8.828 8.828s3.946 8.828 8.828 8.828H512v-17.656z" fill="#f4a29b"/><path d="M132.414 229.517c4.873 0 8.828-3.946 8.828-8.828s-3.955-8.828-8.828-8.828H0v17.655h132.414zm-35.311-44.138a8.826 8.826 0 0 0 8.828-8.828 8.826 8.826 0 0 0-8.828-8.828H0v17.655h97.103z" fill="#d8ac4e"/></svg>