<svg xmlns="http://www.w3.org/2000/svg" viewBox="0 0 512 512"><path fill="#736f7b" d="M364.228 260.61l-12.065 33.184-38.65-14.052 12.066-33.185z"/><path d="M311.108 288.276l-33.785-12.286 18.101-49.777 33.785 12.286a8.827 8.827 0 0 1 5.279 11.313l-12.067 33.184a8.827 8.827 0 0 1-11.313 5.28z" fill="#ffc84b"/><path fill="#8d8a94" d="M356.575 293.217l-6.396 17.591-59.91-21.782 6.396-17.591z"/><path d="M323.252 212.046l-20.212-43.31a17.66 17.66 0 0 0-9.965-9.127L186.69 120.923a61.793 61.793 0 0 0-23.078-3.689l-130.648 4.148L8.83 187.751l97.468 87.098a61.818 61.818 0 0 0 20.057 11.997l106.385 38.686a17.653 17.653 0 0 0 13.5-.594l43.31-20.212a17.66 17.66 0 0 0 9.127-9.965l25.17-69.216a17.664 17.664 0 0 0-.595-13.499z" fill="#ffdc5a"/><path d="M5.813 196.047a8.827 8.827 0 0 1-5.279-11.313l24.135-66.369a8.827 8.827 0 0 1 11.313-5.279 8.827 8.827 0 0 1 5.279 11.313l-24.135 66.369a8.828 8.828 0 0 1-11.313 5.279z" fill="#ffc84b"/><path d="M406.069 333.241H8.828A8.829 8.829 0 0 1 0 324.413v-17.655a8.829 8.829 0 0 1 8.828-8.828h397.241v35.311z" fill="#736f7b"/><path d="M414.897 333.241H8.828v26.483a8.829 8.829 0 0 0 8.828 8.828h397.241v-35.311z" fill="#625d6b"/><path d="M446.909 165.518h-58.495a8.829 8.829 0 0 0-8.828 8.828V306.76a8.829 8.829 0 0 0 8.828 8.828h22.069v44.138h92.69v-63.058a88.28 88.28 0 0 0-5.884-31.689l-33.901-88.143a17.655 17.655 0 0 0-16.479-11.318z" fill="#ffdc5a"/><path fill="#ffc84b" d="M410.483 315.586h92.69v44.138h-92.69z"/><circle cx="75.034" cy="364.138" r="40.46" fill="#ededee"/><path d="M75.034 412.689c-26.773 0-48.552-21.779-48.552-48.552s21.779-48.552 48.552-48.552 48.552 21.779 48.552 48.552-21.779 48.552-48.552 48.552zm0-79.448c-17.039 0-30.897 13.857-30.897 30.897s13.857 30.897 30.897 30.897 30.897-13.857 30.897-30.897-13.857-30.897-30.897-30.897z" fill="#504b5a"/><circle cx="75.034" cy="364.138" r="17.655" fill="#dcdbde"/><circle cx="172.138" cy="364.138" r="40.46" fill="#ededee"/><path d="M172.138 412.689c-26.773 0-48.552-21.779-48.552-48.552s21.779-48.552 48.552-48.552 48.552 21.779 48.552 48.552-21.779 48.552-48.552 48.552zm0-79.448c-17.039 0-30.897 13.857-30.897 30.897s13.857 30.897 30.897 30.897 30.897-13.857 30.897-30.897-13.858-30.897-30.897-30.897z" fill="#504b5a"/><circle cx="172.138" cy="364.138" r="17.655" fill="#dcdbde"/><circle cx="410.483" cy="364.138" r="40.46" fill="#ededee"/><path d="M410.483 412.689c-26.773 0-48.552-21.779-48.552-48.552s21.779-48.552 48.552-48.552 48.552 21.779 48.552 48.552c-.001 26.773-21.779 48.552-48.552 48.552zm0-79.448c-17.039 0-30.897 13.857-30.897 30.897s13.857 30.897 30.897 30.897 30.897-13.857 30.897-30.897-13.858-30.897-30.897-30.897z" fill="#504b5a"/><circle cx="410.483" cy="364.138" r="17.655" fill="#dcdbde"/><path d="M494.345 368.551h8.828a8.829 8.829 0 0 0 8.828-8.828v-17.655a8.829 8.829 0 0 0-8.828-8.828h-8.828a8.829 8.829 0 0 0-8.828 8.828v17.655a8.827 8.827 0 0 0 8.828 8.828z" fill="#625d6b"/><path d="M494.345 297.931h8.828v26.483h-8.828a8.829 8.829 0 0 1-8.828-8.828v-8.828a8.827 8.827 0 0 1 8.828-8.827z" fill="#ededee"/><path d="M444.242 183.173h-38.173a8.829 8.829 0 0 0-8.828 8.828v44.138a8.829 8.829 0 0 0 8.828 8.828h64.779c4.476 0 7.56-4.49 5.953-8.668l-16.079-41.809a17.659 17.659 0 0 0-16.48-11.317z" fill="#625d6b"/><path d="M247.172 333.241h61.793a8.829 8.829 0 0 1 8.828 8.828v26.483a8.829 8.829 0 0 1-8.828 8.828h-61.793a8.829 8.829 0 0 1-8.828-8.828v-26.483a8.829 8.829 0 0 1 8.828-8.828z" fill="#8d8a94"/><circle cx="256" cy="350.897" r="8.828" fill="#625d6b"/><path d="M370.759 183.173h-17.655v-54.481c0-2.342-.93-4.588-2.586-6.243l-9.362-9.362a4.413 4.413 0 0 1 0-6.242l6.241-6.241a4.413 4.413 0 0 1 6.242 0l9.362 9.362a26.488 26.488 0 0 1 7.758 18.731v54.476z" fill="#8d8a94"/><path d="M353.103 174.345h17.655a8.829 8.829 0 0 1 8.828 8.828v123.586a8.829 8.829 0 0 1-8.828 8.828h-17.655a8.829 8.829 0 0 1-8.828-8.828V183.173a8.829 8.829 0 0 1 8.828-8.828z" fill="#a7a5ac"/><path d="M26.483 193.006v104.926h44.138L45.897 190.794a9.834 9.834 0 0 0-9.581-7.622c-5.43.001-9.833 4.402-9.833 9.834z" fill="#8d8a94"/><path d="M108.184 276.381a61.728 61.728 0 0 0 15.402 9.306l60.237-165.653a61.724 61.724 0 0 0-17.782-2.761l-57.857 159.108z" fill="#ffc84b"/></svg>