<svg xmlns="http://www.w3.org/2000/svg" viewBox="0 0 512 512"><path d="M315.429 237.714c-27.723 0-50.286 22.558-50.286 50.286s22.563 50.286 50.286 50.286 50.286-22.558 50.286-50.286-22.563-50.286-50.286-50.286zm-41.143-64c0-10.085-8.205-18.286-18.286-18.286-10.08 0-18.286 8.201-18.286 18.286S245.92 192 256 192c10.08 0 18.286-8.201 18.286-18.286zM169.143 256c-17.643 0-32 14.357-32 32s14.357 32 32 32 32-14.357 32-32-14.357-32-32-32z" fill="#e65f58"/><path d="M475.482 237.714h-47.92a9.137 9.137 0 0 1-9.027-7.71c-4.027-25.33-14.134-49.723-29.241-70.54a9.15 9.15 0 0 1 .938-11.835l33.893-33.897c3.438-3.437 5.33-8.018 5.321-12.897a18.219 18.219 0 0 0-5.357-12.924c-7.134-7.134-18.723-7.147-25.822-.04l-33.893 33.897a9.13 9.13 0 0 1-11.83.938c-20.822-15.107-45.214-25.219-70.554-29.237a9.145 9.145 0 0 1-7.705-9.032v-47.92c0-10.054-8.205-18.232-18.286-18.232-10.08 0-18.286 8.179-18.286 18.232v47.92a9.144 9.144 0 0 1-7.705 9.031c-25.339 4.018-49.732 14.129-70.554 29.237-3.625 2.643-8.652 2.245-11.83-.938L113.731 87.87c-3.429-3.429-8-5.317-12.875-5.317h-.027a18.165 18.165 0 0 0-12.92 5.357 18.165 18.165 0 0 0-5.357 12.933 18.04 18.04 0 0 0 5.321 12.884l33.893 33.902a9.152 9.152 0 0 1 .938 11.835c-15.107 20.817-25.214 45.21-29.241 70.54a9.136 9.136 0 0 1-9.027 7.71h-47.92c-10.054 0-18.232 8.201-18.232 18.286s8.179 18.286 18.232 18.286h47.92c4.5 0 8.321 3.268 9.027 7.71 4.027 25.33 14.134 49.723 29.241 70.54a9.15 9.15 0 0 1-.938 11.835l-33.893 33.897a18.071 18.071 0 0 0-5.321 12.897 18.219 18.219 0 0 0 5.357 12.924c7.125 7.125 18.714 7.138 25.821.04l33.893-33.897a9.11 9.11 0 0 1 6.464-2.679c1.875 0 3.759.571 5.366 1.741 20.821 15.107 45.214 25.219 70.554 29.237a9.144 9.144 0 0 1 7.705 9.031v47.92c0 10.053 8.205 18.232 18.286 18.232 10.08 0 18.286-8.178 18.286-18.232v-47.92a9.144 9.144 0 0 1 7.705-9.031c25.339-4.018 49.732-14.129 70.554-29.237 3.634-2.629 8.661-2.241 11.83.938l33.893 33.897c3.429 3.429 8 5.317 12.875 5.317h.027a18.165 18.165 0 0 0 12.92-5.357 18.165 18.165 0 0 0 5.357-12.933 18.04 18.04 0 0 0-5.321-12.884l-33.893-33.902a9.153 9.153 0 0 1-.938-11.835c15.107-20.817 25.214-45.21 29.241-70.54a9.136 9.136 0 0 1 9.027-7.71h47.92c10.053 0 18.232-8.201 18.232-18.286s-8.177-18.285-18.231-18.285zM169.143 338.286c-27.723 0-50.286-22.558-50.286-50.286s22.563-50.286 50.286-50.286 50.286 22.558 50.286 50.286-22.563 50.286-50.286 50.286zm50.286-164.572c0-20.165 16.402-36.571 36.571-36.571s36.571 16.406 36.571 36.571S276.17 210.286 256 210.286s-36.571-16.406-36.571-36.572zm96 182.857c-37.813 0-68.571-30.759-68.571-68.571s30.759-68.571 68.571-68.571S384 250.187 384 288s-30.759 68.571-68.571 68.571z" fill="#e4ad40"/><g fill="#314e55"><path d="M292.571 173.714c0-20.165-16.402-36.571-36.571-36.571s-36.571 16.406-36.571 36.571S235.83 210.286 256 210.286s36.571-16.406 36.571-36.572zm-54.857 0c0-10.085 8.205-18.286 18.286-18.286 10.08 0 18.286 8.201 18.286 18.286S266.08 192 256 192c-10.08 0-18.286-8.201-18.286-18.286zm77.715 45.715c-37.813 0-68.571 30.759-68.571 68.571s30.759 68.571 68.571 68.571S384 325.813 384 288s-30.759-68.571-68.571-68.571zm0 118.857c-27.723 0-50.286-22.558-50.286-50.286s22.563-50.286 50.286-50.286 50.286 22.558 50.286 50.286-22.563 50.286-50.286 50.286z"/><path d="M475.482 219.429h-40.286c-4.661-22.83-13.759-44.79-26.643-64.268l28.5-28.496c6.902-6.897 10.696-16.08 10.679-25.857-.009-9.759-3.821-18.933-10.714-25.826-14.25-14.259-37.446-14.272-51.679-.04l-28.5 28.5c-19.473-12.88-41.438-21.982-64.268-26.638V36.518C292.571 16.384 276.17 0 256 0s-36.571 16.384-36.571 36.518v40.286c-22.83 4.656-44.795 13.759-64.268 26.638l-28.5-28.5c-6.884-6.884-16.045-10.674-25.804-10.674h-.045c-9.768.013-18.938 3.817-25.83 10.714-6.902 6.902-10.714 16.08-10.714 25.848-.009 9.768 3.786 18.942 10.679 25.83l28.5 28.5c-12.884 19.477-21.982 41.437-26.643 64.268H36.518C16.384 219.429 0 235.835 0 256c0 20.165 16.384 36.571 36.518 36.571h40.286c4.661 22.83 13.759 44.79 26.643 64.268l-28.5 28.496c-6.902 6.897-10.696 16.08-10.679 25.857.009 9.759 3.821 18.933 10.714 25.826 14.259 14.268 37.455 14.281 51.679.04l28.5-28.5c19.473 12.88 41.437 21.982 64.268 26.638v40.286C219.429 495.616 235.83 512 256 512s36.571-16.384 36.571-36.518v-40.286c22.83-4.656 44.795-13.759 64.268-26.638l28.5 28.5c6.884 6.884 16.045 10.674 25.804 10.674h.045c9.768-.014 18.938-3.817 25.83-10.714 6.902-6.902 10.714-16.08 10.714-25.848.009-9.768-3.786-18.942-10.679-25.83l-28.5-28.5c12.884-19.478 21.982-41.438 26.643-64.268h40.286C495.616 292.571 512 276.165 512 256c0-20.165-16.384-36.571-36.518-36.571zm0 54.857h-47.92a9.137 9.137 0 0 0-9.027 7.71c-4.027 25.33-14.134 49.723-29.241 70.54a9.15 9.15 0 0 0 .938 11.835l33.893 33.902c3.438 3.433 5.33 8.009 5.321 12.884 0 4.888-1.902 9.478-5.357 12.933a18.16 18.16 0 0 1-12.92 5.357h-.027c-4.875 0-9.446-1.888-12.875-5.317l-33.893-33.897c-3.17-3.178-8.196-3.567-11.83-.938-20.822 15.107-45.214 25.219-70.554 29.237a9.144 9.144 0 0 0-7.705 9.031v47.92c0 10.054-8.205 18.232-18.286 18.232-10.08 0-18.286-8.179-18.286-18.232v-47.92a9.144 9.144 0 0 0-7.705-9.031c-25.339-4.018-49.732-14.129-70.554-29.237a9.095 9.095 0 0 0-5.366-1.741 9.106 9.106 0 0 0-6.464 2.679l-33.893 33.897c-7.107 7.098-18.696 7.085-25.821-.04a18.219 18.219 0 0 1-5.357-12.924 18.068 18.068 0 0 1 5.321-12.897l33.893-33.897a9.152 9.152 0 0 0 .938-11.835c-15.107-20.817-25.214-45.21-29.241-70.54a9.135 9.135 0 0 0-9.027-7.71h-47.92c-10.054 0-18.232-8.201-18.232-18.286s8.179-18.286 18.232-18.286h47.92c4.5 0 8.321-3.268 9.027-7.71 4.027-25.33 14.134-49.723 29.241-70.54a9.15 9.15 0 0 0-.938-11.835l-33.893-33.902a18.04 18.04 0 0 1-5.321-12.884c0-4.888 1.902-9.478 5.357-12.933a18.16 18.16 0 0 1 12.92-5.357h.027c4.875 0 9.446 1.888 12.875 5.317l33.893 33.897c3.179 3.183 8.205 3.58 11.83.938 20.821-15.107 45.214-25.219 70.554-29.237a9.145 9.145 0 0 0 7.705-9.032v-47.92c0-10.054 8.205-18.232 18.286-18.232 10.08 0 18.286 8.179 18.286 18.232v47.92a9.144 9.144 0 0 0 7.705 9.031c25.339 4.018 49.732 14.129 70.554 29.237a9.128 9.128 0 0 0 11.83-.938l33.893-33.897c7.098-7.107 18.688-7.094 25.822.04a18.219 18.219 0 0 1 5.357 12.924 18.068 18.068 0 0 1-5.321 12.897l-33.893 33.897a9.153 9.153 0 0 0-.938 11.835c15.107 20.817 25.214 45.21 29.241 70.54a9.136 9.136 0 0 0 9.027 7.71h47.92c10.053 0 18.232 8.201 18.232 18.286 0 10.086-8.179 18.287-18.233 18.287z"/><path d="M169.143 237.714c-27.723 0-50.286 22.558-50.286 50.286s22.563 50.286 50.286 50.286 50.286-22.558 50.286-50.286-22.563-50.286-50.286-50.286zm0 82.286c-17.643 0-32-14.357-32-32s14.357-32 32-32 32 14.357 32 32-14.357 32-32 32z"/></g></svg>