<svg xmlns="http://www.w3.org/2000/svg" width="128" height="128" viewBox="0 0 517.079 517.079"><path d="M6.942 243.516h.026c0-.161-.026-.296-.016-.459.247-3.53 3.335-6.164 6.859-5.956h.103c1.814.117 36.7 1.961 53.23-13.475 5.647-5.272 8.399-11.918 8.399-20.307a6.42 6.42 0 0 1 6.421-6.427h.011a6.43 6.43 0 0 1 6.427 6.427c0 8.389 2.738 15.035 8.395 20.307 13.078 12.216 37.668 13.611 48.253 13.592 11.859-.295 32.338-2.481 43.929-13.233 5.746-5.308 8.531-12.088 8.531-20.666a6.43 6.43 0 0 1 12.86 0c0 8.389 2.745 15.035 8.394 20.307 12.175 11.374 34.321 13.352 45.872 13.576 11.951-.364 31.869-2.678 43.253-13.217 5.738-5.308 8.53-12.088 8.53-20.666a6.428 6.428 0 0 1 6.43-6.427 6.43 6.43 0 0 1 6.43 6.427c0 8.389 2.74 15.035 8.387 20.307 12.257 11.447 34.606 13.382 46.088 13.576 11.939-.364 31.927-2.65 43.335-13.217 5.746-5.308 8.539-12.088 8.539-20.666a6.426 6.426 0 0 1 6.424-6.427 6.423 6.423 0 0 1 6.436 6.427c0 8.389 2.745 15.035 8.392 20.307 16.892 15.762 52.96 13.502 53.325 13.475 3.534-.208 6.615 2.426 6.858 5.956a6.423 6.423 0 0 1-5.962 6.865c-1.699.117-41.957 2.706-62.972-16.876-2.312-2.159-4.328-4.511-6.011-7.023-4.796 7.352-12.26 13.185-22.235 17.274-8.575 3.522-17.919 5.256-25.913 6.093-.653.279-1.343.493-2.076.531-.436.033-3.513.224-8.153.169-1.377.027-2.638.055-3.754.055-3.675 0-6.961-.011-9.302-.887-13.471-1.515-30.424-5.636-41.761-16.213a39.322 39.322 0 0 1-6.014-7.023c-4.801 7.352-12.265 13.185-22.234 17.274-8.438 3.448-17.604 5.191-25.498 6.047-.681.314-1.414.539-2.195.578-.443.033-3.607.241-8.367.169-1.4.027-2.7.055-3.85.055-3.736 0-7.042-.027-9.384-.931-13.415-1.562-30.146-5.699-41.38-16.169a39.237 39.237 0 0 1-6.007-7.023c-4.803 7.352-12.266 13.185-22.239 17.274-9.976 4.096-20.985 5.778-29.716 6.446a4.316 4.316 0 0 1-1.047.172 30.59 30.59 0 0 1-1.727.09c-1.6.124-3.374.134-5.25.134-.341 0-.717-.01-1.086-.01-.369 0-.738.01-1.081.01-2.624 0-5.031-.01-7.062-.325-8.865-.616-20.318-2.279-30.673-6.522-9.923-4.085-17.373-9.882-22.163-17.185-4.811 7.308-12.256 13.106-22.185 17.185-14.525 5.956-31.234 6.848-39.9 6.848-1.877 0-3.651-.01-5.246-.134a32.115 32.115 0 0 1-1.737-.09 6.155 6.155 0 0 1-2.925-.974c-1.57-.758-2.594-2.057-2.897-4.169a6.466 6.466 0 0 1-.117-.947c.024-.107-.002-.186-.002-.309zm496.342 63.641c-.358.028-36.434 2.3-53.327-13.454-5.647-5.28-8.395-11.919-8.395-20.323a6.417 6.417 0 0 0-6.429-6.425 6.422 6.422 0 0 0-6.425 6.425c0 8.591-2.796 15.356-8.536 20.667-11.415 10.578-31.403 12.859-43.344 13.227-11.485-.202-33.822-2.145-46.079-13.582-5.653-5.272-8.395-11.917-8.395-20.322a6.424 6.424 0 0 0-6.425-6.419c-3.554 0-6.435 2.872-6.435 6.419 0 8.591-2.791 15.354-8.53 20.673-11.383 10.545-31.293 12.843-43.248 13.209-11.554-.207-33.697-2.205-45.875-13.56-5.647-5.28-8.393-11.917-8.393-20.322a6.425 6.425 0 0 0-6.427-6.425 6.424 6.424 0 0 0-6.434 6.425c0 8.585-2.785 15.349-8.528 20.667-11.591 10.742-32.073 12.93-43.929 13.237-10.59 0-35.178-1.368-48.256-13.593-5.654-5.275-8.392-11.919-8.392-20.323 0-3.551-2.886-6.418-6.427-6.418h-.012a6.412 6.412 0 0 0-6.422 6.418c0 8.404-2.75 15.048-8.399 20.323-16.528 15.422-51.415 13.582-53.231 13.472a.161.161 0 0 1-.039-.011h-.061c-3.526-.196-6.612 2.43-6.859 5.977-.01.142.016.295.016.437H0c0 .115.033.208.033.329a6.5 6.5 0 0 0 .118.93c.301 2.111 1.322 3.414 2.897 4.186.867.536 1.85.903 2.926.975.177.017.796.05 1.736.093 1.59.121 3.365.121 5.245.121 8.668 0 25.376-.887 39.899-6.85 9.929-4.067 17.376-9.874 22.183-17.184 4.791 7.31 12.245 13.122 22.167 17.184 10.356 4.244 21.809 5.919 30.674 6.522 2.021.317 4.438.327 7.06.327h2.168c1.877 0 3.642 0 5.25-.121a59.223 59.223 0 0 0 1.726-.093c.364-.027.707-.104 1.048-.169 8.73-.668 19.736-2.37 29.714-6.467 9.969-4.09 17.433-9.922 22.241-17.271 1.674 2.527 3.673 4.861 6.005 7.037 11.236 10.474 27.968 14.6 41.382 16.153 2.342.921 5.647.931 9.385.931 1.142 0 2.447-.01 3.849-.056 4.771.071 7.927-.126 8.365-.153a6.376 6.376 0 0 0 2.192-.579c7.898-.849 17.067-2.594 25.5-6.062 9.965-4.09 17.428-9.922 22.232-17.271 1.686 2.527 3.683 4.861 6.014 7.037 11.344 10.577 28.29 14.676 41.769 16.197 2.344.877 5.618.887 9.291.887 1.127 0 2.382-.01 3.759-.056 4.646.071 7.715-.126 8.148-.153a6.732 6.732 0 0 0 2.078-.524c8.003-.849 17.342-2.595 25.918-6.116 9.969-4.09 17.434-9.922 22.238-17.271 1.678 2.527 3.686 4.861 6.006 7.037 21.015 19.584 61.281 16.996 62.973 16.875 3.548-.252 6.218-3.326 5.966-6.855-.264-3.543-3.337-6.161-6.871-5.969z" fill="#003A65"/></svg>